<svg width="154" height="154" viewBox="0 0 154 154" fill="none" xmlns="http://www.w3.org/2000/svg">
<path d="M144.532 122.014C97.877 122.252 49.2771 122.528 4.27988 122.474C3.72933 122.474 3.65199 123.337 4.21479 123.341C50.8292 123.607 97.8119 123.187 144.441 122.958C145.065 122.956 145.138 122.011 144.532 122.014Z" fill="#191919"/>
<path d="M118.916 82.0495C118.89 82.6102 118.725 83.1556 118.435 83.636C118.128 84.0687 118.521 84.4783 118.951 84.1039C119.208 83.8264 119.39 83.4871 119.478 83.1189C119.566 82.7507 119.557 82.366 119.453 82.002C119.427 81.9504 119.386 81.9078 119.335 81.8797C119.284 81.8516 119.226 81.8393 119.168 81.8444C119.111 81.8495 119.056 81.8718 119.011 81.9083C118.966 81.9448 118.932 81.994 118.916 82.0495Z" fill="#191919"/>
<path d="M119.036 79.5448C119.738 79.0024 120.237 78.2393 120.453 77.3786C120.626 76.6979 120.21 76.2522 119.816 77.1052C119.556 77.8075 119.169 78.4563 118.676 79.0195C118.29 79.4529 118.506 79.809 119.036 79.5448Z" fill="#191919"/>
<path d="M112.254 72.9497C112.395 75.5163 111.66 78.3778 112.392 80.5892C112.497 80.9054 113.029 80.8495 112.99 80.4942C112.782 78.7426 112.782 76.9724 112.99 75.2208C113.378 69.2811 111.688 69.9641 111.79 70.4802C112.05 71.2799 112.206 72.1099 112.254 72.9497Z" fill="#191919"/>
<path d="M118.126 78.3449C118.788 77.4109 119.164 76.3044 119.208 75.1603C119.15 74.2935 118.501 74.2285 118.463 75.0256C118.365 76.05 118.041 77.04 117.515 77.9246C117.25 78.5134 117.606 79.0379 118.126 78.3449Z" fill="#191919"/>
<path d="M119.244 80.6627C118.953 81.0318 119.221 81.3258 119.642 81.1352C120.251 80.7295 120.733 80.1605 121.033 79.4935C121.339 78.5356 120.559 78.4215 120.443 79.0601C120.342 79.6237 119.496 80.3427 119.244 80.6627Z" fill="#191919"/>
<path d="M115.365 75.8319C115.59 75.3548 116.983 73.5347 117.038 73.7736C116.962 75.1384 116.477 76.4489 115.647 77.5348C115.448 77.7952 115.737 78.2837 116.254 77.8641C117.085 77.1872 117.839 74.7491 117.748 73.6863C117.741 73.5921 117.715 73.5004 117.67 73.4172C117.625 73.3339 117.563 73.2611 117.489 73.2033C117.414 73.1455 117.328 73.1041 117.236 73.0818C117.144 73.0595 117.049 73.0567 116.956 73.0738C116.16 73.2078 115.159 74.7178 114.871 75.6006C114.78 75.8885 115.231 76.1175 115.365 75.8319Z" fill="#191919"/>
<path d="M94.4835 72.9497C94.409 72.8913 94.3234 72.8487 94.2319 72.8245C94.1405 72.8002 94.045 72.7949 93.9514 72.8087C93.8578 72.8225 93.7679 72.8552 93.6874 72.9049C93.6068 72.9545 93.5372 73.0201 93.4827 73.0975C93.2744 73.4313 93.4199 73.6426 93.73 73.4872C93.9426 73.3795 94.1834 73.3401 94.4192 73.3746C94.6573 73.3831 94.6742 73.0668 94.4835 72.9497Z" fill="#191919"/>
<path d="M89.5699 77.1535C89.4398 76.8587 88.9198 77.0769 88.9719 77.4047C89.194 78.7952 91.0554 79.4338 91.8364 79.2638C92.0999 79.2064 92.2898 79.0219 92.0914 78.7952C91.7821 78.4422 90.354 78.9346 89.5699 77.1535Z" fill="#191919"/>
<path d="M89.8735 71.3769C89.5889 71.4363 89.327 71.5748 89.1177 71.7765C88.9084 71.9782 88.7603 72.2349 88.6905 72.5171C88.6215 72.9497 88.9462 73.2062 89.3145 72.6427C89.3935 72.5057 89.4989 72.3858 89.6245 72.2898C89.7502 72.1939 89.8936 72.1238 90.0465 72.0837C90.6484 71.9275 90.4501 71.3118 89.8735 71.3769Z" fill="#191919"/>
<path d="M91.1688 73.6434C90.9753 73.5661 90.7598 73.5641 90.5649 73.6378C90.37 73.7115 90.2098 73.8556 90.1159 74.0416C89.9628 74.341 90.0945 74.5883 90.4406 74.3846C90.6531 74.2454 90.9017 74.1714 91.1558 74.1717C91.4261 74.1695 91.459 73.7904 91.1688 73.6434Z" fill="#191919"/>
<path d="M94.7479 70.8784C94.5466 70.7022 94.3018 70.5832 94.0389 70.5338C93.776 70.4844 93.5047 70.5063 93.2532 70.5974C92.8459 70.7704 92.9155 71.2429 93.4064 71.2429C93.759 71.1904 94.1192 71.2262 94.4546 71.347C94.8474 71.4925 94.9646 71.0737 94.7479 70.8784Z" fill="#191919"/>
<path d="M92.2682 76.1121C91.8853 76.4544 92.3807 76.7316 93.2123 76.3418C93.3638 76.2968 93.4955 76.2014 93.5853 76.0713C93.6751 75.9412 93.7178 75.7843 93.7062 75.6266C93.553 75.0049 93.2856 74.417 92.9175 73.8931C92.6112 73.5814 92.4581 73.9934 92.5928 74.3265C92.775 74.7792 92.9199 75.2461 93.0262 75.7224C93.0446 75.7668 92.3608 76.0279 92.2682 76.1121Z" fill="#191919"/>
<path d="M46.5677 46.6865C46.3701 49.5196 46.9636 57.1959 44.2629 59.8376C42.0193 62.0314 38.1548 60.124 36.5881 57.9922C36.2711 57.5596 35.9089 58.0956 36.2198 58.5206C38.0813 61.0582 42.295 62.8928 44.8563 60.3836C47.4176 57.8743 47.0861 50.4783 47.1397 46.799C47.1443 46.4874 46.593 46.3258 46.5677 46.6865Z" fill="#191919"/>
<path d="M32.6277 53.0641C33.0059 53.7516 33.5768 54.3135 34.2702 54.6806C34.0304 56.792 33.9579 58.9192 34.0535 61.0421C34.0979 62.147 34.7717 62.1141 34.7426 61.0421C34.6761 58.9472 34.7585 56.8503 34.9892 54.7671C35.1423 53.4194 34.7235 54.5994 33.4379 52.7349C32.4317 51.2754 32.9784 49.7034 33.8713 49.5954C34.9547 49.4676 35.5489 50.8489 36.0382 50.2586C36.9572 48.8837 37.5499 47.317 37.771 45.6781C40.4013 46.2906 49.5944 47.4124 50.1297 42.3089C50.779 36.1135 39.3224 35.9956 35.9127 40.3073C34.101 38.197 29.9156 40.511 33.1048 48.9737C31.9172 49.695 31.6936 51.6468 32.6277 53.0641Z" fill="#191919"/>
<path d="M46.0081 48.3289C45.6296 47.986 45.1405 47.7906 44.6299 47.7784C44.1053 47.8136 43.9706 48.4116 44.5946 48.5441C44.9398 48.5553 45.2742 48.6668 45.5571 48.8649C46.0426 49.2952 46.4515 48.7271 46.0081 48.3289Z" fill="#191919"/>
<path d="M42.3439 54.2701C41.7551 54.231 41.3906 54.8934 42.4611 54.9677C43.1456 55.0151 43.4963 54.8283 43.6655 54.5082C43.9205 54.0266 43.8302 52.1269 43.6655 51.2838C43.6655 51.2097 43.6361 51.1386 43.5837 51.0862C43.5313 51.0338 43.4602 51.0043 43.3861 51.0043C43.3119 51.0043 43.2408 51.0338 43.1884 51.0862C43.136 51.1386 43.1066 51.2097 43.1066 51.2838C43.1785 53.8015 43.4565 54.3436 42.3439 54.2701Z" fill="#191919"/>
<path d="M39.1706 54.8765C38.9455 57.1515 41.8506 58.1132 42.676 57.3506C42.7143 57.3058 42.7402 57.2518 42.7511 57.1939C42.7621 57.1361 42.7577 57.0763 42.7384 57.0207C42.7192 56.965 42.6857 56.9154 42.6413 56.8767C42.5969 56.838 42.5431 56.8115 42.4854 56.8C42.1802 56.8789 41.8616 56.8915 41.5511 56.837C41.2405 56.7825 40.9453 56.6621 40.6852 56.4839C40.4251 56.3057 40.2062 56.0739 40.0432 55.804C39.8803 55.5342 39.777 55.2326 39.7403 54.9194C39.7406 54.847 39.7134 54.7772 39.6643 54.724C39.6151 54.6708 39.5476 54.6382 39.4754 54.6327C39.4032 54.6273 39.3316 54.6494 39.275 54.6947C39.2185 54.7399 39.1812 54.8049 39.1706 54.8765Z" fill="#191919"/>
<path d="M45.081 52.1813C45.679 52.1353 45.6315 50.8864 45.081 50.9201C44.6698 50.9454 44.496 52.2264 45.081 52.1813Z" fill="#191919"/>
<path d="M40.9435 50.8512C40.3868 50.9546 40.5101 52.0817 40.9435 52.0595C41.3769 52.0373 41.5017 50.7471 40.9435 50.8512Z" fill="#191919"/>
<path d="M41.3201 48.0387C40.9771 47.6559 39.5368 47.9223 39.3293 48.8703C39.2772 49.1092 39.5414 49.5855 39.9962 49.0135C40.451 48.4415 40.9855 48.7317 41.1662 48.6712C41.2272 48.6498 41.2819 48.6134 41.3253 48.5655C41.3687 48.5176 41.3995 48.4596 41.4148 48.3967C41.43 48.3339 41.4294 48.2682 41.4129 48.2057C41.3963 48.1432 41.3645 48.0858 41.3201 48.0387Z" fill="#191919"/>
<path d="M35.6224 80.5288C35.8042 76.3576 36.3106 72.2068 37.137 68.1143C37.2427 67.5898 36.578 67.4427 36.4693 67.9611C35.9134 70.6181 34.6063 77.884 35.0305 80.5273C35.0422 80.5972 35.0782 80.6608 35.1323 80.7067C35.1863 80.7526 35.2549 80.7779 35.3258 80.7781C35.3967 80.7783 35.4654 80.7533 35.5197 80.7077C35.574 80.6621 35.6104 80.5987 35.6224 80.5288Z" fill="#191919"/>
<path d="M59.9398 110.701C60.1619 110 60.2989 99.9672 60.1343 98.8018C60.1149 98.7364 60.075 98.679 60.0203 98.6382C59.9657 98.5974 59.8993 98.5753 59.8311 98.5753C59.7629 98.5753 59.6965 98.5974 59.6419 98.6382C59.5872 98.679 59.5472 98.7364 59.5279 98.8018C59.3242 99.9021 59.5233 105.141 59.2032 110.701C59.181 111.082 59.8188 111.081 59.9398 110.701Z" fill="#191919"/>
<path d="M22.7223 99.0874C22.6772 101.308 23.9743 109.489 24.4552 112.455C24.596 113.323 24.5685 113.451 25.4307 113.703C34.8704 116.48 48.5621 114.728 58.7094 113.842C58.7662 113.836 58.8214 113.819 58.8718 113.792C58.9221 113.765 58.9666 113.728 59.0028 113.684C59.0389 113.64 59.066 113.589 59.0825 113.534C59.099 113.48 59.1045 113.422 59.0988 113.365C59.093 113.308 59.0761 113.253 59.0491 113.203C59.022 113.153 58.9853 113.108 58.9411 113.072C58.8968 113.036 58.8458 113.009 58.7911 112.992C58.7364 112.976 58.679 112.97 58.6221 112.976C47.9603 113.911 35.7908 115.48 25.4046 112.911C24.7714 108.776 23.8962 104.365 23.3548 99.0445C23.3464 98.6808 22.73 98.706 22.7223 99.0874Z" fill="#191919"/>
<path d="M23.4722 80.8711C22.7961 81.587 22.0227 84.5641 21.9033 85.4424C21.8994 85.5127 21.9211 85.5821 21.9643 85.6377C22.0075 85.6934 22.0694 85.7316 22.1385 85.7453C22.2076 85.759 22.2793 85.7472 22.3405 85.7123C22.4017 85.6773 22.4482 85.6214 22.4714 85.5549C23.1728 82.6261 23.9087 81.8075 23.9615 81.1184C23.9799 80.8795 23.6529 80.6796 23.4722 80.8711Z" fill="#191919"/>
<path d="M67.5441 98.8753C68.0602 98.8424 68.0909 98.2168 67.5441 98.1777C63.3513 97.8928 59.1857 97.2946 55.0821 96.3883C54.4243 93.0644 54.2782 89.6596 54.6487 86.2916C54.7146 85.7678 54.0561 85.7892 53.9902 86.2916C53.563 89.5512 53.4443 93.0605 54.4236 96.219C53.1495 95.8637 49.3753 94.9173 48.3569 94.1049C47.8986 90.9364 47.7447 87.7313 47.8974 84.5335C53.7098 84.4241 59.5016 85.2538 65.0494 86.9907C65.3619 87.0887 65.3871 86.6484 65.1099 86.4792C63.1956 85.3107 59.3127 84.607 57.0378 84.3122C56.8992 83.3849 56.2054 80.5165 55.7636 80.0403C55.733 80.013 55.6973 79.9921 55.6586 79.9787C55.6199 79.9652 55.579 79.9596 55.5381 79.962C55.4972 79.9644 55.4572 79.9749 55.4203 79.9928C55.3835 80.0107 55.3505 80.0357 55.3233 80.0663C55.0171 80.4078 55.7514 81.2149 56.2705 84.2172C53.6529 83.8731 51.0154 83.7022 48.3752 83.7057C47.3745 83.7057 47.1447 83.7057 47.0452 84.6246C46.8496 87.6069 46.9658 90.6015 47.3921 93.5597C47.5399 94.6685 47.729 94.8614 48.8217 95.4143C51.9427 96.9955 63.6451 99.128 67.5441 98.8753Z" fill="#191919"/>
<path d="M34.7855 90.5642C34.3177 96.1631 35.1339 106.737 36.0467 112.494C36.1232 112.997 36.9089 112.928 36.8399 112.418C35.901 105.178 35.4233 97.8869 35.4096 90.5871C35.4004 90.5125 35.3649 90.4436 35.3096 90.3928C35.2542 90.3419 35.1825 90.3125 35.1074 90.3097C35.0322 90.307 34.9586 90.331 34.8996 90.3777C34.8406 90.4243 34.8002 90.4904 34.7855 90.5642Z" fill="#191919"/>
<path d="M17.1412 101.298C19.5939 100.513 21.8108 99.126 23.5892 97.2634C24.1038 96.7274 24.286 96.4533 23.7623 95.7688C22.7603 94.5986 22.0432 93.2121 21.6672 91.7181C21.2913 90.2241 21.2666 88.6634 21.5953 87.1583C21.7393 86.3696 21.5953 85.9201 20.7768 86.1399C18.3678 86.7877 14.2353 88.3038 12.5438 89.8536C12.2743 90.1002 12.5913 90.5558 12.8991 90.3735C15.3354 88.8444 17.9968 87.7075 20.786 87.0044C20.0968 91.0336 21.1589 93.3131 23.2952 96.4633C22.3779 97.4487 21.3328 98.307 20.1879 99.0154C16.5829 96.0689 15.648 92.2939 15.8548 90.5313C15.8969 90.176 15.161 89.6124 15.1702 90.6392C15.1853 92.3347 15.5874 94.0044 16.3457 95.5209C17.1041 97.0374 18.1988 98.3606 19.5463 99.3898C18.8399 99.7823 18.102 100.115 17.3402 100.385C12.7873 101.993 10.4167 100.961 9.48018 96.2688C7.99087 88.8069 14.1005 77.4919 18.8747 71.9596C22.7117 67.5124 24.0226 67.3853 29.9937 65.3255C30.5319 66.8246 31.365 68.2006 32.444 69.3723C33.4646 70.4841 33.8835 69.0361 36.8675 66.7206C37.8841 67.6795 38.8097 68.7304 39.6325 69.86C39.9855 70.2988 40.3982 70.262 40.9342 70.0461C44.0716 68.5963 46.8974 66.5507 49.2544 64.023C49.8394 64.582 57.1413 67.0307 61.5955 71.4282C65.7158 75.4972 71.3124 85.476 72.0727 91.4004C72.1386 91.9111 72.7496 91.7725 72.6853 91.2572C71.9196 85.2892 66.6178 75.2821 62.1184 70.8892C58.7302 67.5775 54.0593 65.2068 49.6702 63.5207C49.7137 63.4663 49.7458 63.4036 49.7645 63.3365C49.7833 63.2694 49.7884 63.1993 49.7794 63.1302C49.7705 63.0611 49.7478 62.9945 49.7126 62.9344C49.6773 62.8743 49.6304 62.8218 49.5745 62.7803C48.8284 62.0982 48.027 61.4792 47.1786 60.9295C46.3999 60.4372 46.3715 60.4165 45.6533 61.0428C42.6793 63.6356 41.1034 64.5391 36.9349 65.6747C35.5796 64.7702 34.3785 63.6538 33.3774 62.3683C32.9463 61.8162 32.9095 61.7396 32.2556 62.0781C31.3452 62.5498 29.512 63.8936 29.7463 64.5697C23.4131 66.7719 22.2668 66.7413 18.2507 71.468C13.4596 77.1075 7.27416 88.3367 8.66087 96.1149C9.54527 101.074 12.0813 102.912 17.1412 101.298ZM46.494 61.4043C47.346 61.9432 48.1518 62.552 48.903 63.2244C46.542 65.9155 43.6032 68.0382 40.3063 69.4335C39.4703 68.2747 38.5049 67.215 37.4288 66.275C40.8611 65.5721 44.0125 63.8797 46.494 61.4066V61.4043ZM32.7878 62.6784C33.7024 64.0607 34.8911 65.2405 36.2802 66.1448C35.1563 66.9447 34.1449 67.8919 33.2732 68.9611C32.0361 67.6874 31.0721 66.1746 30.4401 64.5154C31.087 63.7493 31.8849 63.1247 32.7839 62.6807L32.7878 62.6784Z" fill="#191919"/>
<path d="M41.4586 91.1707C41.4586 91.0413 41.4111 90.8682 41.2679 90.8284C40.5612 90.6347 40.8345 91.441 38.5336 91.379C38.4562 91.3655 38.3767 91.3813 38.3103 91.4232C38.244 91.4651 38.1956 91.5303 38.1746 91.6059C38.1536 91.6815 38.1615 91.7622 38.1967 91.8324C38.2319 91.9025 38.2919 91.957 38.3651 91.9854C39.4807 92.4333 41.4479 91.8039 41.4586 91.1707Z" fill="#191919"/>
<path d="M40.0768 82.4307C39.7039 82.3702 39.6779 82.93 40.0002 83.0548C42.3257 83.9606 43.2637 83.3703 45.4429 85.1911C45.7071 85.4124 46.2148 85.2218 46.0968 84.8083C45.7324 83.5181 42.5378 82.8304 40.0768 82.4307Z" fill="#191919"/>
<path d="M41.8397 93.6018C42.2992 93.2687 42.009 92.6707 41.4454 92.9218C40.8341 93.2395 40.1261 93.3168 39.4607 93.1385C39.1054 93.0734 39.0234 93.477 39.3267 93.7365C39.8994 94.2266 41.2593 94.0229 41.8397 93.6018Z" fill="#191919"/>
<path d="M37.5375 89.5198C37.2312 89.5925 37.2863 90.1737 37.614 90.153C41.2619 89.9233 42.3446 86.0266 41.5873 85.3558C41.5366 85.3107 41.4711 85.2858 41.4032 85.2858C41.3353 85.2858 41.2698 85.3107 41.219 85.3558C40.536 85.9592 41.3124 88.6308 37.5375 89.5198Z" fill="#191919"/>
<path d="M40.8607 95.4847C43.4641 96.1524 46.3601 94.2542 46.2973 93.2013C46.2973 92.941 45.9726 92.6814 45.7214 92.8675C45.4703 93.0535 44.6165 95.0773 40.9549 94.8782C40.8822 94.8808 40.8128 94.9085 40.7584 94.9568C40.704 95.005 40.6682 95.0707 40.657 95.1425C40.6459 95.2143 40.6601 95.2878 40.6973 95.3503C40.7345 95.4127 40.7922 95.4602 40.8607 95.4847Z" fill="#191919"/>
<path d="M23.1643 86.63C24.2577 85.2157 26.8749 82.4951 28.875 83.623C29.3298 83.8796 29.6499 83.1912 29.192 82.9339C26.8474 81.6192 23.551 84.1782 22.6918 86.0795C22.3588 86.8145 22.9598 86.8942 23.1643 86.63Z" fill="#191919"/>
<path d="M30.3787 91.8774C29.5265 91.7853 28.6951 91.554 27.9177 91.1929C27.6115 91.14 26.8457 91.9517 28.8795 92.418C31.1843 92.9486 30.7815 91.9034 30.3787 91.8774Z" fill="#191919"/>
<path d="M27.4538 93.0819C26.6261 92.6791 26.6368 93.8116 28.0564 94.1738C28.4906 94.2848 29.7954 94.268 29.6729 93.7404C29.5611 93.2641 29.1223 93.8928 27.4538 93.0819Z" fill="#191919"/>
<path d="M28.3252 95.4847C28.6813 95.3009 28.5021 94.7542 28.1254 94.8721C26.8237 95.2703 25.9194 95.2313 24.0916 94.5513C24.0272 94.5321 23.9582 94.5346 23.8954 94.5584C23.8325 94.5823 23.7792 94.6262 23.7438 94.6833C23.7083 94.7405 23.6927 94.8077 23.6992 94.8746C23.7057 94.9415 23.7341 95.0044 23.78 95.0536C24.4434 95.4944 25.2055 95.7645 25.9985 95.8397C26.7915 95.9149 27.5908 95.793 28.3252 95.4847Z" fill="#191919"/>
<path d="M31.648 90.1484C29.2651 88.9133 28.7107 88.1767 28.069 86.8726C27.935 86.5993 27.3033 86.7019 27.5231 87.44C27.9649 88.9156 30.0407 90.1438 31.3363 90.8092C31.3805 90.8358 31.4297 90.8529 31.4809 90.8593C31.5321 90.8656 31.584 90.8612 31.6334 90.8462C31.6827 90.8313 31.7284 90.8061 31.7674 90.7724C31.8064 90.7387 31.8379 90.6971 31.8598 90.6504C31.8818 90.6038 31.8937 90.553 31.8947 90.5014C31.8958 90.4499 31.886 90.3987 31.8661 90.3511C31.8461 90.3036 31.8164 90.2608 31.7788 90.2254C31.7412 90.1901 31.6966 90.1631 31.648 90.1461V90.1484Z" fill="#191919"/>
<path d="M116.297 103.793C115 105.412 114.269 108.58 116.159 109.86C118.247 111.274 120.856 109.813 122.131 107.97C123.586 105.878 123.787 102.855 122.131 101.796C120.31 100.628 117.778 101.946 116.297 103.793ZM122.173 106.099C121.33 108.265 118.597 110.434 116.7 109.184C115.221 108.21 115.934 105.424 116.947 104.235C117.845 103.179 119.447 101.963 120.951 102.234C122.753 102.558 122.671 104.82 122.173 106.099Z" fill="#191919"/>
<path d="M97.5775 117.781C97.5338 117.781 84.3567 117.987 82.0427 118.08C80.2815 118.151 79.8765 118.284 79.8765 119.883C79.8223 120.249 79.8978 120.623 80.0901 120.939C80.2824 121.256 80.5792 121.495 80.9293 121.616C81.228 121.683 81.3627 121.304 81.1636 121.087C81.0038 120.951 80.8805 120.777 80.8048 120.581C80.7292 120.385 80.7035 120.173 80.7302 119.965C80.7823 119.046 80.7563 118.948 81.9822 118.908C86.9524 118.744 91.6631 118.917 96.8279 118.682C97.9282 118.632 98.236 118.73 98.3922 117.642C99.3731 110.787 100.328 101.965 101.499 94.4341C102.048 90.898 105.143 90.091 108.341 89.9884C115.304 89.7633 124.976 89.5925 132.022 89.4853C138.036 89.3934 137.274 91.8337 136.944 95.552C136.179 104.218 135.326 111.806 134.218 119.263C134.147 119.743 133.943 120.194 133.63 120.565C133.584 120.591 133.545 120.626 133.514 120.668C133.482 120.71 133.461 120.758 133.45 120.809C133.438 120.86 133.438 120.913 133.449 120.964C133.459 121.015 133.481 121.063 133.511 121.106C133.542 121.148 133.581 121.184 133.627 121.21C133.672 121.236 133.722 121.252 133.774 121.258C133.826 121.263 133.879 121.257 133.928 121.241C133.978 121.225 134.024 121.198 134.062 121.163C134.626 120.605 134.982 119.871 135.072 119.083C136.008 111.519 137.011 104.173 137.707 96.5291C138.259 90.4631 138.274 88.604 132.641 88.5779C126.016 88.5473 114.009 89.1277 108.835 89.1369C104.463 89.1438 101.408 90.1576 100.736 94.6569C99.5913 102.348 98.5002 110.255 97.5775 117.781Z" fill="#191919"/>
<path d="M59.6758 114.739C49.3387 116.095 30.7816 117.365 24.7072 114.41C24.6115 115.865 24.6245 119.337 24.5854 121.265C27.7486 121.226 57.626 121.1 59.6843 121.018C59.7103 120.034 59.8022 116.281 59.6758 114.739Z" fill="#191919"/>
<path d="M96.0003 74.181C95.9551 72.8194 95.838 71.4612 95.6496 70.112C95.5929 69.8432 95.0975 69.8003 95.1289 70.112C95.4007 72.792 96.001 79.8366 94.4796 81.7248C93.6541 82.7493 91.7406 83.0725 88.4733 82.0456C88.0407 81.9094 87.9289 82.3519 88.3263 82.548C89.5247 83.1303 90.8417 83.4269 92.174 83.4147C92.2968 84.6518 92.5688 85.8695 92.9841 87.0412C93.1005 87.3666 93.6174 87.2288 93.5201 86.888C93.2996 86.1222 93.1332 85.3418 93.0224 84.5526C97.9146 84.1192 102.837 80.3802 101.637 79.9246C100.437 79.469 97.8502 77.7906 96.0003 74.181Z" fill="#191919"/>
<path d="M84.4431 85.7548V87.2318C84.4362 87.3131 84.4619 87.3937 84.5144 87.456C84.567 87.5184 84.6422 87.5572 84.7234 87.5642C84.8046 87.5711 84.8853 87.5454 84.9476 87.4929C85.0099 87.4403 85.0488 87.3651 85.0557 87.2839C85.2426 84.8792 85.2049 82.4624 84.9431 80.0647C84.8474 79.1972 84.9906 78.9782 84.254 78.8518C83.205 78.6711 82.8213 77.5501 82.6552 76.4644C82.502 75.4551 82.8504 74.3969 83.7126 74.3495C84.5052 74.3081 84.7532 75.2943 85.1246 74.1458C85.3353 73.0941 85.3162 72.0094 85.0687 70.9658C87.2051 70.9658 95.1493 70.7154 99.7498 66.4197C100.391 65.8217 97.3492 65.9388 95.8798 63.7397C93.0122 59.4448 84.7218 56.859 81.8359 64.3163C78.1604 62.8515 76.1428 66.2627 77.2952 75.743C77.8044 79.933 74.4222 83.5426 74.3855 83.976C74.3487 84.4094 78.9147 86.1491 84.4431 85.7548Z" fill="#191919"/>
<path d="M44.3344 75.8142C43.6047 75.6414 42.8882 75.417 42.1904 75.1427C42.8925 74.194 43.6291 73.2667 44.2708 72.2782C44.3236 72.2108 44.3475 72.1253 44.3372 72.0404C44.327 71.9554 44.2834 71.878 44.2161 71.8252C44.1487 71.7724 44.0632 71.7485 43.9783 71.7588C43.8933 71.7691 43.8159 71.8127 43.7631 71.88C42.8474 72.8981 41.9899 73.9672 41.1949 75.0822C41.128 75.1755 41.1009 75.2914 41.1194 75.4047C41.1379 75.518 41.2006 75.6192 41.2937 75.6863C41.8725 75.9631 42.4763 76.1844 43.097 76.3472C42.0701 77.0884 40.5402 77.9467 39.5701 78.5141C38.9575 78.8725 39.1359 79.4261 39.7952 79.1895C41.3932 78.4226 42.9406 77.5542 44.4278 76.5899C44.8428 76.3816 44.8704 75.9406 44.3344 75.8142Z" fill="#38A1FF"/>
<path d="M31.449 79.0861C30.9421 77.6979 30.3326 76.338 29.7154 74.9949C29.5539 74.6427 29.1794 74.4314 28.9229 74.9697C28.7207 75.4084 28.4739 75.8251 28.1863 76.2132C27.5331 75.1056 26.975 73.9447 26.5178 72.743C26.5027 72.7034 26.48 72.6672 26.4509 72.6364C26.4218 72.6056 26.387 72.5809 26.3483 72.5636C26.3097 72.5462 26.268 72.5367 26.2257 72.5355C26.1834 72.5343 26.1412 72.5414 26.1016 72.5565C26.0621 72.5716 26.0259 72.5943 25.9951 72.6234C25.9643 72.6525 25.9395 72.6873 25.9222 72.726C25.9049 72.7646 25.8954 72.8063 25.8942 72.8486C25.893 72.891 25.9001 72.9331 25.9152 72.9727C26.4098 74.4446 27.0212 75.8747 27.7437 77.2492C27.7706 77.3198 27.8155 77.3821 27.8738 77.4301C27.9322 77.478 28.0021 77.5099 28.0765 77.5226C28.151 77.5353 28.2275 77.5283 28.2984 77.5024C28.3694 77.4765 28.4324 77.4325 28.4811 77.3748C28.7869 76.9676 29.0523 76.5316 29.2736 76.0731C29.8383 77.1348 30.3474 78.2251 30.7989 79.3396C30.81 79.3893 30.8316 79.436 30.8624 79.4765C30.8932 79.5171 30.9324 79.5504 30.9773 79.5744C31.0222 79.5984 31.0718 79.6123 31.1226 79.6153C31.1734 79.6184 31.2243 79.6103 31.2717 79.5919C31.3191 79.5734 31.362 79.5448 31.3974 79.5082C31.4327 79.4716 31.4598 79.4278 31.4766 79.3798C31.4934 79.3317 31.4997 79.2806 31.4949 79.2299C31.4902 79.1793 31.4745 79.1302 31.449 79.0861Z" fill="#38A1FF"/>
<path d="M18.3767 101.311C14.5956 106.477 14.9103 113.486 7.97676 118.869C7.2011 119.471 7.11304 120.7 8.68735 119.467C14.8513 114.636 15.5106 108.128 18.9785 101.702C19.1899 101.308 18.6064 100.998 18.3767 101.311Z" fill="#38A1FF"/>
<path d="M63.7441 113.967C52.2814 109.036 51.5563 99.0759 45.9796 95.0796C45.6457 94.8407 45.3096 95.3415 45.5462 95.6256C51.9537 103.339 52.6826 110.441 63.4639 114.882C64.042 115.119 64.2955 114.205 63.7441 113.967Z" fill="#38A1FF"/>
<path d="M130.869 71.0584C130.517 76.1044 130.532 82.2592 126.424 86.4546C125.995 86.8918 126.627 87.6108 127.052 87.169C131.311 82.7363 131.753 77.1596 131.684 71.1104C131.688 71.0569 131.68 71.0033 131.663 70.9526C131.646 70.9018 131.619 70.855 131.583 70.8148C131.548 70.7745 131.505 70.7416 131.457 70.718C131.409 70.6944 131.356 70.6805 131.303 70.677C131.249 70.6736 131.196 70.6808 131.145 70.6981C131.094 70.7154 131.047 70.7425 131.007 70.7779C130.967 70.8134 130.934 70.8563 130.91 70.9045C130.887 70.9526 130.873 71.0049 130.869 71.0584Z" fill="#38A1FF"/>
<path d="M129.994 34.6448C129.887 33.3883 129.884 30.9372 129.643 29.8974C129.566 29.5727 129.049 29.49 128.958 29.8545C128.801 31.5102 128.841 33.1788 129.08 34.8248C129.153 35.3945 130.049 35.2903 129.994 34.6448Z" fill="#38A1FF"/>
<path d="M110.875 50.9377C111.517 50.9852 114.203 50.4645 115.182 50.3696C115.681 50.3221 115.616 49.466 115.096 49.5035C114.321 49.5579 111.439 49.8496 110.723 50.2792C110.664 50.3208 110.618 50.3793 110.592 50.447C110.566 50.5148 110.561 50.5888 110.577 50.6596C110.593 50.7303 110.63 50.7946 110.684 50.8441C110.737 50.8937 110.803 50.9263 110.875 50.9377Z" fill="#38A1FF"/>
<path d="M115.764 37.4612C116.76 38.3257 117.274 38.72 117.931 39.3203C118.399 39.7484 119.086 39.2958 118.685 38.805C117.861 37.9275 116.95 37.1374 115.964 36.4474C115.163 35.733 114.709 36.5484 115.764 37.4612Z" fill="#38A1FF"/>
<path d="M141.81 33.3446C141.013 33.9128 139.743 36.0545 139.276 36.8723C139.24 36.9253 139.216 36.9851 139.205 37.0478C139.194 37.1106 139.196 37.175 139.21 37.237C139.225 37.2991 139.252 37.3574 139.29 37.4085C139.329 37.4595 139.377 37.5022 139.432 37.5337C139.488 37.5653 139.549 37.5852 139.612 37.5921C139.676 37.599 139.74 37.5927 139.801 37.5738C139.862 37.5548 139.918 37.5236 139.966 37.4819C140.014 37.4403 140.054 37.3891 140.081 37.3317C140.799 36.1188 141.59 34.9465 142.326 33.7443C142.465 33.5154 142.049 33.1716 141.81 33.3446Z" fill="#38A1FF"/>
<path d="M120.019 49.139C120.326 53.3252 123.349 56.9041 126.618 59.3047C127.051 59.6224 127.384 59.088 127.013 58.7419C124.542 56.4156 121.972 53.9745 121.185 50.5089C118.408 38.2858 140.061 36.5515 140.186 47.7807C140.231 51.8841 137.582 55.2701 135.155 58.3322C134.778 58.8085 135.325 59.2044 135.727 58.7656C138.234 56.0259 140.759 52.6996 141.087 48.7991C142.198 35.7804 119.086 36.4864 120.019 49.139Z" fill="#38A1FF"/>
<path d="M148.848 45.4514C147.34 45.6267 145.815 45.8274 144.33 46.0977C143.897 46.1742 144.074 46.8473 144.468 46.8167C145.985 46.6998 147.499 46.5293 149.01 46.3052C149.523 46.2294 149.328 45.3963 148.848 45.4514Z" fill="#38A1FF"/>
<path d="M134.166 50.2141C137.709 47.1 133.529 44.0953 132.026 47.6919C131.657 48.5776 131.367 49.4941 131.16 50.4308C130.34 50.5763 129.506 50.6185 128.676 50.5564C128.356 49.3649 127.918 47.417 126.685 46.881C124.164 45.7845 122.842 50.5817 127.929 51.4132C128.502 53.8251 128.949 56.2651 129.268 58.7235C129.278 58.7998 129.316 58.8699 129.373 58.9206C129.431 58.9714 129.506 58.9994 129.583 58.9994C129.66 58.9994 129.734 58.9714 129.792 58.9206C129.849 58.8699 129.887 58.7998 129.897 58.7235C129.855 56.2943 129.528 53.8784 128.921 51.5258C129.606 51.5533 130.292 51.5213 130.971 51.4301C130.645 53.8166 130.777 56.2435 131.361 58.5803C131.49 59.1737 132.146 59.0129 132.037 58.4409C131.584 56.0641 131.573 53.6239 132.006 51.2432C132.805 51.0982 133.551 50.743 134.166 50.2141ZM134.193 47.1199C135.401 47.9147 133.513 49.8764 132.234 50.1827C132.941 47.345 133.746 46.8258 134.193 47.1199ZM125.526 49.0181C125.028 48.0471 125.89 47.1849 126.683 48.0043C127.178 48.7209 127.509 49.5372 127.654 50.3956C127.223 50.3219 126.812 50.1618 126.445 49.9249C126.078 49.6881 125.762 49.3793 125.518 49.0173L125.526 49.0181Z" fill="#38A1FF"/>
<path d="M147.89 57.6882C146.593 56.9414 145.226 56.3233 143.809 55.8428C143.444 55.7433 143.215 56.3022 143.518 56.5098C144.738 57.3344 146.202 57.7533 147.474 58.5006C148.279 58.9777 148.882 58.3643 147.89 57.6882Z" fill="#38A1FF"/>
<path d="M119.729 59.2312C119.166 59.3376 117.254 61.6141 116.973 62.1409C116.407 63.2129 117.208 63.3247 117.385 63.0077C118.187 61.5674 119.611 60.5842 120.028 59.9739C120.224 59.6899 120.18 59.1462 119.729 59.2312Z" fill="#38A1FF"/>
<path d="M126.852 60.1799C126.636 66.0124 127.888 69.5921 131.068 69.5982C135.12 69.6043 135.558 64.7413 135.284 59.8836C132.489 60.2383 129.666 60.3375 126.852 60.1799ZM133.33 65.4925C132.231 66.2286 130.97 66.6881 129.655 66.8317C129.169 66.8401 129.076 66.3018 129.538 66.1862C130.728 65.9015 131.857 65.4037 132.87 64.7168C132.972 64.6733 133.085 64.6682 133.19 64.7025C133.295 64.7367 133.384 64.8079 133.44 64.9028C133.497 64.9977 133.517 65.1099 133.496 65.2184C133.476 65.3268 133.417 65.4243 133.33 65.4925ZM133.461 62.6027C132.513 63.3577 129.305 64.1624 128.841 64.1341C128.499 64.1341 128.29 63.7642 128.629 63.5407C129.23 63.144 131.156 62.8109 132.962 61.8561C133.572 61.5345 134.044 62.1371 133.464 62.6027H133.461Z" fill="#38A1FF"/>
<path d="M33.6148 81.7639C30.3988 81.917 29.1338 83.2761 29.3206 85.7456C29.5075 88.215 30.9409 88.7793 33.6232 88.8444C33.0147 87.764 32.6943 86.5452 32.6929 85.3052C32.6914 84.0653 33.0089 82.8457 33.6148 81.7639Z" fill="#38A1FF"/>
<path d="M39.3054 85.4684C39.3529 82.6827 36.702 81.881 34.682 81.7639C34.0095 82.8205 33.6523 84.047 33.6523 85.2995C33.6523 86.552 34.0095 87.7786 34.682 88.8352C36.8482 88.7441 38.6592 88.2809 39.1492 86.4914C39.6347 86.6989 39.8537 87.1805 40.2281 86.8505C40.8024 86.3413 39.7036 85.6767 39.3054 85.4684Z" fill="#38A1FF"/>
<path d="M91.3333 94.3775C90.2675 92.8568 86.1594 89.9448 82.7497 87.5488C79.8767 88.4149 74.5428 90.9287 71.6652 93.8622C68.7876 96.7956 64.054 110.484 65.2692 117.261C66.1115 121.958 69.7371 121.343 79.1355 121.256C78.9272 120.602 78.7243 118.262 79.9112 117.564C81.098 116.867 92.72 116.952 96.8105 116.988C96.9797 116.065 97.309 113.522 97.6773 110.449C90.5623 110.016 81.5406 111.157 74.4761 111.728C74.0427 111.762 74.0129 111.359 74.4195 111.294C75.3803 111.092 76.349 110.928 77.3231 110.804C77.4402 109.072 78.0451 103.377 78.6922 101.705C78.8285 101.355 79.2083 101.483 79.147 101.826C78.6441 104.768 78.3142 107.737 78.1592 110.718C84.6703 109.95 91.2241 109.603 97.7799 109.678C99.966 92.1477 99.6574 90.519 103.651 89.065C102.503 88.4845 96.9996 86.8122 94.3311 86.8122C94.1244 87.8084 92.5638 92.735 91.3333 94.3775Z" fill="#38A1FF"/>
<path d="M110.244 88.287C112.566 88.205 116.808 88.0963 118.307 88.0144C118.412 87.4117 118.589 86.4829 118.936 85.0717C118.069 84.4592 113.415 82.0732 112.045 81.4729C111.938 81.9369 110.682 86.5649 110.244 88.287Z" fill="#38A1FF"/>
</svg>
