<svg width="154" height="154" viewBox="0 0 154 154" fill="none" xmlns="http://www.w3.org/2000/svg">
<path d="M77.0536 89.7838C75.7465 89.0427 74.5322 88.1487 73.4364 87.1207C73.3648 87.0532 73.2753 87.0079 73.1786 86.9901C73.0819 86.9723 72.9821 86.9828 72.8912 87.0204C71.7051 87.5166 70.2066 87.8389 69.0986 88.5656C68.9942 88.6317 68.9157 88.7316 68.8761 88.8487C68.8365 88.9658 68.8383 89.0929 68.8811 89.2088C69.3828 90.7218 69.7688 92.2707 70.0358 93.8421C69.3352 96.6592 62.5004 118.192 60.5992 131.351C59.9866 135.516 63.4782 139.048 65.002 142.797C65.046 142.902 65.115 142.995 65.2032 143.067C65.2914 143.14 65.3959 143.189 65.5077 143.212C65.6195 143.235 65.7352 143.23 65.8446 143.197C65.954 143.165 66.0538 143.106 66.1353 143.026C69.0755 139.976 71.7921 136.718 74.2641 133.277C74.3509 133.154 74.3967 133.007 74.395 132.857C74.2473 120.995 74.7166 106.325 73.3491 94.1783C73.4256 94.1109 76.5827 91.2915 77.294 90.6062C77.3709 90.5516 77.4288 90.4744 77.4598 90.3854C77.4907 90.2964 77.4931 90.1999 77.4667 90.1094C77.4402 90.0189 77.3862 89.9389 77.3122 89.8806C77.2381 89.8222 77.1478 89.7884 77.0536 89.7838Z" fill="#38A1FF"/>
<path d="M38.1079 18.3572C39.2388 14.1994 43.4219 11.9061 46.6731 13.5738C47.1745 13.8045 47.6034 14.1675 47.9137 14.6238C48.224 15.0801 48.404 15.6124 48.4343 16.1634C48.4367 16.8884 48.2867 17.6057 47.9938 18.2689C47.7009 18.932 47.2719 19.5262 46.7344 20.0127C43.4158 23.5403 39.1278 24.7992 38.5214 30.7181C38.4097 33.0937 38.6298 35.4732 39.1753 37.788C39.1904 37.9225 39.2318 38.0528 39.2972 38.1713C39.3626 38.2898 39.4508 38.3943 39.5566 38.4788C39.6624 38.5633 39.7838 38.6261 39.9138 38.6636C40.0439 38.7012 40.1801 38.7127 40.3147 38.6976C40.4492 38.6826 40.5795 38.6411 40.698 38.5757C40.8165 38.5103 40.921 38.4222 41.0055 38.3164C41.0899 38.2106 41.1527 38.0892 41.1903 37.9591C41.2278 37.829 41.2394 37.6928 41.2243 37.5583C41.098 34.6524 41.0222 29.9899 42.8369 27.7227C44.5981 25.5205 48.0131 23.8099 50.0729 20.966C52.648 17.41 52.0845 12.7545 48.0897 10.7552C46.7628 10.1025 45.2837 9.82188 43.8099 9.94323C42.3361 10.0646 40.9228 10.5834 39.7205 11.4443C38.7111 12.2356 37.8806 13.2313 37.2833 14.3662C36.686 15.5011 36.3355 16.7495 36.2548 18.0295C36.2118 18.2752 36.2681 18.528 36.4114 18.7322C36.5547 18.9364 36.7733 19.0753 37.019 19.1183C37.2648 19.1614 37.5175 19.1051 37.7217 18.9618C37.9259 18.8184 38.0648 18.5999 38.1079 18.3542V18.3572Z" fill="#38A1FF"/>
<path d="M16.922 50.8312C16.4779 47.9276 21.0714 44.2307 23.1113 47.2323C24.1067 48.6941 23.4704 49.4981 22.6519 50.9637C21.6304 52.796 21.2621 54.28 22.0393 56.3053C22.5526 57.4304 23.1409 58.5196 23.8004 59.5657C23.8808 59.7462 24.0295 59.8875 24.214 59.9583C24.3984 60.0292 24.6035 60.0239 24.784 59.9436C24.9645 59.8633 25.1058 59.7145 25.1766 59.5301C25.2475 59.3456 25.2422 59.1406 25.1619 58.96C24.8349 57.9876 24.3617 56.8091 24.0501 55.6537C23.501 53.6192 24.073 53.1015 25.0968 51.2623C26.1611 49.348 26.2308 47.74 24.9873 45.9337C21.4045 40.7222 13.5736 46.1527 15.6157 51.1926C15.6668 51.3622 15.7822 51.5051 15.9372 51.5907C16.0922 51.6764 16.2745 51.698 16.4453 51.651C16.6161 51.604 16.7617 51.4921 16.851 51.3392C16.9404 51.1863 16.9664 51.0046 16.9236 50.8327L16.922 50.8312Z" fill="#38A1FF"/>
<path d="M80.4695 21.2761C80.3225 22.2348 80.3929 22.2716 79.7505 25.6484C79.7443 25.7463 79.7184 25.842 79.6746 25.9297C79.6307 26.0175 79.5697 26.0956 79.4951 26.1593C79.4205 26.2231 79.3339 26.2712 79.2404 26.3009C79.1469 26.3306 79.0483 26.3412 78.9506 26.3322C78.8529 26.3231 78.758 26.2945 78.6716 26.2481C78.5851 26.2017 78.5088 26.1385 78.4473 26.0621C78.3857 25.9857 78.3401 25.8977 78.3131 25.8034C78.2861 25.709 78.2784 25.6102 78.2903 25.5128C78.211 23.7726 78.2328 22.0292 78.3554 20.2914C78.379 20.058 78.4763 19.8382 78.633 19.6637C78.7898 19.4892 78.998 19.369 79.2275 19.3205C82.0607 18.7079 83.8731 15.1229 80.4258 13.7721C79.1586 13.276 78.1532 13.6244 77.6364 14.4284C77.3199 14.9576 77.1297 15.5528 77.0805 16.1675C77.0314 16.7822 77.1246 17.4 77.353 17.9728C77.4046 18.0488 77.44 18.1345 77.4573 18.2247C77.4745 18.3148 77.4731 18.4076 77.4532 18.4972C77.4333 18.5868 77.3953 18.6714 77.3416 18.7458C77.2878 18.8202 77.2194 18.8828 77.1406 18.9299C77.0617 18.9769 76.9741 19.0073 76.8831 19.0192C76.7921 19.0312 76.6996 19.0244 76.6113 18.9993C76.523 18.9742 76.4408 18.9314 76.3696 18.8734C76.2985 18.8154 76.2399 18.7434 76.1976 18.662C73.5176 15.0792 76.2895 9.7575 81.2513 11.645C86.6687 13.7063 84.9382 19.7462 80.4695 21.2761Z" fill="#38A1FF"/>
<path d="M115.412 39.3302C114.641 42.455 114.526 42.5462 113.385 46.119C113.358 46.252 113.304 46.3782 113.227 46.4904C113.15 46.6025 113.052 46.6982 112.938 46.772C112.824 46.8459 112.696 46.8964 112.563 46.9205C112.429 46.9447 112.292 46.9421 112.159 46.9129C112.026 46.8836 111.901 46.8284 111.79 46.7502C111.678 46.6721 111.584 46.5727 111.511 46.4577C111.439 46.3428 111.39 46.2146 111.367 46.0806C111.345 45.9466 111.349 45.8095 111.38 45.6772C111.67 42.969 112.099 40.2776 112.666 37.6134C112.73 37.3009 112.891 37.0164 113.125 36.8002C113.36 36.584 113.657 36.4469 113.973 36.4082C114.834 36.3109 115.686 36.1525 116.523 35.9342C120.286 34.8806 121.693 30.9777 119.203 27.6836C117.042 24.8222 113.856 24.7877 111.401 27.104C111.063 27.4095 110.763 27.7548 110.508 28.1324C110.225 28.5449 109.977 28.9803 109.767 29.4341C109.69 29.6689 109.524 29.8643 109.304 29.9783C109.085 30.0923 108.83 30.116 108.593 30.0443C108.357 29.9725 108.158 29.811 108.039 29.5944C107.92 29.3777 107.891 29.1231 107.957 28.885C108.189 27.6031 108.719 26.3936 109.505 25.3543C112.839 21.012 118.408 21.4346 121.732 25.7686C124.522 29.408 124.823 35.0598 119.465 38.1081C118.206 38.774 116.83 39.189 115.412 39.3302Z" fill="#38A1FF"/>
<path d="M126.898 49.8809C128.147 48.7663 129.737 48.1091 131.409 48.0172C134.495 47.8479 136.421 50.0011 135.354 53.538C134.169 57.4714 129.911 55.5097 127.16 59.8122C126.481 60.8758 126.048 62.1094 125.461 63.2013C125.366 63.3723 125.34 63.573 125.389 63.7624C125.437 63.9517 125.556 64.1153 125.722 64.2197C125.891 64.3206 126.094 64.3509 126.285 64.3039C126.477 64.2569 126.643 64.1365 126.746 63.9685C127.422 63.0099 128.054 61.9486 128.814 61.0067C130.047 59.4837 131.023 59.1912 132.955 58.5289C135.285 57.7295 136.758 56.7861 137.531 54.1919C140.041 45.769 130.279 43.0316 125.892 48.9743C125.776 49.1097 125.716 49.2842 125.724 49.4623C125.732 49.6404 125.808 49.8087 125.936 49.933C126.002 49.9936 126.08 50.0404 126.164 50.0707C126.249 50.1009 126.338 50.114 126.428 50.1092C126.517 50.1043 126.605 50.0816 126.686 50.0424C126.767 50.0032 126.839 49.9483 126.898 49.8809Z" fill="#38A1FF"/>
<path d="M71.4465 77.0247C70.5219 76.3804 69.7431 75.549 69.1606 74.5843C68.578 73.6196 68.2048 72.5433 68.0651 71.425C67.536 68.1753 68.3178 64.6699 68.9395 61.6331C69.222 60.2191 69.6218 58.8312 70.1348 57.4837C70.169 57.3838 70.2404 57.3009 70.3341 57.2522C70.4279 57.2036 70.5367 57.193 70.6381 57.2226C70.7395 57.2521 70.8256 57.3197 70.8784 57.4111C70.9313 57.5025 70.9469 57.6108 70.922 57.7134C70.6976 58.6468 70.4725 60.6231 70.2221 61.8842C69.1409 67.3131 68.0276 72.9052 72.35 76.1143C72.8722 76.4466 72.6203 77.3953 72.5246 79.632C72.5293 79.6904 72.5223 79.7491 72.5039 79.8047C72.4855 79.8603 72.4561 79.9117 72.4175 79.9558C72.3789 79.9998 72.3319 80.0357 72.2792 80.0613C72.2264 80.0868 72.1691 80.1016 72.1106 80.1046C72.0521 80.1076 71.9936 80.0989 71.9386 80.0789C71.8835 80.0589 71.833 80.028 71.7901 79.9882C71.7471 79.9483 71.7126 79.9003 71.6886 79.8468C71.6646 79.7934 71.6515 79.7357 71.6502 79.6771C71.5629 79.0293 71.5338 77.6671 71.4465 77.0247ZM71.592 77.1174C71.6211 77.1357 71.6211 77.1488 71.6502 77.1572L71.592 77.1174ZM71.4465 77.0117V76.9742C71.4465 76.916 71.4465 76.8317 71.4174 76.8394C71.3002 76.8631 71.3592 76.9397 71.4465 77.0117Z" fill="#191919"/>
<path d="M73.079 69.0973C73.0518 69.4772 73.1219 69.8577 73.2826 70.203C73.3779 70.3876 73.4954 70.5599 73.6326 70.716C75.1173 72.5583 78.4726 71.3171 79.171 69.0368C79.2246 68.9326 79.2364 68.8119 79.2039 68.6993C79.1715 68.5867 79.0972 68.4908 78.9964 68.4311C78.9441 68.4028 78.8866 68.3852 78.8275 68.3792C78.7683 68.3733 78.7085 68.379 78.6515 68.3963C78.5946 68.4135 78.5416 68.4418 78.4957 68.4796C78.4497 68.5174 78.4117 68.5639 78.3838 68.6164C78.1672 68.8546 77.9227 69.0659 77.6556 69.2458C77.1426 69.7457 76.4935 70.0832 75.7896 70.216C75.5091 70.2478 75.2253 70.2023 74.9688 70.0843C74.7124 69.9663 74.4931 69.7804 74.3347 69.5467C74.2342 69.4477 74.1462 69.3366 74.0729 69.216C74.0147 69.1233 73.9565 69.0467 73.8975 68.9464C73.8885 68.8943 73.8692 68.8446 73.8408 68.8C73.8124 68.7554 73.7755 68.7168 73.7321 68.6866C73.6888 68.6563 73.6399 68.635 73.5882 68.6237C73.5366 68.6124 73.4832 68.6115 73.4312 68.621C73.3224 68.6396 73.225 68.6996 73.1594 68.7884C73.0937 68.8771 73.0649 68.9878 73.079 69.0973Z" fill="#191919"/>
<path d="M75.3524 60.4799C75.2292 61.0061 75.1417 61.54 75.0905 62.078C74.9362 63.0038 74.8291 63.9369 74.7697 64.8736C74.7697 65.6171 74.6931 66.5145 75.2069 66.5903C75.6663 66.6524 75.9489 65.6615 76.0231 65.2335C76.2115 64.5313 76.4826 61.9578 76.6058 61.0221C76.674 60.5113 76.7927 59.2311 76.2559 59.1338C75.7995 59.0366 75.5492 59.8291 75.3524 60.4799Z" fill="#191919"/>
<path d="M72.6615 57.6889C72.8495 57.4108 73.1123 57.1916 73.4196 57.0564C74.1485 56.8336 74.4441 58.0518 75.0521 57.7999C75.5498 57.6024 75.2052 56.6513 75.0521 56.4216C74.2236 54.9668 72.0229 55.7202 71.5543 57.0534C71.4379 57.3681 71.2832 58.244 71.758 58.3627C72.0436 58.447 72.6087 57.7655 72.6615 57.6889Z" fill="#191919"/>
<path d="M79.9496 57.4109C80.2545 57.1769 80.6169 57.0298 80.9986 56.9852C81.1663 56.9781 81.3335 57.0068 81.4893 57.0692C81.6451 57.1317 81.7858 57.2265 81.9022 57.3474C82.5622 57.8979 82.5729 58.0978 82.9229 57.9661C83.4259 57.7777 83.1227 56.8764 82.9229 56.5357C82.7089 56.2143 82.411 55.9577 82.0616 55.7935C81.7121 55.6294 81.3244 55.564 80.9404 55.6046C80.2281 55.6362 79.5573 55.949 79.0752 56.4744C78.8906 56.6919 78.4519 57.5579 78.8454 57.829C79.1219 57.9921 79.8707 57.4706 79.9496 57.4109Z" fill="#191919"/>
<path d="M3.86906 79.6733C4.72666 82.8978 8.57055 84.639 11.7559 85.5693C14.3593 86.335 16.3211 85.6084 16.5945 88.1046C16.5975 88.1633 16.612 88.2208 16.6373 88.2738C16.6625 88.3269 16.698 88.3745 16.7416 88.4138C16.7852 88.4532 16.8361 88.4835 16.8915 88.5032C16.9469 88.5229 17.0056 88.5315 17.0642 88.5284C17.1229 88.5254 17.1804 88.5109 17.2335 88.4856C17.2865 88.4604 17.3341 88.4249 17.3734 88.3813C17.4128 88.3377 17.4432 88.2868 17.4628 88.2314C17.4825 88.176 17.4911 88.1173 17.4881 88.0587C17.5341 87.6289 17.4921 87.1943 17.3647 86.7814C17.2372 86.3684 17.027 85.9857 16.7468 85.6566C15.8104 84.5984 13.8287 84.7485 12.1526 84.2531C9.29644 83.4054 6.12103 81.913 4.6118 79.3448C4.59042 79.2947 4.55927 79.2493 4.52016 79.2113C4.48105 79.1734 4.43476 79.1436 4.38401 79.1237C4.33326 79.1038 4.27905 79.0942 4.22456 79.0955C4.17006 79.0968 4.11637 79.1089 4.06662 79.1312C4.01692 79.1525 3.97212 79.1837 3.93497 79.223C3.89781 79.2623 3.8691 79.3087 3.85059 79.3595C3.83208 79.4103 3.82417 79.4644 3.82734 79.5183C3.83052 79.5723 3.84472 79.6251 3.86906 79.6733Z" fill="#191919"/>
<path d="M8.11618 78.782C9.29111 80.2507 10.8652 81.3488 12.6492 81.9444C13.1668 82.0799 14.2756 82.292 14.3713 81.766C14.5612 81.0692 12.8644 80.8831 10.9493 79.56C10.2837 79.0844 9.66361 78.5482 9.09706 77.9581C9.02968 77.8815 8.11541 76.8777 7.72413 77.1158C7.29993 77.4137 7.95538 78.5285 8.11618 78.782Z" fill="#191919"/>
<path d="M13.0437 76.6572C13.9967 77.8446 15.2132 78.7939 16.5966 79.4298C16.9794 79.5661 17.9879 79.8425 18.1655 79.3709C18.2559 79.0531 18.1655 78.9229 17.1847 78.2698C16.6265 77.8976 16.03 77.5768 15.507 77.1587C14.3056 76.2046 13.2098 74.7926 12.6953 75.1885C12.3009 75.4887 12.9189 76.4948 13.0437 76.6572Z" fill="#191919"/>
<path d="M18.6672 76.7291C19.6901 77.5509 20.8687 78.1572 22.132 78.5117C22.4146 78.5561 23.4399 78.6587 23.5272 78.1717C23.6903 77.5683 22.3373 77.2919 21.021 76.6074C20.315 76.2398 18.4712 74.8952 18.0347 75.5063C17.7904 75.8532 18.5248 76.6043 18.6672 76.7291Z" fill="#191919"/>
<path d="M24.5955 74.386C24.9362 75.0476 25.8758 76.2299 25.7724 76.5507C25.5427 77.566 23.4393 78.8333 23.048 80.3969C22.6736 81.8671 23.7846 82.959 25.1836 83.5463C25.2853 83.6066 25.4066 83.6244 25.5214 83.5957C25.6361 83.567 25.7348 83.4942 25.7961 83.3931C25.8537 83.2908 25.87 83.1703 25.8415 83.0564C25.813 82.9424 25.742 82.8437 25.643 82.7806C25.094 82.3334 24.1835 81.4145 24.3574 80.73C24.633 79.6832 26.7709 78.3899 27.1032 76.8593C27.4241 75.3784 25.5649 74.2222 25.2724 73.8998C25.2079 73.81 25.1104 73.7496 25.0014 73.7317C24.8923 73.7138 24.7806 73.74 24.6908 73.8045C24.6011 73.8689 24.5406 73.9664 24.5227 74.0755C24.5048 74.1846 24.531 74.2963 24.5955 74.386Z" fill="#191919"/>
<path d="M28.3654 78.8563C28.932 80.9368 28.8899 80.5409 29.063 81.1734C29.6403 83.2875 29.4014 84.6191 29.1059 86.6543C29.0377 87.1245 29.0193 87.6023 28.9321 88.1092C28.8982 88.2219 28.9106 88.3434 28.9664 88.447C29.0222 88.5507 29.1168 88.6279 29.2295 88.6617C29.3422 88.6955 29.4638 88.6831 29.5674 88.6273C29.671 88.5716 29.7482 88.4769 29.782 88.3642C30.0039 87.9032 30.2002 87.4303 30.3701 86.9476C31.1993 84.3365 30.965 80.7453 29.0844 78.4673C29.0298 78.3717 28.9401 78.3011 28.8343 78.2705C28.7286 78.2399 28.615 78.2517 28.5178 78.3035C28.4248 78.3571 28.3567 78.4451 28.3281 78.5486C28.2996 78.6521 28.313 78.7626 28.3654 78.8563Z" fill="#191919"/>
<path d="M121.601 84.688C124.062 79.8885 130.686 81.6251 135.201 80.194C135.314 80.1649 135.41 80.0933 135.471 79.9942C135.532 79.8951 135.551 79.7763 135.526 79.663C135.5 79.5496 135.432 79.4507 135.335 79.387C135.237 79.3233 135.119 79.3 135.005 79.3218C131.522 79.7866 121.997 78.5875 120.84 84.4177C120.822 84.4679 120.814 84.5212 120.817 84.5745C120.82 84.6277 120.833 84.6799 120.856 84.728C120.879 84.7761 120.911 84.8192 120.951 84.8548C120.991 84.8904 121.037 84.9179 121.087 84.9357C121.138 84.9534 121.191 84.9611 121.244 84.9582C121.297 84.9554 121.349 84.9421 121.398 84.9191C121.446 84.8961 121.489 84.8639 121.524 84.8242C121.56 84.7845 121.588 84.7382 121.605 84.688H121.601Z" fill="#191919"/>
<path d="M131.408 82.786C131.12 83.2011 130.749 83.552 130.319 83.8166C129.348 84.4116 127.639 84.5058 127.704 85.2026C127.747 85.6926 128.842 85.6911 129.077 85.6781C130.555 85.5885 132.233 84.3503 132.523 83.4223C132.699 83.021 132.853 82.1267 132.414 81.9858C132.069 81.8763 131.464 82.7094 131.408 82.786Z" fill="#191919"/>
<path d="M136.705 83.2875C137.723 83.3006 138.732 83.1033 139.669 82.708C140.607 82.3127 141.452 81.7279 142.153 80.9904C142.502 80.5677 143.192 79.5868 142.742 79.269C142.402 79.0286 142.221 79.2415 141.238 80.073C139.982 81.2258 138.364 81.906 136.662 81.9973C135.325 82.181 135.124 82.2017 135.092 82.5333C135.04 83.0746 136.308 83.2592 136.705 83.2875Z" fill="#191919"/>
<path d="M141.217 84.7209C142.362 84.4391 143.414 83.8629 144.268 83.0494C144.373 82.9246 145.017 82.0991 144.682 81.7637C144.415 81.5003 144.069 81.6872 143.505 82.0386C143.339 82.1373 143.179 82.245 143.026 82.361C142.339 82.8099 141.609 83.1888 140.846 83.4919C140.77 83.5249 139.869 83.9659 139.953 84.3855C140.075 84.796 140.952 84.7569 141.217 84.7209Z" fill="#191919"/>
<path d="M142.459 86.9966C143.985 86.5405 145.352 85.665 146.404 84.4698C146.675 84.1168 147.257 83.2821 146.863 82.9659C146.598 82.753 146.349 82.8457 145.49 83.5631C144.509 84.5192 143.345 85.2678 142.068 85.7646C141.104 86.2309 140.903 86.3258 140.936 86.6582C141.03 87.1559 142.11 87.0617 142.459 86.9966Z" fill="#191919"/>
<path d="M134.656 91.5495C135.202 91.3895 137.74 90.9484 137.816 90.9369C140.533 90.4775 143.248 90.2478 145.532 89.1888C147.108 88.5146 148.413 87.3313 149.237 85.8281C149.305 85.7298 149.331 85.6086 149.309 85.4911C149.288 85.3737 149.22 85.2696 149.122 85.2018C149.024 85.1339 148.903 85.1079 148.785 85.1295C148.668 85.151 148.564 85.2183 148.496 85.3166C145.433 88.94 141.242 88.8435 137.577 89.623C136.446 89.8382 135.358 90.2324 134.351 90.7907C134.3 90.8094 134.253 90.8383 134.213 90.8757C134.173 90.913 134.14 90.958 134.118 91.008C134.096 91.058 134.084 91.1119 134.083 91.1667C134.082 91.2214 134.091 91.2758 134.112 91.3267C134.155 91.4275 134.237 91.5073 134.339 91.5489C134.44 91.5905 134.554 91.5908 134.656 91.5495Z" fill="#191919"/>
<path d="M72.7681 62.8016C72.9009 62.8284 73.0407 62.8138 73.1795 62.7585C73.3183 62.7033 73.4535 62.6086 73.5772 62.4797C73.7009 62.3508 73.8109 62.1904 73.9007 62.0075C73.9905 61.8246 74.0585 61.6229 74.1007 61.4139C74.143 61.2048 74.1586 60.9925 74.1468 60.7891C74.1351 60.5857 74.096 60.3952 74.032 60.2284C73.968 60.0616 73.8802 59.9218 73.7737 59.817C73.6672 59.7123 73.5441 59.6445 73.4113 59.6177C73.2786 59.5909 73.1388 59.6055 73 59.6607C72.8611 59.716 72.726 59.8107 72.6022 59.9396C72.4785 60.0684 72.3686 60.2289 72.2788 60.4118C72.1889 60.5946 72.121 60.7964 72.0787 61.0054C72.0365 61.2145 72.0208 61.4268 72.0326 61.6302C72.0444 61.8336 72.0834 62.0241 72.1474 62.1909C72.2115 62.3577 72.2992 62.4975 72.4057 62.6022C72.5122 62.707 72.6354 62.7747 72.7681 62.8016Z" fill="#191919"/>
<path d="M80.4565 62.7181C80.741 62.7742 81.0469 62.6611 81.3067 62.4036C81.5665 62.1461 81.759 61.7653 81.8418 61.345C81.9247 60.9248 81.8911 60.4994 81.7485 60.1626C81.6059 59.8257 81.3659 59.605 81.0813 59.5488C80.9404 59.5211 80.7928 59.5345 80.6469 59.5885C80.501 59.6425 80.3597 59.7359 80.2311 59.8634C80.1024 59.9909 79.989 60.15 79.8972 60.3316C79.8053 60.5133 79.7369 60.7138 79.6959 60.9219C79.6549 61.13 79.642 61.3416 79.658 61.5445C79.6741 61.7474 79.7187 61.9376 79.7893 62.1044C79.8599 62.2712 79.9552 62.4113 80.0696 62.5166C80.1841 62.6219 80.3156 62.6904 80.4565 62.7181Z" fill="#191919"/>
<path d="M90.4523 61.9034C91.2724 59.7303 91.2425 57.875 89.61 56.2004C89.5388 50.5984 84.106 47.6244 80.0485 44.2368C78.1342 42.5982 76.3417 39.9779 74.0438 38.9036C72.814 38.3278 71.3577 38.1494 70.4288 39.1471C69.9735 39.6919 69.7074 40.3699 69.6708 41.079C69.0378 40.4285 68.2431 39.9581 67.3683 39.7161C64.2962 38.9373 63.0504 41.2804 63.7243 44.4834C63.6581 44.4473 63.5901 44.4146 63.5206 44.3854C62.042 43.7782 61.2081 44.3517 61.0136 45.2101C60.7594 46.0684 61.2541 47.6129 61.6262 48.4085C63.0956 51.5517 65.7733 54.2953 68.3599 56.6077C68.4628 56.7016 68.592 56.7618 68.7301 56.7801C68.8683 56.7984 69.0087 56.7739 69.1325 56.7101C69.2563 56.6462 69.3576 56.5459 69.4228 56.4228C69.4879 56.2996 69.5138 56.1595 69.497 56.0212C69.3974 54.6153 69.4097 54.8879 69.4097 54.6797C70.4109 55.1746 71.455 55.5775 72.5292 55.8834C72.6417 55.915 72.7605 55.9162 72.8736 55.8869C72.9867 55.8576 73.09 55.7988 73.173 55.7165C73.2559 55.6342 73.3155 55.5313 73.3456 55.4184C73.3758 55.3056 73.3755 55.1867 73.3447 55.074C73.2161 54.5051 73.115 53.9254 72.9948 53.3389C74.3087 53.9515 75.2398 54.4055 76.697 54.963C76.8167 55.009 76.9472 55.0189 77.0725 54.9915C77.1977 54.9642 77.3122 54.9007 77.4018 54.809C77.4914 54.7173 77.5522 54.6013 77.5766 54.4755C77.601 54.3496 77.5881 54.2193 77.5393 54.1008C77.4229 53.7485 77.3096 53.3994 77.1901 53.0449C79.6975 53.8532 82.0745 55.0208 84.2469 56.5112C84.2278 56.5465 84.2079 56.5832 84.1857 56.6207C83.8287 57.4566 83.7372 58.3821 83.9238 59.2716C84.1221 60.5573 84.9958 62.1668 85.2064 62.1859C86.4729 62.3743 87.9828 62.5834 88.6751 63.3498C88.8444 63.5154 88.9642 63.725 89.0209 63.955C89.0776 64.185 89.0689 64.4262 88.9959 64.6515C88.5181 66.3086 86.2079 66.2795 84.5065 66.0161C84.3398 65.9907 84.1696 66.0285 84.0294 66.1222C83.8891 66.2158 83.7889 66.3585 83.7485 66.5222C82.8571 69.444 81.5932 72.2388 79.988 74.8378C78.5033 77.3502 78.8509 74.8524 78.8509 80.5087C78.846 80.5666 78.8528 80.6248 78.8708 80.68C78.8888 80.7352 78.9176 80.7862 78.9557 80.83C78.9937 80.8738 79.0402 80.9096 79.0923 80.9352C79.1444 80.9607 79.2011 80.9756 79.2591 80.9789C79.318 80.9843 79.3774 80.9774 79.4335 80.9587C79.4896 80.9399 79.5412 80.9097 79.5851 80.87C79.6289 80.8302 79.664 80.7818 79.6882 80.7278C79.7123 80.6738 79.725 80.6154 79.7254 80.5562C79.9298 78.5408 79.988 77.4803 80.0753 76.9665V76.9091C81.2461 75.7314 83.7952 71.2428 84.9146 67.4579C85.563 67.5348 86.2175 67.5456 86.868 67.4901C88.9109 67.2787 89.9714 66.2305 90.2785 65.0038C90.4553 64.3315 90.4316 62.9555 89.8788 62.4823L89.9454 62.1921C90.0507 62.216 90.1611 62.1997 90.2549 62.1463C90.3488 62.0928 90.4192 62.0062 90.4523 61.9034Z" fill="#191919"/>
<path d="M28.5133 62.2334C28.3403 61.9236 28.0994 61.6571 27.8086 61.4539C27.5177 61.2507 27.1846 61.1161 26.8342 61.0603C26.4839 61.0045 26.1254 61.0289 25.7858 61.1317C25.4463 61.2345 25.1344 61.413 24.8738 61.6537C24.4751 62.0985 24.2509 62.6727 24.2429 63.27C24.2349 63.8673 24.4435 64.4473 24.8302 64.9027C25.0319 65.1465 25.2849 65.3428 25.5712 65.4775C25.8575 65.6123 26.17 65.6821 26.4864 65.6821C26.8028 65.6821 27.1154 65.6123 27.4017 65.4775C27.688 65.3428 27.941 65.1465 28.1427 64.9027C28.4457 64.5357 28.6408 64.0919 28.7062 63.6205C28.7716 63.1492 28.7048 62.669 28.5133 62.2334Z" fill="#38A1FF"/>
<path d="M42.9294 41.7314C42.7563 41.4217 42.5153 41.1553 42.2245 40.9522C41.9337 40.7491 41.6006 40.6146 41.2502 40.5588C40.8999 40.503 40.5415 40.5274 40.202 40.6301C39.8624 40.7328 39.5506 40.9111 39.2899 41.1518C38.8911 41.5967 38.6669 42.171 38.6589 42.7684C38.6509 43.3659 38.8596 43.946 39.2463 44.4014C39.448 44.6453 39.701 44.8416 39.9873 44.9763C40.2736 45.111 40.5861 45.1809 40.9025 45.1809C41.2189 45.1809 41.5315 45.111 41.8178 44.9763C42.1041 44.8416 42.3571 44.6453 42.5588 44.4014C42.8614 44.0342 43.0563 43.5902 43.1217 43.1188C43.1872 42.6475 43.1206 42.1672 42.9294 41.7314Z" fill="#38A1FF"/>
<path d="M80.7514 29.0856C80.5783 28.7761 80.3372 28.5098 80.0464 28.3067C79.7555 28.1037 79.4225 27.9693 79.0722 27.9135C78.7219 27.8577 78.3636 27.882 78.024 27.9847C77.6845 28.0873 77.3727 28.2655 77.112 28.506C76.713 28.9508 76.4887 29.5251 76.4807 30.1226C76.4727 30.7201 76.6814 31.3003 77.0683 31.7557C77.27 31.9995 77.523 32.1958 77.8093 32.3305C78.0956 32.4653 78.4081 32.5351 78.7246 32.5351C79.041 32.5351 79.3535 32.4653 79.6398 32.3305C79.9261 32.1958 80.1791 31.9995 80.3808 31.7557C80.6834 31.3884 80.8782 30.9444 80.9436 30.473C81.0091 30.0017 80.9425 29.5214 80.7514 29.0856Z" fill="#38A1FF"/>
<path d="M113.258 49.312C113.085 49.0023 112.844 48.7359 112.553 48.5328C112.262 48.3297 111.929 48.1952 111.579 48.1394C111.228 48.0836 110.87 48.1079 110.53 48.2107C110.191 48.3134 109.879 48.4917 109.618 48.7323C109.219 49.1774 108.995 49.7517 108.988 50.3491C108.98 50.9465 109.188 51.5266 109.575 51.982C109.777 52.2258 110.03 52.4221 110.316 52.5569C110.602 52.6916 110.915 52.7615 111.231 52.7615C111.548 52.7615 111.86 52.6916 112.147 52.5569C112.433 52.4221 112.686 52.2258 112.887 51.982C113.19 51.6149 113.386 51.1709 113.451 50.6995C113.516 50.228 113.45 49.7477 113.258 49.312Z" fill="#38A1FF"/>
<path d="M125.767 66.6003C125.594 66.2906 125.353 66.0242 125.062 65.8211C124.771 65.618 124.438 65.4835 124.088 65.4277C123.737 65.3719 123.379 65.3963 123.039 65.499C122.7 65.6017 122.388 65.78 122.127 66.0207C121.729 66.4656 121.504 67.0399 121.496 67.6373C121.488 68.2348 121.697 68.8149 122.084 69.2703C122.285 69.5142 122.538 69.7105 122.825 69.8452C123.111 69.9799 123.424 70.0498 123.74 70.0498C124.056 70.0498 124.369 69.9799 124.655 69.8452C124.941 69.7105 125.194 69.5142 125.396 69.2703C125.699 68.9031 125.894 68.4591 125.959 67.9877C126.025 67.5164 125.958 67.0361 125.767 66.6003Z" fill="#38A1FF"/>
<path d="M136.073 93.7808C136.109 93.6334 136.094 93.478 136.031 93.34C135.968 93.2019 135.86 93.0893 135.724 93.0205C129.899 89.9867 123.918 87.2609 117.807 84.8541C117.721 84.8197 117.63 84.803 117.538 84.805C117.446 84.807 117.356 84.8277 117.272 84.8658C117.189 84.904 117.114 84.9587 117.052 85.0267C116.99 85.0947 116.943 85.1746 116.913 85.2615C116.261 87.1536 116.078 87.7799 115.082 91.2027C110.476 92.3957 109.025 98.0589 108.108 102.673C102.941 92.6422 93.3559 85.1336 82.7178 81.3862C82.1129 81.1772 82.9184 81.2867 73.1931 86.296C72.6015 84.3965 71.8809 82.5396 71.036 80.7384C70.9743 80.6201 70.8798 80.5221 70.7638 80.4561C70.6479 80.3901 70.5154 80.3589 70.3821 80.3663C70.033 80.3923 69.6843 80.4286 69.3362 80.475C61.8038 81.5049 55.3466 83.1596 48.2606 87.3381C42.9119 90.5357 38.1804 94.6671 34.291 99.5359C33.6178 98.0961 32.4273 96.9625 30.9563 96.3605C31.2626 94.7701 31.4854 92.6851 31.6316 91.0212C31.6394 90.9182 31.6241 90.8148 31.5868 90.7185C31.5494 90.6222 31.491 90.5355 31.4159 90.4647C31.3407 90.3938 31.2507 90.3407 31.1524 90.3091C31.054 90.2776 30.9499 90.2684 30.8475 90.2823C24.875 91.1521 19.2944 90.4684 13.4773 89.0571C13.3855 89.0377 13.2907 89.037 13.1987 89.0553C13.1066 89.0735 13.0193 89.1102 12.9418 89.1632C12.8644 89.2161 12.7985 89.2843 12.7481 89.3634C12.6977 89.4426 12.664 89.5312 12.6488 89.6238C12.4957 90.8267 11.9734 94.5688 11.8831 95.2464C7.67779 97.1224 6.79032 101.848 6.47791 106.426C5.84237 116.192 8.82789 128.142 16.5907 134.122C24.6123 140.299 34.585 134.429 42.7437 128.48L42.5262 135.341C42.5281 135.448 42.5714 135.55 42.6471 135.626C42.7227 135.702 42.8248 135.745 42.932 135.748C43.0391 135.75 43.1429 135.71 43.2216 135.638C43.3003 135.565 43.3477 135.465 43.3539 135.358L43.6671 127.908C44.9044 126.904 46.0405 125.78 47.0592 124.555C47.1451 124.474 47.1953 124.362 47.1986 124.243C47.2019 124.125 47.1581 124.011 47.0769 123.925C46.9956 123.839 46.8836 123.789 46.7654 123.785C46.6472 123.782 46.5326 123.826 46.4467 123.907C46.3701 123.964 37.5452 133.007 27.8345 135.201C24.1942 136.023 20.5548 135.704 17.3074 133.172C9.98565 127.439 7.17471 115.689 7.83552 106.511C8.10582 102.308 8.83095 97.846 12.7606 96.3437C12.8759 96.2973 12.9769 96.2213 13.0536 96.1235C13.1302 96.0256 13.1797 95.9093 13.1971 95.7862C13.5248 92.7793 13.6014 92.6751 13.8946 90.5442C19.2124 91.9205 24.7343 92.329 30.1967 91.7502C30.1109 92.6483 29.8475 94.8352 29.5504 96.4976C23.1988 97.6462 21.1 96.6951 15.0279 96.6247C14.9201 96.6102 14.8111 96.639 14.7246 96.705C14.6382 96.7709 14.5814 96.8684 14.5669 96.9762C14.5524 97.0839 14.5813 97.193 14.6472 97.2794C14.7131 97.3659 14.8106 97.4226 14.9184 97.4371C15.6841 97.6155 16.5585 97.8529 17.6864 98.0191C20.7102 98.454 25.179 98.6791 28.1262 98.0321C28.7615 97.8851 29.3844 97.6888 29.9892 97.4448C30.8215 97.7361 31.5776 98.2111 32.2013 98.8345C33.5919 100.316 33.5168 102.241 33.6837 104.542C33.9711 107.923 33.8907 111.325 33.4441 114.688C33.3346 115.555 33.2695 116.407 33.1378 117.242C33.1243 117.299 33.1222 117.358 33.1317 117.416C33.1412 117.474 33.162 117.53 33.193 117.58C33.2239 117.63 33.2644 117.673 33.3122 117.708C33.3599 117.742 33.414 117.767 33.4713 117.78C33.5285 117.794 33.5879 117.796 33.6459 117.786C33.704 117.777 33.7596 117.756 33.8097 117.725C33.8597 117.694 33.9031 117.654 33.9375 117.606C33.9718 117.558 33.9965 117.504 34.0099 117.447C34.2889 116.607 34.5215 115.752 34.7067 114.886C35.4631 110.423 35.4076 105.86 34.5429 101.417C43.9397 89.3772 55.6 83.4452 70.0138 81.7852C70.7497 83.2699 71.3921 85.384 72.0085 87.0739C68.9857 88.0778 65.9027 88.8903 62.7778 89.5066C64.2056 87.49 65.5016 85.3832 66.6577 83.1994C66.7106 83.1045 66.7242 82.9927 66.6956 82.8879C66.6669 82.7831 66.5984 82.6937 66.5046 82.6389C66.4085 82.5861 66.2958 82.5725 66.19 82.601C66.0841 82.6296 65.9935 82.6981 65.9372 82.7921C65.0061 84.3756 62.3973 87.8611 60.6851 90.1299C60.6044 90.2387 60.5587 90.3695 60.5542 90.5049C60.5497 90.6403 60.5866 90.7739 60.66 90.8878C60.7334 91.0017 60.8397 91.0905 60.9649 91.1424C61.09 91.1942 61.2281 91.2067 61.3605 91.1782C65.3269 90.3359 69.2764 89.5886 73.0644 88.149C76.4683 90.8797 80.2869 93.0485 84.3756 94.5734C84.4958 94.6166 84.6259 94.625 84.7508 94.5976C84.8756 94.5701 84.9902 94.508 85.0813 94.4183C85.1723 94.3286 85.2362 94.215 85.2655 94.0905C85.2948 93.9661 85.2884 93.8359 85.2469 93.715C84.1326 90.5936 83.5301 87.3125 83.4628 83.9988C83.4639 83.8818 83.4187 83.769 83.3371 83.685C83.2556 83.601 83.1442 83.5525 83.0271 83.5501C82.9079 83.5501 82.7933 83.5964 82.7076 83.6792C82.6218 83.7621 82.5717 83.8751 82.5677 83.9942C82.4052 86.9541 82.7293 89.9205 83.5271 92.7755C80.1934 91.3898 77.0666 89.5511 74.2352 87.3113C77.05 85.8565 79.8356 84.3962 82.5677 82.7936C93.3268 86.6582 103.452 94.8812 107.76 105.118C107.766 105.132 107.772 105.146 107.779 105.16C107.166 107.277 106.065 115.985 106.039 116.281C105.985 116.901 105.974 117.516 105.93 118.135C105.912 118.252 105.94 118.372 106.01 118.468C106.079 118.564 106.184 118.629 106.301 118.647C106.419 118.666 106.54 118.638 106.637 118.569C106.735 118.5 106.802 118.396 106.824 118.279C106.977 117.701 107.13 117.135 107.26 116.552C108.183 112.458 108.939 101.073 111.552 96.0405C112.467 94.2579 113.773 92.8245 115.737 92.4485C115.858 92.4245 115.97 92.3684 116.062 92.2861C116.154 92.2038 116.223 92.0983 116.26 91.9806C116.692 90.5013 117.829 86.7738 117.96 86.381C123.445 88.5625 129.268 91.1759 134.632 93.9615C134.204 95.5826 133.937 96.8023 133.325 98.7978C133.301 98.8898 133.296 98.9857 133.311 99.0795C133.326 99.1733 133.361 99.263 133.412 99.343C135.693 102.922 134.247 107.2 132.976 111.212C130.331 119.729 126.108 131.142 118.265 135.418C114.712 137.365 110.963 138.814 107.499 138.29C102.385 137.519 100.684 133.313 97.9157 128.949C97.8649 128.842 97.7738 128.759 97.6622 128.72C97.5507 128.68 97.428 128.686 97.3211 128.737C97.2142 128.788 97.1318 128.879 97.0921 128.99C97.0524 129.102 97.0586 129.224 97.1094 129.331C97.9283 131.353 99.0763 133.225 100.507 134.872C100.6 136.829 100.571 138.193 100.524 140.112C100.524 140.228 100.569 140.341 100.65 140.425C100.731 140.508 100.841 140.557 100.957 140.561C101.074 140.565 101.187 140.523 101.273 140.444C101.359 140.366 101.411 140.257 101.418 140.14C101.469 138.031 101.483 139.074 101.483 136.075C106.303 141.226 112.618 139.728 118.81 136.411C127.04 132.001 131.423 120.449 134.24 111.609C135.602 107.223 137.036 102.88 134.7 98.8897C134.874 98.2641 135.812 94.872 136.073 93.7808Z" fill="#191919"/>
</svg>
