<svg width="154" height="154" viewBox="0 0 154 154" fill="none" xmlns="http://www.w3.org/2000/svg">
<path d="M92.3614 87.7102C90.7534 86.7914 89.1561 85.8725 87.5458 84.9407C87.4303 84.8738 87.3019 84.8324 87.1692 84.8191C87.0364 84.8058 86.9023 84.821 86.7759 84.8636C86.6495 84.9062 86.5336 84.9753 86.4359 85.0662C86.3383 85.1571 86.2611 85.2678 86.2096 85.3909C85.257 87.7838 83.7255 89.9029 81.7525 91.5584C79.7795 93.2139 77.4266 94.354 74.9046 94.8766C74.7621 94.9077 74.6288 94.9718 74.5155 95.0639C74.4023 95.1559 74.3123 95.2732 74.2527 95.4064C74.1931 95.5396 74.1656 95.685 74.1724 95.8308C74.1793 95.9765 74.2202 96.1186 74.2921 96.2457C75.2875 98.0168 76.7875 100.577 77.4001 101.64C77.4867 101.79 77.6146 101.913 77.7687 101.993C77.9227 102.073 78.0964 102.107 78.2692 102.091C81.8759 101.892 85.2998 100.44 87.9492 97.9845C90.5986 95.5292 92.3071 92.2256 92.7795 88.6444C92.8236 88.4644 92.8065 88.2748 92.7308 88.1056C92.6551 87.9364 92.5251 87.7973 92.3614 87.7102ZM87.6492 96.6691C85.6099 98.4022 83.217 99.6696 80.6375 100.383C80.4284 99.9992 80.125 99.6751 79.7559 99.4412C79.3868 99.2073 78.9642 99.0713 78.528 99.0459C78.2888 99.0484 78.0509 99.0809 77.8197 99.1424L76.6114 97.1293C76.9215 96.9818 77.1805 96.7452 77.3555 96.4498C77.5305 96.1544 77.6134 95.8135 77.5938 95.4708C79.5584 94.6047 81.4073 93.4971 83.0978 92.1736C84.6596 91.0358 85.8309 89.4424 86.4508 87.6122C86.8517 87.6553 87.2566 87.5863 87.6206 87.4129C87.9845 87.2394 88.2932 86.9683 88.5121 86.6298L90.6378 88.208C90.5091 88.8037 90.3162 90.221 91.0727 90.7685C90.6764 93.0829 89.4614 95.1776 87.6492 96.6706V96.6691Z" fill="#38A1FF"/>
<path d="M93.2306 58.0143C93.169 57.8882 93.0694 57.7846 92.9457 57.7182C92.822 57.6519 92.6806 57.626 92.5415 57.6445L84.9724 58.5947C84.8846 58.6061 84.7999 58.6348 84.7232 58.679C84.6464 58.7232 84.5792 58.7822 84.5254 58.8525C84.4715 58.9228 84.4321 59.0031 84.4093 59.0886C84.3865 59.1742 84.3809 59.2635 84.3927 59.3512C85.274 65.0066 85.5387 70.7409 85.1822 76.4535C85.1741 76.5439 85.1846 76.6351 85.2131 76.7214C85.2415 76.8076 85.2873 76.8871 85.3476 76.9551C85.4079 77.023 85.4815 77.0778 85.5638 77.1163C85.6461 77.1547 85.7354 77.1759 85.8262 77.1786L94.249 77.3072C94.4239 77.3107 94.5932 77.2451 94.7199 77.1245C94.8467 77.0039 94.9207 76.8381 94.9259 76.6633C95.0025 73.8148 95.1786 62.411 93.2306 58.0143ZM93.6472 74.7337C93.1907 74.7178 92.745 74.8745 92.3989 75.1725C92.0528 75.4705 91.8317 75.8879 91.7796 76.3417H88.3814C88.3087 75.855 88.0817 75.4046 87.7337 75.0566C87.3858 74.7087 86.9353 74.4817 86.4487 74.409C86.4969 72.6057 86.6424 64.7947 85.7243 61.5259C86.1024 61.3484 86.4276 61.0753 86.6676 60.7334C86.9076 60.3916 87.0542 59.993 87.0927 59.5771L91.2643 59.0457C91.2194 59.3398 91.2335 59.64 91.3057 59.9286C91.378 60.2173 91.5069 60.4886 91.6851 60.7269C91.8633 60.9652 92.0871 61.1657 92.3435 61.3167C92.5999 61.4676 92.8837 61.5661 93.1786 61.6063C93.3279 62.9585 94.213 71.6226 93.6472 74.7337Z" fill="#38A1FF"/>
<path d="M76.7399 61.0902C75.4209 58.6691 74.7231 55.9586 74.7091 53.2016C74.6951 50.4446 75.3652 47.7271 76.6595 45.2928C76.7304 45.1545 76.7679 45.0015 76.769 44.8461C76.7701 44.6907 76.7349 44.5372 76.666 44.3978C76.5972 44.2585 76.4967 44.1372 76.3726 44.0437C76.2484 43.9502 76.1041 43.8871 75.9512 43.8593C73.8072 43.4727 70.6678 42.9405 69.3806 42.7322C69.1981 42.7029 69.011 42.725 68.8404 42.796C68.6697 42.867 68.5221 42.9841 68.4143 43.1342C66.113 46.2465 64.9683 50.0636 65.1771 53.9287C65.3859 57.7938 66.9351 61.4653 69.5583 64.3116C69.692 64.4621 69.8681 64.5687 70.0635 64.6175C70.2589 64.6663 70.4644 64.6549 70.6532 64.5849C72.5047 63.8958 74.3731 63.1998 76.2246 62.5075C76.3573 62.4553 76.4774 62.3755 76.5769 62.2734C76.6764 62.1712 76.7531 62.0491 76.8018 61.9151C76.8505 61.781 76.8702 61.6382 76.8595 61.496C76.8489 61.3538 76.8081 61.2155 76.7399 61.0902ZM74.1633 62.153L71.4258 62.8138C71.3937 62.8299 71.3937 62.8138 71.3937 62.8138C70.9909 62.3146 69.9603 61.1875 68.9939 61.4447C68.5437 60.9616 66.9166 58.9179 66.8844 54.4553C66.9113 51.6549 67.3634 48.8748 68.2252 46.2101C68.8102 46.352 69.4267 46.2829 69.9658 46.015C70.505 45.747 70.9322 45.2974 71.1724 44.7453L73.6679 45.1634C73.5777 45.5203 73.5954 45.896 73.7188 46.2428C73.8421 46.5897 74.0656 46.8922 74.3608 47.1121C73.6516 49.6206 73.3086 52.2185 73.3424 54.8251C73.339 56.5762 73.8363 58.2917 74.7758 59.7694C74.4649 60.0723 74.2433 60.4548 74.1352 60.8753C74.0272 61.2957 74.0369 61.7377 74.1633 62.153Z" fill="#38A1FF"/>
<path d="M77.7063 32.3445L76.982 28.1093C76.7829 28.068 76.2507 27.9417 75.5271 27.7709L76.0019 30.5091C75.5885 30.677 75.2258 30.9492 74.9492 31.2993C74.6726 31.6493 74.4915 32.0651 74.4237 32.5061C70.8164 32.5865 62.8775 35.1631 61.0735 35.7588C60.8804 35.3188 60.5546 34.9503 60.1415 34.7047C59.7285 34.4592 59.249 34.3491 58.7702 34.3897C58.6737 34.3897 58.5773 34.4066 58.5129 34.4066L57.4662 30.9279C57.9158 30.7386 58.2761 30.3849 58.4736 29.9389C58.6711 29.4929 58.691 28.9883 58.529 28.5282C60.1929 27.6637 63.8056 26.7334 66.8914 26.0212C65.6324 25.8775 64.3687 25.7792 63.1026 25.7264C60.7981 26.3526 58.5106 27.04 56.2426 27.7877C56.1553 27.8164 56.0746 27.8622 56.0052 27.9224C55.9358 27.9827 55.8792 28.0562 55.8387 28.1387C55.7982 28.2212 55.7746 28.3109 55.7692 28.4027C55.7639 28.4944 55.777 28.5863 55.8077 28.6729L58.5451 37.2083C58.5742 37.3008 58.6223 37.3861 58.6862 37.459C58.7501 37.5319 58.8285 37.5906 58.9164 37.6315C59.0043 37.6724 59.0997 37.6946 59.1966 37.6966C59.2935 37.6986 59.3898 37.6805 59.4793 37.6433C66.4641 34.8247 74.6787 33.5046 77.1076 33.1661C77.2017 33.1535 77.2923 33.1218 77.3739 33.0732C77.4555 33.0246 77.5264 32.9599 77.5824 32.8832C77.6383 32.8064 77.6782 32.7191 77.6995 32.6265C77.7208 32.5339 77.7231 32.438 77.7063 32.3445Z" fill="#38A1FF"/>
<path d="M30.8279 94.9087C30.5385 93.7655 29.8325 91.0112 29.3141 89.1436C29.2681 89.0043 29.1913 88.877 29.0894 88.7714C28.9876 88.6657 28.8632 88.5844 28.7256 88.5333C28.588 88.4823 28.4406 88.4629 28.2945 88.4765C28.1484 88.4902 28.0072 88.5366 27.8814 88.6122C25.3851 90.0551 22.5702 90.8572 19.6883 90.9469C17.2674 91.0183 14.8586 90.5794 12.6185 89.659C12.4943 89.6048 12.3602 89.5768 12.2247 89.577C12.0892 89.5771 11.9552 89.6052 11.8312 89.6597C11.7071 89.7141 11.5956 89.7937 11.5038 89.8933C11.412 89.993 11.3418 90.1105 11.2976 90.2386C10.7501 91.9454 10.2026 93.6529 9.65514 95.3436C9.60114 95.5197 9.60485 95.7085 9.66574 95.8824C9.72663 96.0562 9.8415 96.206 9.99358 96.31C12.8636 98.3651 16.3031 99.4741 19.833 99.4823C23.6945 99.4844 27.4463 98.198 30.4941 95.8268C30.637 95.7264 30.7457 95.5845 30.8054 95.4203C30.8651 95.2561 30.873 95.0775 30.8279 94.9087ZM27.5108 96.1813C25.126 97.0774 22.635 97.6604 20.1002 97.9157C15.5106 98.32 13.313 96.9386 12.8076 96.5512C12.9852 95.7142 11.9546 94.9248 11.3098 94.522L11.8091 92.058C12.2117 92.1389 12.6283 92.1164 13.0199 91.9925C13.4115 91.8686 13.7652 91.6475 14.048 91.3497C15.5956 92.2318 17.6668 92.3688 19.6538 92.2341C21.9165 92.0136 24.1471 91.5387 26.3033 90.8183C26.5477 91.0658 26.8569 91.2394 27.1955 91.3192C27.5341 91.399 27.8884 91.3817 28.2176 91.2693L28.7329 93.4431C28.2373 93.6802 27.8423 94.0858 27.6184 94.5875C27.3945 95.0892 27.3563 95.6541 27.5108 96.1813Z" fill="#38A1FF"/>
<path d="M18.0839 96.3835C18.288 96.6649 18.5565 96.8933 18.8668 97.0498C19.1772 97.2063 19.5205 97.2864 19.868 97.2832C20.4324 97.2634 20.9678 97.0281 21.3641 96.6258C21.7604 96.2235 21.9876 95.6846 21.9989 95.12C22.0103 94.5554 21.805 94.0079 21.4252 93.5899C21.0454 93.1719 20.52 92.9153 19.9569 92.8727C19.4426 92.8509 18.9352 92.9976 18.5119 93.2904C18.0886 93.5833 17.7724 94.0063 17.6115 94.4953C17.5399 94.8252 17.5453 95.1671 17.6272 95.4946C17.7092 95.822 17.8654 96.1262 18.0839 96.3835Z" fill="#38A1FF"/>
<path d="M117.145 80.8663C117.564 80.9989 118.014 80.9954 118.43 80.8565C118.847 80.7175 119.209 80.4502 119.464 80.0929C119.772 79.6552 119.961 79.1444 120.011 78.6113C120.059 78.112 120.108 77.5645 119.528 77.3716C119.019 77.2441 118.483 77.2888 118.002 77.4985C117.521 77.7082 117.124 78.0712 116.871 78.5308C116.688 78.7897 116.571 79.089 116.529 79.4032C116.487 79.7174 116.521 80.0371 116.63 80.3349C116.735 80.566 116.917 80.7537 117.145 80.8663Z" fill="#38A1FF"/>
<path d="M115.325 81.3816C116.195 80.9306 116.694 81.6879 116.082 82.1543C115.087 83.1367 109.673 88.3221 107.821 89.9002C106.307 91.1889 104.519 93.7495 102.297 93.604C101.729 93.5356 101.174 93.3782 100.655 93.1377C99.6106 92.7701 98.5314 92.511 97.4342 92.3643C97.1749 92.3264 96.9296 92.223 96.7214 92.064C96.5131 91.9049 96.3488 91.6955 96.244 91.4553C96.1392 91.2152 96.0973 90.9523 96.1223 90.6914C96.1472 90.4306 96.2382 90.1804 96.3867 89.9645C96.6215 89.6239 96.8743 89.2959 97.144 88.9821C98.9633 86.9538 102.249 86.4384 104.729 85.5847C108.127 84.4254 115.325 81.3816 115.325 81.3816Z" fill="#38A1FF"/>
<path d="M70.6858 96.954L61.3778 83.3625C61.28 83.2183 61.1539 83.0955 61.0073 83.0015C60.8606 82.9075 60.6964 82.8442 60.5245 82.8156C60.3527 82.787 60.1768 82.7935 60.0076 82.8349C59.8384 82.8763 59.6793 82.9516 59.54 83.0563L54.435 86.8726C53.3764 86.1915 52.212 85.691 50.9893 85.3917C48.7201 84.8861 46.3582 84.9827 44.1379 85.6719C41.9176 86.3611 39.9161 87.6189 38.3321 89.3206C37.3232 90.5133 36.7447 92.0106 36.6896 93.5718C36.5734 95.5719 36.8978 97.5731 37.6399 99.4341L32.5027 103.283C32.2402 103.476 32.062 103.762 32.0049 104.083C31.9479 104.404 32.0165 104.735 32.1964 105.006L37.3175 112.977C42.6172 108.983 47.9695 105.058 53.373 101.205C63.6634 93.8299 68.1888 91.3336 63.2124 95.3919C58.687 99.1439 47.9295 107.341 38.1873 114.33L45.1278 125.136C45.3065 125.418 45.5893 125.619 45.9147 125.694C46.2402 125.769 46.5822 125.713 46.8667 125.538L53.7114 121.432C53.9223 121.292 54.0899 121.096 54.1952 120.866C54.3005 120.636 54.3392 120.381 54.3072 120.13C53.8401 110.902 60.8617 104.106 61.5049 103.43C62.841 102.045 66.5777 99.3882 69.8466 98.9211C70.0605 98.8928 70.2634 98.8093 70.4353 98.6788C70.6072 98.5483 70.7421 98.3752 70.8268 98.1767C70.9115 97.9782 70.943 97.761 70.9183 97.5466C70.8936 97.3322 70.8134 97.128 70.6858 96.954ZM52.7619 98.562C52.5048 99.4403 52.0897 100.264 51.5368 100.994C51.0376 101.654 50.474 101.815 50.1846 101.07C49.8943 100.346 50.3936 98.8805 51.3599 98.1875C52.327 97.5175 52.9549 97.8238 52.7619 98.5643V98.562ZM38.6873 98.6584C38.4752 97.9799 38.319 97.2851 38.2203 96.5811C37.9993 95.1722 38.0539 93.7339 38.3811 92.3459C38.816 90.5587 40.4424 89.2379 41.9562 88.3198C43.6524 87.2563 45.5896 86.6382 47.5883 86.5229C49.587 86.4075 51.5825 86.7985 53.3898 87.6597L38.6873 98.6584Z" fill="#38A1FF"/>
<path d="M70.5807 51.4475C70.5103 51.4361 70.439 51.4314 70.3678 51.4337C69.6969 51.448 69.0551 51.7108 68.5668 52.1711C68.314 52.3721 68.115 52.6325 67.9875 52.9292C67.8599 53.2258 67.8079 53.5495 67.836 53.8712C67.8642 54.1929 67.9716 54.5026 68.1487 54.7726C68.3258 55.0426 68.5671 55.2645 68.8509 55.4185C69.1716 55.6523 69.541 55.8107 69.9314 55.8819C70.3219 55.9531 70.7234 55.9353 71.1059 55.8297C71.6186 55.6854 72.0628 55.3626 72.3585 54.9197C72.6542 54.4767 72.7818 53.9427 72.7184 53.4139C72.655 52.8851 72.4048 52.3963 72.0128 52.0358C71.6208 51.6752 71.1129 51.4666 70.5807 51.4475Z" fill="#38A1FF"/>
<path d="M57.8022 45.1005C56.2613 41.8815 53.6454 39.3012 50.4056 37.8045C47.1658 36.3078 43.5052 35.9886 40.0553 36.902C39.8766 36.9479 39.7156 37.046 39.5929 37.1837C39.4701 37.3215 39.3912 37.4926 39.3661 37.6754C39.1242 39.4947 38.899 41.2988 38.6571 43.1181C38.6396 43.2489 38.6503 43.3819 38.6885 43.5082C38.7267 43.6345 38.7915 43.7512 38.8786 43.8503C38.9656 43.9495 39.0729 44.0289 39.1932 44.0831C39.3135 44.1374 39.444 44.1652 39.5759 44.1648C42.1174 44.129 44.628 44.7255 46.8817 45.9006C49.1355 47.0757 51.0618 48.7927 52.4874 50.897C52.5702 51.0152 52.6797 51.1123 52.807 51.1803C52.9343 51.2483 53.0758 51.2854 53.2201 51.2885C53.3644 51.2916 53.5074 51.2607 53.6375 51.1983C53.7676 51.1359 53.8812 51.0437 53.9691 50.9292C55.2088 49.3503 56.9806 47.0156 57.7211 46.0653C57.8241 45.9285 57.8863 45.7653 57.9007 45.5946C57.915 45.424 57.8809 45.2527 57.8022 45.1005ZM55.2754 46.6626L53.8902 48.5149C53.5662 48.2372 53.1574 48.0781 52.7309 48.0639C52.4786 48.0648 52.2301 48.1254 52.0058 48.2407C51.0104 47.2752 45.8219 42.5239 41.5063 43.1196C41.3969 42.7358 41.182 42.3904 40.8859 42.1228C40.5898 41.8551 40.2246 41.676 39.8317 41.6058L40.4757 39.079C41.0714 38.9656 42.4405 38.6119 42.6334 37.7099C43.6962 37.4197 49.3488 36.3086 55.3397 43.6357C54.9844 44.0564 54.784 44.5862 54.772 45.1368C54.76 45.6873 54.9372 46.2253 55.2738 46.6611L55.2754 46.6626Z" fill="#38A1FF"/>
<path d="M49.2354 39.3983C48.9888 39.2812 48.719 39.2208 48.446 39.2214C48.0472 39.2257 47.6553 39.3252 47.3028 39.5116C46.9455 39.6852 46.6323 39.9377 46.3869 40.2501C46.1415 40.5625 45.9703 40.9266 45.8862 41.3148C45.7984 41.8429 45.8942 42.385 46.1577 42.851C46.4212 43.3169 46.8364 43.6785 47.3342 43.8754C47.8238 44.02 48.347 44.0025 48.8258 43.8254C49.3046 43.6484 49.7134 43.3213 49.9912 42.893C50.1867 42.5822 50.3138 42.2333 50.3638 41.8695C50.4139 41.5057 50.3858 41.1355 50.2814 40.7834C50.2188 40.4902 50.0927 40.2142 49.912 39.9749C49.7313 39.7356 49.5004 39.5387 49.2354 39.3983Z" fill="#38A1FF"/>
<path d="M90.3804 65.7611C90.3027 65.7485 90.224 65.7437 90.1453 65.7465C89.4377 65.7573 88.7603 66.0355 88.2494 66.5253C88.0092 66.7343 87.8156 66.9915 87.6815 67.2803C87.5473 67.5692 87.4755 67.883 87.4707 68.2014C87.5026 68.5575 87.6158 68.9014 87.8017 69.2068C87.9876 69.5121 88.2411 69.7707 88.5427 69.9626C88.8802 70.2118 89.2706 70.38 89.6836 70.4539C90.0966 70.5279 90.5211 70.5057 90.9241 70.3891C91.4608 70.2327 91.9247 69.8912 92.2334 69.4252C92.5421 68.9592 92.6757 68.3988 92.6105 67.8436C92.5452 67.2884 92.2853 66.7744 91.8768 66.3927C91.4684 66.011 90.938 65.7864 90.3796 65.7588L90.3804 65.7611Z" fill="#38A1FF"/>
<path d="M90.8799 139.501L87.7405 132.56C87.7057 132.478 87.6547 132.405 87.5905 132.344C87.5263 132.284 87.4503 132.237 87.3672 132.207C87.2842 132.177 87.1958 132.164 87.1076 132.169C87.0194 132.175 86.9333 132.198 86.8545 132.238C81.714 134.751 76.3146 136.694 70.7523 138.035C70.6631 138.055 70.5788 138.092 70.5047 138.146C70.4305 138.199 70.3681 138.267 70.3213 138.346C70.2745 138.424 70.2443 138.511 70.2326 138.602C70.2208 138.692 70.2278 138.784 70.2531 138.872L72.6199 146.957C72.6407 147.041 72.6785 147.12 72.7309 147.188C72.7834 147.257 72.8494 147.314 72.9249 147.357C73.0004 147.399 73.0838 147.425 73.1699 147.434C73.256 147.443 73.343 147.434 73.4254 147.408C76.1629 146.634 87.1141 143.446 90.7375 140.273C90.8364 140.174 90.903 140.047 90.9284 139.909C90.9538 139.771 90.9369 139.629 90.8799 139.501ZM87.2726 141.288C86.0321 141.819 77.9967 145.218 74.8726 145.604C74.7668 145.227 74.5447 144.894 74.2381 144.651C73.9314 144.408 73.5559 144.268 73.1651 144.251C73.0369 144.254 72.9091 144.265 72.7822 144.284L71.7868 141.047C72.2284 140.832 72.59 140.482 72.8188 140.047C73.0475 139.613 73.1316 139.117 73.0587 138.631C74.7984 138.148 82.3024 135.974 85.1569 134.138C85.4447 134.439 85.8026 134.665 86.1988 134.794C86.595 134.924 87.0171 134.953 87.4273 134.879L89.1662 138.708C88.8722 138.752 88.59 138.854 88.3356 139.008C88.0812 139.162 87.8597 139.365 87.6838 139.605C87.5079 139.844 87.381 140.117 87.3104 140.405C87.2399 140.694 87.227 140.994 87.2726 141.288Z" fill="#38A1FF"/>
<path d="M81.1568 137.948C80.7766 137.717 80.3415 137.591 79.8964 137.584C79.6844 137.581 79.4736 137.617 79.2747 137.69C78.9333 137.83 78.6285 138.047 78.3838 138.323C78.139 138.599 77.9608 138.928 77.8627 139.283C77.7223 139.692 77.677 140.127 77.73 140.556C77.7831 140.985 77.9332 141.395 78.169 141.757C78.5076 142.235 78.9999 142.581 79.5635 142.739C80.1271 142.896 80.7277 142.855 81.2647 142.623C81.7533 142.356 82.1428 141.938 82.3752 141.433C82.6077 140.927 82.6707 140.359 82.555 139.815C82.4669 139.423 82.2968 139.053 82.0558 138.732C81.8148 138.41 81.5084 138.143 81.1568 137.948Z" fill="#38A1FF"/>
<path d="M52.2467 63.5221L49.1387 62.9746L29.6206 78.3218L33.3404 79.0944C33.6659 79.1587 34.0014 79.1518 34.324 79.0741C34.6465 78.9964 34.9484 78.8497 35.2088 78.6442L52.5691 64.8269C52.6797 64.7387 52.7626 64.6206 52.8082 64.4867C52.8537 64.3527 52.8598 64.2085 52.8259 64.0712C52.792 63.9339 52.7194 63.8092 52.6167 63.7118C52.5141 63.6145 52.3856 63.5487 52.2467 63.5221Z" fill="#38A1FF"/>
<path d="M47.5848 62.7059L45.8045 62.395C45.5014 62.3418 45.1906 62.3515 44.8915 62.4236C44.5923 62.4956 44.3112 62.6285 44.0656 62.8138L26.1578 76.3417C26.046 76.4284 25.961 76.5451 25.9128 76.6782C25.8647 76.8113 25.8552 76.9553 25.8856 77.0935C25.916 77.2317 25.985 77.3585 26.0845 77.4591C26.1841 77.5597 26.3101 77.63 26.448 77.6618L28.1448 78.014L47.5848 62.7059Z" fill="#38A1FF"/>
<path d="M21.4401 51.4767C21.6839 51.3479 21.8714 51.1335 21.9665 50.8748C22.0616 50.6161 22.0577 50.3314 21.9555 50.0754C21.8568 49.9769 21.7387 49.9 21.6088 49.8495C21.4788 49.799 21.3398 49.7761 21.2005 49.7821C21.0612 49.7882 20.9247 49.8231 20.7996 49.8846C20.6745 49.9462 20.5636 50.0331 20.4738 50.1397C20.318 50.3283 20.2383 50.5683 20.2502 50.8126C20.2621 51.0569 20.3648 51.288 20.5381 51.4606C20.6726 51.5457 20.8278 51.5922 20.9869 51.5951C21.146 51.5979 21.3028 51.5569 21.4401 51.4767Z" fill="#38A1FF"/>
<path d="M80.5046 24.0128C80.1361 23.6648 79.7642 23.3205 79.3889 22.9799L79.3169 23.2946C78.8733 23.292 78.4366 23.405 78.0498 23.6224C77.663 23.8397 77.3395 24.154 77.1109 24.5343C73.7617 23.2142 65.4192 22.5541 63.5356 22.4247C63.5838 20.9591 62.1986 20.3634 61.6833 20.1865L62.0378 16.5793C62.5259 16.5723 62.9933 16.3807 63.3458 16.043C63.6983 15.7053 63.9097 15.2465 63.9376 14.7592C65.806 14.7268 67.6735 14.8632 69.5173 15.1665C68.7516 14.6535 67.9714 14.1527 67.1804 13.6757C64.9384 13.4306 63.0501 13.2836 62.1014 13.2162C62.0103 13.2093 61.9187 13.2205 61.832 13.2492C61.7453 13.278 61.6651 13.3237 61.5962 13.3836C61.5273 13.4436 61.471 13.5167 61.4307 13.5987C61.3903 13.6806 61.3666 13.7698 61.3609 13.861L60.6197 22.7823C60.6124 22.8779 60.6247 22.9739 60.6559 23.0646C60.687 23.1552 60.7364 23.2385 60.801 23.3094C60.8655 23.3802 60.9439 23.4371 61.0312 23.4766C61.1185 23.5161 61.213 23.5372 61.3089 23.5388C68.845 23.6192 76.9294 25.5358 79.3123 26.1476C79.4034 26.1709 79.4982 26.1755 79.5911 26.1612C79.6839 26.1469 79.7729 26.1139 79.8527 26.0642C79.9325 26.0146 80.0014 25.9493 80.0553 25.8723C80.1091 25.7953 80.1468 25.7082 80.1661 25.6162L80.5199 24.0335L80.5046 24.0128Z" fill="#38A1FF"/>
<path d="M68.3593 17.9942C68.1769 18.3955 68.0879 18.8329 68.0991 19.2735C68.1102 19.7141 68.2212 20.1464 68.4236 20.5379C68.5737 20.8832 68.8019 21.189 69.0902 21.4311C69.3785 21.6732 69.7191 21.845 70.0852 21.9331C70.416 21.9805 70.7531 21.9573 71.0742 21.8649C71.3953 21.7725 71.6932 21.6131 71.9482 21.3971C72.2752 21.1502 72.546 20.8366 72.7427 20.4771C72.9393 20.1177 73.0574 19.7206 73.0891 19.312C73.1519 18.7261 73.0048 18.137 72.674 17.6494C72.3431 17.1618 71.8499 16.8074 71.2823 16.6493C70.7146 16.4912 70.1093 16.5397 69.574 16.7862C69.0387 17.0326 68.6083 17.461 68.3593 17.995V17.9942Z" fill="#38A1FF"/>
<path d="M87.3849 16.7079C84.7279 12.3433 74.6465 5.59661 72.1181 3.93731C71.962 3.83777 71.7728 3.80396 71.5918 3.84326C71.4108 3.88256 71.2526 3.99177 71.1518 4.14711L66.1578 11.5868C66.105 11.667 66.0693 11.7573 66.0528 11.8519C66.0364 11.9465 66.0396 12.0436 66.0622 12.1369C66.0848 12.2303 66.1264 12.318 66.1843 12.3946C66.2423 12.4712 66.3153 12.535 66.399 12.5822C72.9535 16.3181 79.0892 21.9239 80.8771 23.6131C80.9458 23.6787 81.027 23.7296 81.1159 23.7628C81.2048 23.796 81.2996 23.8108 81.3944 23.8063C81.4892 23.8018 81.5821 23.7781 81.6675 23.7366C81.7528 23.6951 81.8288 23.6366 81.8909 23.5649L87.2915 17.5295C87.3946 17.4215 87.4594 17.2827 87.4763 17.1344C87.4932 16.9861 87.4611 16.8363 87.3849 16.7079ZM82.3144 21.1337C81.9265 20.9137 81.4881 20.7981 81.0422 20.7981C80.5962 20.7981 80.1578 20.9137 79.7699 21.1337C77.4835 18.3634 70.5101 13.7254 68.932 12.6948C69.6893 11.439 68.7873 10.2445 68.4167 9.84479L70.4757 6.86846C70.9039 7.10407 71.406 7.16695 71.8791 7.04423C72.3522 6.9215 72.7605 6.62247 73.0201 6.20842C76.0639 7.58058 83.1659 13.6481 84.2287 14.5662C84.0859 14.849 84.001 15.1574 83.9789 15.4733C83.9568 15.7893 83.9979 16.1065 84.0999 16.4064C84.2019 16.7063 84.3626 16.9828 84.5727 17.2199C84.7829 17.4569 85.0381 17.6496 85.3236 17.7868L82.3144 21.1337Z" fill="#38A1FF"/>
<path d="M75.2004 11.2437C74.8608 11.5246 74.5894 11.8788 74.4065 12.2798C74.2236 12.6807 74.134 13.1179 74.1445 13.5585C74.1277 13.9352 74.1987 14.3107 74.3519 14.6553C74.5052 14.9999 74.7364 15.3041 75.0274 15.544C75.3041 15.7312 75.6174 15.8576 75.9466 15.9149C76.2758 15.9722 76.6133 15.959 76.9371 15.8763C77.3395 15.7974 77.7206 15.6336 78.0549 15.396C78.3892 15.1583 78.669 14.8522 78.8759 14.498C79.157 14.0049 79.2709 13.4339 79.2005 12.8706C79.1301 12.3073 78.8792 11.782 78.4853 11.3731C78.0348 10.98 77.4632 10.7527 76.8657 10.7292C76.2682 10.7057 75.6805 10.8872 75.2004 11.2437Z" fill="#38A1FF"/>
<path d="M85.2473 96.7663C85.5484 96.8197 85.8575 96.8067 86.153 96.7284C86.4486 96.6502 86.7235 96.5084 86.9587 96.313C87.202 96.0708 87.3866 95.776 87.4982 95.4514C87.6099 95.1267 87.6456 94.7807 87.6027 94.4401C87.5769 94.0373 87.4609 93.6455 87.2635 93.2935C87.066 92.9415 86.792 92.6383 86.4618 92.4064C86.0717 92.1759 85.6269 92.0545 85.1738 92.0549C84.8583 92.0489 84.5451 92.1098 84.2548 92.2334C83.9645 92.3571 83.7036 92.5408 83.4893 92.7724C83.1632 93.1767 82.9757 93.6751 82.9546 94.1941C82.9335 94.7131 83.0799 95.2251 83.3721 95.6545C83.5884 95.9618 83.8673 96.2198 84.1906 96.4114C84.5138 96.6031 84.874 96.724 85.2473 96.7663Z" fill="#38A1FF"/>
<path d="M65.0492 65.7748C64.9318 65.2167 64.7424 64.6761 64.4856 64.1669C64.4839 64.1547 64.4783 64.1433 64.4695 64.1347C64.3969 63.9495 64.2841 63.7827 64.1392 63.6463C63.9944 63.5099 63.8211 63.4073 63.6318 63.346L45.4346 59.7257C45.2532 59.6985 45.0697 59.6877 44.8864 59.6935C42.5196 55.2647 34.8379 41.2398 32.7445 41.6411C30.8118 42.0071 8.3465 55.4055 5.6734 59.5281C5.55978 59.6725 5.47573 59.8378 5.42607 60.0147C5.3764 60.1915 5.36209 60.3764 5.38396 60.5588C6.02792 63.2648 19.104 76.3731 20.5857 77.8708C20.7751 78.0509 20.8853 78.2987 20.892 78.56C20.972 78.9727 21.1696 79.3534 21.461 79.6564C21.7524 79.9593 22.1252 80.1716 22.5344 80.2675L38.1879 83.8457C38.3414 83.8775 38.4976 83.8939 38.6542 83.8947C39.126 83.892 39.5836 83.7335 39.956 83.4437L63.9542 64.9234C64.1632 65.503 64.8072 66.6945 64.1793 67.242C57.0291 73.5063 48.9416 78.4505 41.5372 84.3603C41.2638 84.59 41.6336 85.0532 41.9078 84.8434C49.267 79.5133 57.7213 74.7146 64.1954 68.2565C64.2276 68.2404 64.2436 68.2404 64.272 68.2244C64.6279 67.9376 64.8914 67.5524 65.0297 67.1167C65.1679 66.6811 65.1747 66.2143 65.0492 65.7748ZM6.10832 60.3819C6.10832 60.3819 6.07616 60.2533 6.30205 59.9309C8.79751 56.0824 31.0538 42.7161 32.8892 42.3777C34.0806 42.3777 39.4919 51.1834 44.1138 59.836C44.1138 59.836 43.7753 60.0932 43.7432 60.1093C43.4216 60.3513 43.0992 60.5925 42.7608 60.8345C40.0555 62.8314 37.3342 64.7963 34.6442 66.8254C31.5813 69.0797 28.3791 71.1731 25.4327 73.5729C24.4824 74.3455 23.4678 75.0538 22.4854 75.7789C22.1766 75.9907 21.8807 76.2208 21.5995 76.468C21.3583 76.6978 21.1646 76.9191 20.9103 77.1281C16.7211 72.9266 6.59149 62.4593 6.10832 60.3819ZM39.5241 82.8311C39.3623 82.9577 39.1742 83.0465 38.9736 83.091C38.773 83.1355 38.565 83.1347 38.3648 83.0884L22.7113 79.5133C22.4395 79.4546 22.1915 79.3159 21.9992 79.115C21.8069 78.9141 21.6792 78.6603 21.6324 78.3862C21.5592 78.0266 21.6225 77.6526 21.8101 77.3371L44.2103 60.6714C44.4438 60.5006 44.7265 60.4103 45.0158 60.4141C45.1077 60.4169 45.1991 60.4276 45.2892 60.4462L63.4871 64.0696C63.5605 64.0969 63.6227 64.1478 63.664 64.2143L39.5241 82.8311Z" fill="#191919"/>
<path d="M16.1738 54.2623C13.3406 55.9208 10.7786 57.7731 8.08938 59.6407C8.01653 59.6876 7.95488 59.75 7.90875 59.8234C7.86263 59.8968 7.83316 59.9794 7.82243 60.0654C7.8117 60.1514 7.81996 60.2387 7.84664 60.3212C7.87331 60.4036 7.91775 60.4793 7.97682 60.5427C8.91099 61.751 9.87732 63.1515 11.1974 63.9409C11.5037 64.1178 11.9057 63.7112 11.6645 63.4738C10.7194 62.4806 9.8676 61.4026 9.12003 60.2533C11.432 58.2548 13.8803 56.4198 16.4472 54.7615C16.7534 54.5525 16.4793 54.0693 16.1738 54.2623Z" fill="#191919"/>
<path d="M25.3049 70.9465C31.1125 67.6854 36.6668 63.9924 41.9209 59.8988C42.013 59.8416 42.0795 59.7511 42.1065 59.6461C42.1334 59.541 42.1188 59.4297 42.0656 59.3352C39.7392 55.0103 37.1591 50.8268 34.3388 46.8066C34.3132 46.7638 34.2716 46.733 34.2233 46.7209C34.175 46.7087 34.1238 46.7163 34.0811 46.7419C34.0383 46.7675 34.0075 46.809 33.9954 46.8573C33.9832 46.9056 33.9908 46.9568 34.0164 46.9995C35.1121 49.1435 36.4667 51.1221 37.6918 53.1835C38.7386 54.9553 40.3006 58.0143 40.8159 59.045C40.8714 59.1564 40.8888 59.283 40.8654 59.4053C40.842 59.5275 40.7792 59.6388 40.6865 59.7219C39.3986 60.8329 34.4705 64.2473 32.6672 65.4709C30.171 67.1616 27.4335 68.6754 25.0177 70.4794C24.9841 70.4968 24.9545 70.5209 24.9307 70.5502C24.9068 70.5796 24.8893 70.6135 24.8792 70.6499C24.8691 70.6864 24.8666 70.7245 24.8718 70.7619C24.8771 70.7994 24.8901 70.8353 24.9099 70.8675C24.9297 70.8997 24.9559 70.9275 24.9869 70.9491C25.0179 70.9707 25.0531 70.9857 25.0901 70.9931C25.1272 71.0005 25.1654 71.0002 25.2024 70.9922C25.2393 70.9842 25.2742 70.9686 25.3049 70.9465Z" fill="#191919"/>
<path d="M115.261 119.66L115.245 119.644C114.681 119.226 114.681 120.595 115.245 120.176L115.261 120.16C115.302 120.132 115.336 120.095 115.359 120.052C115.382 120.008 115.394 119.959 115.394 119.91C115.394 119.861 115.382 119.812 115.359 119.769C115.336 119.725 115.302 119.688 115.261 119.66Z" fill="#191919"/>
<path d="M135.037 75.6809C135.037 75.6809 137.726 73.9573 135.439 72.8301C135.439 72.8301 137.291 70.8492 135.423 69.9641C135.423 69.9641 136.631 68.6432 136.389 67.5138H136.437C136.574 67.6856 136.744 67.828 136.937 67.9326C138.258 68.5766 138.725 67.8032 138.725 67.8032C138.725 67.8032 138.258 69.8645 139.337 70.3638C139.602 70.518 139.915 70.5689 140.215 70.5066C140.515 70.4442 140.782 70.2731 140.964 70.0261C140.831 70.1892 140.735 70.3798 140.685 70.5841C140.634 70.7884 140.629 71.0014 140.671 71.2078C140.713 71.4141 140.799 71.6087 140.925 71.7775C141.051 71.9463 141.213 72.085 141.399 72.1839C142.816 73.0376 143.267 71.9909 143.267 71.9909C143.093 72.3723 143.062 72.8038 143.18 73.2061C143.299 73.6083 143.558 73.9544 143.911 74.1809C145.183 74.9374 146.438 73.4396 146.391 72.7153C146.311 71.2819 145.505 70.801 144.136 70.7665C144.136 70.7665 144.442 67.5781 142.139 68.6892C142.139 68.6892 141.721 66.016 139.869 66.9341C139.869 66.9341 139.562 65.0658 138.435 64.6309C138.926 64.2456 139.321 63.7508 139.587 63.186C139.852 62.6213 139.983 62.0021 139.967 61.3781C140.001 60.5775 139.766 59.7885 139.299 59.1374C138.832 58.4863 138.16 58.0107 137.39 57.7869C137.39 57.7869 140.578 57.4646 138.856 54.1636C137.133 50.8626 134.491 52.5854 134.491 52.5854C134.491 52.5854 135.071 50.8618 132.913 49.9284C131.866 49.4774 130.835 50.0892 130.046 50.8296C129.816 50.1405 129.402 49.5279 128.597 49.6221C128.191 49.7162 127.825 49.937 127.553 50.2527C127.281 50.5684 127.116 50.9624 127.083 51.3779C126.855 51.1872 126.574 51.0697 126.278 51.0409C125.983 51.0121 125.685 51.0732 125.424 51.2163C124.429 51.812 124.925 52.4889 125.36 52.8749C124.269 53.2488 123.254 53.8163 122.364 54.5502C120.98 55.6955 119.939 57.1997 119.353 58.898C119.057 59.7438 118.883 60.6278 118.838 61.5228C118.796 62.24 118.878 62.9589 119.08 63.6485C118.848 63.7266 118.642 63.8658 118.484 64.0512C117.565 65.1944 118.274 65.8392 118.274 65.8392C118.274 65.8392 116.341 64.9854 115.633 65.9356C115.548 66.0612 115.478 66.1964 115.424 66.3384C115.356 66.259 115.296 66.1725 115.246 66.0804C114.383 64.6571 113.702 63.1314 113.217 61.5389C111.285 55.6291 110.109 48.7362 109.127 42.6487C108.838 40.909 108.58 39.1641 108.354 37.4151C108.324 36.9353 108.162 36.473 107.887 36.0789C107.74 35.9265 107.556 35.8152 107.352 35.7558C107.149 35.6965 106.934 35.6912 106.728 35.7405C106.267 35.8715 105.82 36.044 105.391 36.2558C104.924 36.4327 104.489 36.6425 104.038 36.8515C102.736 37.4794 101.494 38.2528 100.222 38.9289C98.9508 39.5806 97.7385 40.3404 96.5981 41.2C96.46 41.3023 96.3257 41.4095 96.1954 41.5216C95.4549 42.1173 96.2275 42.0209 97.8539 41.1679C99.0622 40.5231 100.222 39.7988 101.429 39.1387C102.34 38.6367 103.269 38.1693 104.215 37.7375C105.019 37.3073 105.847 36.9256 106.696 36.5942C106.859 36.5224 107.044 36.5166 107.211 36.5782C107.288 36.6103 107.372 36.7872 107.42 37.1096C107.516 37.8179 107.613 38.5751 107.71 39.3478C108.421 45.2839 109.486 51.1722 110.899 56.9814C111.525 59.5798 112.393 62.1138 113.491 64.5505C113.938 65.5187 114.512 66.4231 115.198 67.2397C114.916 67.077 114.584 67.0248 114.265 67.0933C113.947 67.1618 113.665 67.346 113.475 67.6103C112.38 68.8354 113.314 69.4786 113.314 69.4786C112.973 69.2363 112.557 69.1241 112.14 69.1625C111.724 69.2008 111.334 69.3871 111.043 69.6876C110.061 70.7826 111.285 72.3125 111.994 72.409C113.411 72.6027 114.039 71.9097 114.344 70.5713C114.344 70.5713 117.421 71.4725 116.76 69.0092C116.76 69.0092 119.465 69.1057 118.918 67.1248C118.918 67.1248 120.512 67.1409 120.786 66.4165C121.213 66.8709 121.707 67.2566 122.252 67.5597C123.61 68.2501 125.175 68.4163 126.648 68.0268C127.382 67.8556 128.113 67.6677 128.839 67.4632C128.49 67.7415 128.223 68.1087 128.065 68.5261C127.92 69.0555 127.887 69.6095 127.969 70.1524C127.356 70.2811 126.6 70.5552 126.455 71.2313C126.408 71.4101 126.398 71.5966 126.425 71.7793C126.453 71.9621 126.518 72.1373 126.616 72.2941C125.62 72.471 124.603 72.6487 123.621 72.922C122.992 73.0836 122.477 73.164 122.59 72.3094C122.719 71.2949 123.331 70.409 123.347 69.3783C123.344 69.3094 123.32 69.2432 123.277 69.1893C123.234 69.1354 123.175 69.0966 123.108 69.0787C123.042 69.0607 122.971 69.0645 122.907 69.0895C122.843 69.1144 122.788 69.1593 122.751 69.2175C122.125 70.2796 121.699 71.4475 121.495 72.6632C121.434 72.9449 121.471 73.2388 121.6 73.4965C121.729 73.7542 121.942 73.9602 122.204 74.0806C122.683 74.2337 123.201 74.2164 123.669 74.0315C124.172 73.9639 124.668 73.8508 125.15 73.6939C124.668 75.2398 125.779 75.4489 125.779 75.4489C125.366 75.3692 124.939 75.441 124.575 75.6509C124.211 75.8609 123.935 76.1951 123.798 76.5921C123.363 78.0094 125.1 78.8793 125.795 78.6695C127.163 78.2675 127.453 77.3815 127.179 76.0285C127.179 76.0285 130.352 75.5936 128.741 73.6135C128.741 73.6135 131.238 72.5989 129.934 71.0047C129.934 71.0047 132.996 69.7321 131.399 67.7994L132.896 67.7029C132.877 67.8746 132.883 68.0481 132.913 68.2182C133.219 69.6517 134.12 69.5552 134.12 69.5552C134.12 69.5552 132.206 70.4572 132.478 71.6165C132.519 71.9219 132.671 72.2012 132.906 72.4006C133.141 72.5999 133.442 72.7049 133.75 72.6954C133.538 72.6911 133.329 72.7334 133.136 72.8193C132.942 72.9052 132.77 73.0326 132.632 73.1925C132.494 73.3524 132.392 73.5407 132.335 73.7443C132.278 73.9478 132.266 74.1614 132.3 74.37C132.494 75.9964 133.602 75.723 133.602 75.723C133.193 75.8228 132.833 76.0662 132.587 76.4089C132.342 76.7515 132.228 77.1708 132.265 77.5906C132.459 79.0562 134.409 79.122 134.938 78.6534C135.954 77.71 135.858 76.7919 135.037 75.6809ZM120.366 64.8269C120.084 64.3383 119.873 63.8124 119.738 63.2648C119.63 62.7951 119.587 62.3129 119.609 61.8314C121.753 60.9937 124.489 60.189 126.776 60.9294C127.631 61.2286 128.369 61.793 128.882 62.5406C129.394 63.2881 129.655 64.1798 129.626 65.0857C127.983 65.8085 122.83 67.7251 120.366 64.8269ZM121.606 56.388C122.512 55.2402 123.669 54.3148 124.988 53.6827C125.294 53.538 125.583 53.4086 125.874 53.296C126.486 53.94 127.788 52.9415 128.064 52.7164H128.14C128.833 53.6827 130.25 53.0066 130.314 52.9744C130.298 53.0066 130.089 53.4736 130.733 54.0533C131.321 54.5919 131.997 55.0273 132.73 55.3412C132.73 55.3412 132.698 55.4377 132.231 56.8229C132.115 57.1259 132.115 57.461 132.231 57.7641C132.347 58.0671 132.57 58.3167 132.859 58.4653C132.118 62.2503 131.94 63.1515 131.94 63.1515C131.956 63.0872 132.277 63.1354 132.31 63.1354C132.728 63.2005 133.356 63.2648 133.535 63.748C133.609 63.9753 133.623 64.2179 133.575 64.4522C133.528 64.6865 133.421 64.9047 133.265 65.0857C132.973 65.4308 132.578 65.6735 132.138 65.7787C131.914 65.8065 131.688 65.7848 131.473 65.7152C131.259 65.6456 131.063 65.5298 130.898 65.3759C130.752 65.2582 130.571 65.1903 130.383 65.1822C130.631 64.1595 130.508 63.082 130.036 62.1414C129.564 61.2008 128.774 60.4579 127.806 60.045C125.455 58.934 122.024 59.8038 119.738 60.9792C119.738 60.9149 119.754 60.8666 119.754 60.8023C119.961 59.1905 120.601 57.6649 121.606 56.388Z" fill="#191919"/>
<path d="M122.943 59.0289C123.378 59.0289 123.394 58.9003 123.201 58.7877C123.023 58.6591 122.512 58.4493 122.411 57.9179C122.218 56.855 124.875 56.2754 125.568 56.0334C125.97 55.8887 126.035 55.7922 125.745 55.7118C125.154 55.6294 124.552 55.69 123.99 55.8887C123.321 56.0097 122.688 56.2795 122.137 56.6782C121.995 56.8044 121.881 56.9594 121.803 57.1329C121.725 57.3064 121.685 57.4945 121.685 57.6847C121.685 57.8749 121.725 58.063 121.803 58.2365C121.881 58.41 121.995 58.565 122.137 58.6912C122.365 58.8839 122.646 59.0018 122.943 59.0289Z" fill="#191919"/>
<path d="M127.291 57.9822C127.732 57.7853 128.099 57.4526 128.338 57.0327C128.467 56.7104 128.209 56.6139 127.758 56.8229C127.316 57.0201 126.95 57.353 126.711 57.7732C126.582 58.0948 126.84 58.1943 127.291 57.9822Z" fill="#191919"/>
<path d="M127.951 62.4432C127.423 62.7303 126.874 62.9778 126.309 63.1837C125.439 63.5141 124.517 63.6886 123.586 63.699C123.182 63.6897 122.781 63.6248 122.395 63.506C122.108 63.3959 121.841 63.238 121.606 63.039C121.252 62.7013 121.107 62.6684 121.236 63.0068C121.381 63.3578 121.614 63.6653 121.913 63.8995C122.212 64.1337 122.567 64.2867 122.943 64.3437C123.844 64.5092 124.772 64.4565 125.649 64.1901C126.526 63.9237 127.326 63.4513 127.983 62.8123C128.289 62.4111 128.224 62.3146 127.951 62.4432Z" fill="#191919"/>
<path d="M128.723 55.486C128.992 55.5324 129.236 55.6688 129.416 55.8726C129.744 56.2134 129.972 56.637 130.077 57.0978C130.15 57.4753 130.15 57.8635 130.077 58.241C130.028 58.4983 130.06 58.5794 130.205 58.45C130.468 58.1472 130.605 57.7555 130.588 57.3551C130.596 56.7606 130.377 56.1855 129.975 55.7471C129.844 55.5694 129.667 55.4307 129.462 55.3456C129.258 55.2606 129.035 55.2323 128.816 55.2639C128.563 55.3734 128.611 55.4538 128.723 55.486Z" fill="#191919"/>
<path d="M102.588 41.54C101.757 41.9008 100.964 42.3432 100.22 42.8609C99.4996 43.3049 98.8157 43.8058 98.1749 44.3586C98.1427 44.3747 98.1266 44.4068 98.0983 44.439C97.9536 44.5516 97.792 44.4229 97.7116 44.246C97.5407 43.7975 97.3088 43.3747 97.0225 42.9895C96.5554 42.4259 96.3946 42.4742 96.5071 42.893C96.5715 43.1018 96.6679 43.4239 96.7966 43.8594C96.8605 44.1376 96.9413 44.4117 97.0385 44.6802C97.0938 44.8337 97.1813 44.9735 97.2951 45.0902C97.409 45.207 97.5466 45.298 97.6986 45.3571C97.8558 45.4037 98.0221 45.4103 98.1825 45.3765C98.343 45.3427 98.4924 45.2694 98.6174 45.1634C99.8893 44.3586 101.098 43.4566 102.289 42.7483C103.48 42.0553 104.592 41.5078 105.204 41.1058C106.435 40.3486 105.277 40.4297 102.588 41.54Z" fill="#191919"/>
<path d="M138.885 78.096C138.196 77.5003 137.468 77.9513 138.112 78.5952C150.85 91.5595 148.338 110.352 135.406 122.076C135.133 122.318 135.488 122.785 135.793 122.576C151.173 112.607 151.253 88.6284 138.885 78.096Z" fill="#191919"/>
<path d="M132.862 122.608C132.413 121.898 131.929 121.21 131.413 120.546C130.619 119.623 129.877 118.655 129.193 117.647C128.436 116.281 127.564 114.983 126.584 113.767C126.551 113.725 126.513 113.687 126.472 113.653C126.6 113.525 126.746 113.396 126.874 113.271C128.839 111.306 130.369 110.146 131.335 107.36C132.962 102.674 132.221 96.7166 128.195 93.5266C128.002 93.3658 127.728 93.6231 127.906 93.8168C134.267 100.5 130.321 109.84 123.38 114.091C123.25 114.169 123.146 114.285 123.083 114.423C123.02 114.561 123 114.715 123.026 114.865C123.761 118.188 125.348 121.262 127.632 123.786C128.002 124.237 128.627 123.657 128.389 123.19C127.567 121.532 126.182 119.583 125.393 117.65C125.136 117.029 124.895 116.401 124.669 115.767C124.621 115.64 124.616 115.5 124.654 115.37C124.691 115.239 124.77 115.124 124.878 115.042C125.168 114.8 125.619 114.429 126.134 113.963C126.456 114.575 127.02 115.67 127.776 117.167C128.678 119.052 130.256 120.694 131.384 122.208C131.674 122.591 131.932 122.965 132.173 123.335C132.592 123.818 130.482 124.736 130.16 124.867C129.241 125.269 129.113 125.398 129.806 125.382C130.336 125.33 130.856 125.205 131.352 125.011C131.98 124.77 133.091 124.432 133.172 123.627C133.19 123.445 133.172 123.261 133.119 123.086C133.066 122.911 132.979 122.749 132.862 122.608Z" fill="#191919"/>
<path d="M97.3223 48.4651C98.5145 57.1942 101.623 75.4228 112.866 77.6457C112.957 77.6676 113.053 77.6534 113.133 77.6061C113.213 77.5589 113.272 77.4822 113.297 77.3924C113.322 77.3025 113.312 77.2065 113.267 77.1244C113.223 77.0424 113.148 76.9809 113.059 76.9527C102.237 73.4419 99.6286 57.6123 98.3078 48.191C98.2067 47.5508 97.2243 47.8211 97.3223 48.4651Z" fill="#191919"/>
<path d="M96.3387 22.9561C101.508 24.1965 103.86 29.9294 105.792 34.3576C105.937 34.6799 106.468 34.4548 106.372 34.1164C104.906 29.382 101.959 23.182 96.5485 22.2156C96.0653 22.1352 95.8563 22.8435 96.3387 22.9561Z" fill="#191919"/>
<path d="M117.902 109.644C121.422 106.555 124.159 102.675 125.89 98.323C126.034 97.9685 125.551 97.6622 125.358 98.0167C122.602 103.46 119.126 108.002 114.343 111.012C113.618 110.567 112.984 109.988 112.475 109.306L112.024 109.015C111.928 108.951 111.847 108.871 111.75 108.806C114.313 107.009 116.506 104.735 118.208 102.107C118.449 101.724 117.854 101.399 117.612 101.753C115.808 104.394 113.425 106.31 110.945 108.179C109.642 107.033 108.609 105.615 107.918 104.024C107.789 103.72 107.632 103.429 107.451 103.154C109.737 100.609 112.249 98.2748 114.681 95.875C114.739 95.8174 114.771 95.7391 114.771 95.6576C114.771 95.576 114.739 95.4978 114.681 95.4401C114.623 95.3824 114.545 95.35 114.464 95.35C114.382 95.35 114.304 95.3824 114.246 95.4401C111.847 97.6783 109.045 99.9012 106.839 102.494C103.183 100.158 101.927 97.5014 101.541 96.3904C101.487 96.2329 101.385 96.0966 101.249 96.0011C101.113 95.9056 100.95 95.8558 100.783 95.859C99.3179 95.9233 95.2757 96.1162 90.3644 96.5672C88.6898 98.4677 83.6812 103.508 77.8518 103.186C77.6447 103.171 77.4442 103.106 77.2676 102.996C77.091 102.887 76.9433 102.737 76.8373 102.558L74.5807 98.9348C70.5867 99.869 67.141 101.06 65.128 102.59C56.4157 109.209 54.6928 120.53 54.8674 129.291C47.8136 131.205 42.3227 132.399 40.4222 132.802C39.0707 130.637 37.6365 128.526 36.1227 126.472C35.2038 125.233 34.2383 123.993 33.1594 122.785C32.8431 122.401 32.4321 122.107 31.9672 121.931C31.6644 121.828 31.337 121.822 31.0309 121.915C30.7248 122.007 30.4554 122.193 30.2604 122.447C29.6647 123.236 30.3569 124.443 30.631 125.233C31.6616 128.276 32.8516 131.272 34.1096 134.038C34.6741 135.44 35.4389 136.753 36.38 137.936C36.8262 138.515 37.4073 138.976 38.0726 139.279C38.7379 139.582 39.4672 139.718 40.1971 139.675C40.8271 139.583 41.447 139.432 42.0486 139.224C42.2094 139.175 42.387 139.111 42.5478 139.063C46.8812 138.373 51.1982 137.584 55.4953 136.695C55.7694 138.596 56.0588 140.064 56.2365 140.898C56.2204 141.446 56.1882 142.01 56.1722 142.654C55.9784 142.731 55.7694 142.815 55.5435 142.895C52.6947 144.051 49.9336 145.413 47.2822 146.97C46.7669 147.276 46.0264 147.659 46.0747 148.371C46.1229 148.999 46.8151 149.273 47.3626 149.29C52.0547 149.539 56.7273 148.521 60.8905 146.343C61.4219 146.052 61.9051 145.779 61.9533 145.103C61.9335 144.563 61.8076 144.032 61.5827 143.54C61.1156 142.268 60.7128 141.157 60.3752 140.255C60.5038 139.482 60.8254 137.711 61.3093 135.408C73.7515 132.63 85.9246 128.761 97.6877 123.846C100.345 122.703 105.225 121.672 107.286 120.561C110.556 118.643 113.128 115.732 114.629 112.251C115.776 111.399 116.919 110.465 117.902 109.644ZM38.3808 138.441C36.8494 137.619 36.0293 135.945 35.3371 134.431C34.4029 132.418 33.566 130.373 32.7765 128.295C32.3094 127.055 31.8424 125.783 31.4235 124.527C31.2797 124.117 31.1457 123.703 31.0215 123.287C30.9894 123.11 30.9894 123.078 31.0215 123.013C31.0895 122.928 31.1869 122.87 31.2949 122.852C31.778 122.691 32.3898 123.432 32.9373 124.06C35.1441 126.637 37.0278 129.23 38.6381 131.5C39.0087 132.031 39.3629 132.547 39.7009 133.046L41.5531 138.473C40.4582 138.792 39.3954 139.018 38.3808 138.441ZM60.9426 144.142C61.0132 144.352 61.067 144.567 61.1034 144.786C61.1194 144.931 61.0551 145.075 61.0712 145.205C61.0712 145.414 60.2174 145.704 60.0758 145.768C56.2312 147.549 52.0229 148.404 47.7884 148.264C47.724 148.264 47.1283 148.216 47.3374 148.071C50.1849 146.357 53.1317 144.813 56.1622 143.449C56.4846 143.304 56.7748 143.208 56.8391 142.805C56.8739 142.397 56.8685 141.987 56.823 141.58L59.9311 140.774C59.9862 140.845 60.4969 142.772 60.9426 144.139V144.142ZM95.5015 112.755C87.2403 118.456 75.1458 123.11 64.324 126.507C64.3401 127.75 64.281 128.993 64.1471 130.228C63.9863 131.822 63.6961 132.466 63.3415 131.629C62.9573 130.131 62.9311 128.564 63.265 127.055C63.3288 126.738 63.415 126.426 63.523 126.122C65.131 120.469 67.3072 114.687 69.9481 111.853C73.7974 107.731 87.0343 108.214 94.5069 108.858C94.9444 108.9 95.3583 109.076 95.692 109.362C96.0258 109.648 96.2633 110.03 96.3721 110.456C96.4809 110.881 96.4556 111.33 96.2998 111.741C96.144 112.152 95.8653 112.505 95.5015 112.752V112.755Z" fill="#191919"/>
<path d="M90.6055 26.29C91.8839 26.0296 93.1988 26.0024 94.4869 26.2096C95.5757 26.5734 96.6453 26.9925 97.6914 27.4654C97.783 27.488 97.8794 27.4802 97.9662 27.4432C98.053 27.4062 98.1255 27.3421 98.1727 27.2604C98.2199 27.1788 98.2394 27.084 98.2281 26.9903C98.2168 26.8967 98.1755 26.8092 98.1102 26.741C95.8897 24.8405 93.0856 24.7601 90.3964 25.5159C90.2974 25.5468 90.2142 25.6148 90.1643 25.7058C90.1144 25.7967 90.1016 25.9034 90.1286 26.0035C90.1557 26.1036 90.2204 26.1894 90.3093 26.2428C90.3982 26.2962 90.5044 26.3132 90.6055 26.29Z" fill="#191919"/>
<path d="M92.958 30.0259C93.8118 29.9294 94.4557 30.3483 95.2444 30.4608C95.3357 30.4818 95.4314 30.473 95.5173 30.4356C95.6033 30.3982 95.6749 30.3342 95.7218 30.2531C95.7687 30.1719 95.7883 30.0779 95.7777 29.9847C95.7672 29.8916 95.7271 29.8043 95.6632 29.7357C94.8256 28.6729 92.6999 28.7219 91.6532 29.4294C91.0852 29.7906 90.6676 30.3456 90.4778 30.9915C90.301 31.7962 90.9128 32.3767 91.4733 32.8292C91.7795 33.0712 92.1976 32.6684 91.9082 32.395C91.7669 32.2976 91.6477 32.1715 91.5585 32.0249C91.4692 31.8783 91.4119 31.7146 91.3902 31.5443C91.3686 31.3741 91.383 31.2012 91.4327 31.0369C91.4824 30.8727 91.5661 30.7207 91.6785 30.591C92.0378 30.2773 92.484 30.0802 92.958 30.0259Z" fill="#191919"/>
<path d="M121.557 76.5982C121.541 76.2919 121.042 76.1801 120.994 76.5216C120.747 78.3634 120.337 80.1796 119.769 81.949C119.741 82.0515 119.755 82.1605 119.806 82.2535C119.857 82.3464 119.942 82.4162 120.043 82.4483C120.943 82.5179 121.849 82.4251 122.716 82.1741C123.827 81.949 124.954 81.7392 126.065 81.5141C126.58 81.4015 126.371 80.5952 125.84 80.7086C125.002 80.8862 124.181 81.0792 123.344 81.2729C122.482 81.5369 121.588 81.6829 120.687 81.707C121.303 80.0759 121.598 78.3413 121.557 76.5982Z" fill="#191919"/>
<path d="M120.913 69.1264C116.984 69.9311 114.826 74.9879 113.747 78.4183C113.729 78.4936 113.733 78.5725 113.759 78.6455C113.784 78.7186 113.83 78.7827 113.892 78.8303C113.953 78.8778 114.026 78.9068 114.103 78.9137C114.18 78.9206 114.258 78.9052 114.326 78.8693C115.987 77.9091 117.708 77.0591 119.48 76.3248C119.834 76.164 119.577 75.5836 119.206 75.697C117.673 76.1942 116.198 76.8585 114.81 77.6779C115.84 74.5208 117.741 70.3178 121.026 69.5774C121.085 69.5624 121.137 69.5244 121.169 69.4715C121.2 69.4187 121.21 69.3554 121.195 69.2956C121.18 69.2358 121.142 69.1844 121.089 69.1526C121.036 69.1209 120.973 69.1114 120.913 69.1264Z" fill="#191919"/>
<path d="M114.842 119.596C114.536 119.967 115.036 120.482 115.373 120.128C116.195 119.29 118.417 119.145 118.743 120.74C118.785 120.894 118.887 121.024 119.026 121.103C119.165 121.181 119.329 121.202 119.483 121.159C120.82 120.74 122.125 120.273 123.461 119.886C123.844 119.774 123.799 119.114 123.364 119.146C122.073 119.246 120.798 119.495 119.564 119.886C118.433 118.469 116.099 118.098 114.842 119.596Z" fill="#191919"/>
<path d="M119.673 124.572C120.092 124.363 119.77 123.815 119.383 123.863C117.258 124.186 114.89 124.314 113.071 122.978C112.748 122.736 112.458 123.236 112.668 123.494C114.198 125.458 117.58 125.571 119.673 124.572Z" fill="#191919"/>
<path d="M121.091 127.406C121.381 127.213 121.316 126.634 120.897 126.682C119.722 126.811 118.627 127.295 117.435 127.406C116.005 127.509 114.573 127.237 113.28 126.618C113.206 126.579 113.119 126.57 113.038 126.594C112.958 126.618 112.889 126.672 112.848 126.745C112.806 126.818 112.794 126.904 112.815 126.985C112.836 127.067 112.887 127.137 112.958 127.181C114.129 128.044 115.536 128.528 116.99 128.568C118.443 128.608 119.874 128.203 121.091 127.406Z" fill="#191919"/>
<path d="M126.195 127.697C122.975 129.114 120.205 130.223 116.598 129.726C116.243 129.678 116.066 130.176 116.436 130.289C119.805 131.256 124.069 130.902 126.598 128.244C126.656 128.186 126.691 128.109 126.697 128.027C126.704 127.945 126.68 127.864 126.632 127.797C126.583 127.731 126.512 127.685 126.432 127.666C126.352 127.648 126.268 127.659 126.195 127.697Z" fill="#191919"/>
<path d="M65.9658 27.4891C65.3872 27.5988 64.8633 27.9024 64.4806 28.35C64.0979 28.7976 63.8793 29.3623 63.8608 29.9509C63.868 30.386 63.9754 30.8137 64.1746 31.2006C64.3738 31.5876 64.6594 31.9235 65.0094 32.1822C65.2638 32.4278 65.5747 32.6072 65.9146 32.7047C66.2546 32.8021 66.6132 32.8147 66.9592 32.7412C67.3051 32.6677 67.6277 32.5105 67.8987 32.2832C68.1696 32.056 68.3807 31.7657 68.5133 31.4379C68.6966 31.0771 68.8016 30.6816 68.8212 30.2774C68.8409 29.8732 68.7748 29.4694 68.6274 29.0925C68.4215 28.57 68.0492 28.1299 67.5681 27.8401C67.0871 27.5503 66.524 27.4269 65.9658 27.4891Z" fill="#38A1FF"/>
</svg>
