<svg width="154" height="154" viewBox="0 0 154 154" fill="none" xmlns="http://www.w3.org/2000/svg">
<path d="M108.487 42.6656C107.951 42.8187 90.6623 55.1689 89.2319 56.254C87.8016 57.339 84.9868 61.1714 85.3528 61.5213C85.9195 62.0634 90.7649 60.3092 91.4135 59.9332C92.062 59.5573 110.131 46.7989 111.016 46.1871C111.901 45.5753 109.027 42.5132 108.487 42.6656Z" fill="#38A1FF"/>
<path d="M76.6 82.2323C68.9382 82.6718 61.9205 76.566 50.9738 73.1402C46.3795 73.9404 37.6756 73.4978 36.4252 70.6616C20.0604 73.0859 6.25609 83.449 4.11209 90.417C2.05768 97.0841 11.5548 110.261 16.1131 114.565C18.1254 103.121 20.9233 90.9354 25.3683 80.184C25.5934 79.6388 26.0965 79.9727 25.9258 80.4995C21.0559 95.4975 17.606 110.92 15.6215 126.563C24.2741 131.679 51.8398 132.874 60.7711 130.685C60.8439 126.909 61.3768 114.235 61.8684 104.429C58.0314 104.123 54.2036 103.675 50.4064 103.051C49.8 102.951 50.0672 102.31 50.6614 102.39C57.8024 103.348 72.2545 105.028 80.6008 102.741C85.7311 101.335 96.2627 95.9263 104.644 70.4281C102.22 68.6095 98.0982 67.0398 94.0376 66.5995C92.9288 69.7948 80.3696 82.0156 76.6 82.2323Z" fill="#38A1FF"/>
<path d="M72.4785 28.2947C76.6506 31.2158 80.3924 34.7078 83.5944 38.6686C84.102 39.2712 84.6664 38.7972 85.0492 38.3048C90.1382 31.7289 92.8595 27.8697 99.6621 22.2248C100.198 21.7823 99.5917 21.1345 99.0197 21.5357C94.3573 24.7931 87.1886 31.6577 84.1281 36.5062C80.8583 32.9637 77.1234 29.8809 73.0252 27.3421C72.2404 26.8628 71.7166 27.7878 72.4785 28.2947Z" fill="#38A1FF"/>
<path d="M77.0606 27.5734C78.3815 27.7265 87.9698 27.3214 89.4652 27.2946C90.211 27.2809 90.2661 26.0894 89.5081 26.1185C87.9989 26.1759 78.3286 26.3995 76.9733 26.64C76.4182 26.738 76.5637 27.5144 77.0606 27.5734Z" fill="#38A1FF"/>
<path d="M73.8969 56.7333C73.2315 56.4331 72.6848 57.3389 73.2912 57.7149C76.6839 59.8294 79.9244 62.1787 82.989 64.7457C83.914 65.5183 85.0518 64.0466 84.1376 63.2671C81.0472 60.6199 77.5999 58.4204 73.8969 56.7333Z" fill="#38A1FF"/>
<path d="M93.6142 41.2896C93.6471 38.4342 93.3684 35.3737 93.3531 32.5007C93.3531 31.7733 92.3408 31.895 92.3469 32.6217C92.3719 35.6647 92.3975 38.7053 92.4235 41.7437C90.1386 41.7437 79.829 42.0231 77.4768 42.465C77.2287 39.8531 77.11 37.2206 76.7256 34.6225C76.706 34.5196 76.6492 34.4276 76.566 34.364C76.4827 34.3005 76.379 34.2699 76.2746 34.2782C76.1702 34.2864 76.0725 34.3329 76.0003 34.4088C75.9281 34.4846 75.8864 34.5845 75.8833 34.6891C76.005 37.2405 76.113 39.847 76.3083 42.3983C76.4124 43.756 76.417 43.6656 77.7562 43.5684C82.3934 43.2307 87.1148 42.9558 91.7634 42.9137C93.105 42.9007 93.5943 42.9925 93.6142 41.2896Z" fill="#38A1FF"/>
<path d="M87.8496 51.7209C85.2852 51.7538 82.4896 51.7936 79.9397 52.0838C77.2789 52.3901 77.4665 52.6137 77.6548 55.0119C77.6983 55.6425 77.7791 56.27 77.8968 56.891C77.9108 57.0074 77.967 57.1145 78.0547 57.1923C78.1424 57.27 78.2555 57.313 78.3727 57.313C78.4899 57.313 78.603 57.27 78.6907 57.1923C78.7784 57.1145 78.8346 57.0074 78.8486 56.891C78.8486 56.4545 78.6365 53.4905 78.6955 53.4177C78.7544 53.345 86.8059 52.7799 87.6658 52.7209C88.407 52.6696 88.5885 51.7109 87.8496 51.7209Z" fill="#38A1FF"/>
<path d="M79.2668 63.4486C79.2409 63.3325 79.1737 63.2297 79.0776 63.1594C78.9816 63.0891 78.8634 63.0561 78.7448 63.0665C78.6263 63.0769 78.5156 63.13 78.4333 63.2159C78.351 63.3019 78.3027 63.4148 78.2974 63.5336C78.3312 65.121 78.4465 66.7055 78.6427 68.2811C78.6315 68.4301 78.6799 68.5775 78.7772 68.6909C78.8745 68.8043 79.0129 68.8744 79.1619 68.886C79.2384 68.8921 85.1046 68.7413 89.3949 68.3354C90.4921 68.2321 89.8252 67.2496 89.1828 67.2994C86.1521 67.5291 82.7584 67.6509 79.7155 67.7412C79.5945 66.2672 79.4911 64.8614 79.2668 63.4486Z" fill="#38A1FF"/>
<path d="M53.2287 49.5141C51.7501 49.4238 50.8711 51.2477 51.6651 51.4116C52.0771 51.4966 52.2103 50.4659 53.1621 50.4721C53.2891 50.4809 53.4145 50.4389 53.5105 50.3553C53.6066 50.2717 53.6655 50.1534 53.6744 50.0264C53.6832 49.8994 53.6412 49.774 53.5576 49.678C53.4741 49.5819 53.3558 49.523 53.2287 49.5141Z" fill="#191919"/>
<path d="M55.2955 47.8778C55.0749 47.4337 54.6829 47.7951 54.7863 48.217C55.4364 50.8136 56.1737 52.26 56.7258 55.1452C57.0229 56.6966 55.6056 55.7509 55.5619 56.9638C55.534 57.8624 55.443 58.758 55.2893 59.6438C54.6747 59.5359 54.1125 59.2292 53.689 58.7709C53.4164 58.4133 52.9439 58.7349 53.1683 59.2135C53.3696 59.5857 53.6575 59.9039 54.0078 60.1413C54.358 60.3786 54.7603 60.5282 55.1806 60.5772C54.6898 64.4823 52.6262 64.7059 49.3252 64.0229C48.7187 63.8981 48.1115 63.6822 47.4461 63.5926C47.1245 63.5497 46.2975 64.199 48.4584 64.8047C48.4584 65.8537 48.6881 71.2061 48.986 72.1877C49.1123 72.5997 49.7624 72.5507 49.7257 72.0844C49.5342 69.6593 49.4584 67.3928 49.4194 65.0229C56.0045 66.3691 55.8988 62.3383 56.4257 57.1744C57.7833 56.9799 57.8445 55.8566 57.6378 54.78C57.1746 52.3834 56.3865 50.0613 55.2955 47.8778Z" fill="#191919"/>
<path d="M36.6579 36.7681C34.8968 30.3973 28.075 23.803 18.8933 28.5918C9.71166 33.3805 10.9299 46.2667 15.8688 51.7209C18.9714 55.146 21.9302 59.1882 21.4753 62.3276C21.0205 65.467 25.8529 62.7395 23.336 52.4537C21.3245 44.2345 27.8935 37.3982 33.033 40.6165C33.9754 39.107 35.2074 37.799 36.6579 36.7681Z" fill="#191919"/>
<path d="M45.8217 51.933C47.1931 52.7469 55.717 45.8701 55.1925 44.2896C50.9811 31.6117 35.3191 34.8997 32.8084 43.968C29.9913 54.1436 38.3782 62.1246 38.9119 62.055C39.6875 61.9531 42.1279 60.388 43.0337 57.3389C43.4327 57.5724 43.8866 57.6955 44.3488 57.6955C44.8111 57.6955 45.265 57.5724 45.6639 57.3389C46.1846 57.0426 45.8087 56.4515 45.2581 56.6498C43.9166 57.1284 42.4701 56.0433 42.6156 53.7286C42.6189 53.3556 42.7208 52.9901 42.9108 52.6691C43.1008 52.3481 43.3723 52.0831 43.6978 51.9008C44.0232 51.7185 44.3911 51.6255 44.7641 51.6311C45.137 51.6368 45.5019 51.7409 45.8217 51.933Z" fill="#191919"/>
<path d="M38.4815 63.2365C37.9843 65.5306 37.7183 67.8688 37.6875 70.216C37.6971 70.3132 37.7408 70.4039 37.811 70.4719C37.8812 70.5399 37.9732 70.5808 38.0707 70.5873C38.1682 70.5939 38.2648 70.5656 38.3434 70.5075C38.422 70.4495 38.4775 70.3654 38.4999 70.2703C38.9639 68.0367 39.0359 65.6278 39.4456 63.3062C39.5428 62.7518 38.5857 62.6974 38.4815 63.2365Z" fill="#191919"/>
<path d="M54.136 52.6045C53.7868 51.3901 52.6367 51.3373 53.0877 53.0471C53.4982 54.5954 54.5043 53.8817 54.136 52.6045Z" fill="#191919"/>
<path d="M91.5709 52.4415C91.9361 52.0739 94.6337 51.8641 94.8382 51.799C95.303 51.6459 95.1958 50.9621 94.8076 50.8113C94.0258 50.505 91.8136 50.9445 91.0739 51.3473C90.3343 51.75 90.2102 53.1 89.5525 54.5173C89.2148 55.2448 88.7622 55.914 88.4674 56.6567C88.3243 57.0189 88.7615 57.2693 89.0739 57.0204C90.5647 55.8458 91.5525 52.4598 91.5709 52.4415Z" fill="#191919"/>
<path d="M89.7585 58.7877C89.6566 58.7827 89.5563 58.8139 89.4753 58.8759C89.3943 58.9379 89.3379 59.0266 89.3161 59.1263C89.2943 59.2259 89.3086 59.3301 89.3564 59.4202C89.4042 59.5103 89.4824 59.5806 89.5771 59.6185C94.8521 61.5512 94.5282 65.0681 95.2625 65.9035C95.421 66.0842 96.4585 66.4701 96.202 64.9846C95.6844 61.9876 92.8191 59.0289 89.7585 58.7877Z" fill="#191919"/>
<path d="M100.56 55.2478C102.61 60.2464 102.712 61.4799 102.578 66.8866C102.563 67.4931 103.472 67.7366 103.633 67.1164C104.565 63.5267 103.473 57.7746 101.323 54.7455C101.006 54.2983 100.371 54.7876 100.56 55.2478Z" fill="#191919"/>
<path d="M97.2021 56.842C97.0818 58.2004 96.2242 58.1897 95.3835 58.4424C94.3329 58.7578 94.9286 59.0481 95.3835 59.1576C95.7333 59.2562 96.1024 59.2653 96.4566 59.1839C96.8108 59.1025 97.1389 58.9332 97.4106 58.6918C97.6823 58.4503 97.8888 58.1443 98.0112 57.8021C98.1336 57.4598 98.1679 57.0923 98.111 56.7333C97.9839 56.1345 97.2534 56.2609 97.2021 56.842Z" fill="#191919"/>
<path d="M134.823 37.9434C135.987 37.8791 135.647 36.0965 134.495 36.1616C126.174 36.6333 117.711 36.131 109.645 36.6348C108.726 36.6915 108.888 38.0828 109.722 38.18C114.531 38.7405 130.126 38.2091 134.823 37.9434Z" fill="#191919"/>
<path d="M148.351 26.8276C138.436 26.4998 117.531 26.5978 108.318 27.5672C107.566 27.6438 107.36 29.0275 108.263 29.0221C118.81 28.9562 136.196 28.2495 148.521 28.6392C149.697 28.6775 149.503 26.8658 148.351 26.8276Z" fill="#191919"/>
<path d="M147.121 52.1872C135.113 53.1827 120.722 51.943 109.779 53.2661C108.912 53.371 109.13 54.8466 110.021 54.7976C119.791 54.2133 134.265 54.6329 147.17 54.0219C148.333 53.9629 148.303 52.0892 147.121 52.1872Z" fill="#191919"/>
<path d="M133.296 60.6974C127.682 60.362 115.258 60.3987 110.554 60.63C109.675 60.6736 109.548 62.156 110.463 62.2119C117.47 62.6423 125.118 62.6201 133.191 62.4547C134.144 62.4355 134.344 60.7594 133.296 60.6974Z" fill="#191919"/>
</svg>
