<svg width="154" height="154" viewBox="0 0 154 154" fill="none" xmlns="http://www.w3.org/2000/svg">
<path d="M95.2908 92.5252C95.9799 91.2572 95.8161 90.6783 97.5481 85.5886C98.3904 83.1092 99.2939 80.6337 100.328 78.2255C100.451 77.9406 100.041 77.6895 99.9019 77.9766C98.2074 81.4033 96.761 84.9472 95.5741 88.581C95.0823 89.7862 94.7547 91.052 94.6001 92.3445C94.6036 92.4242 94.6326 92.5007 94.6827 92.5628C94.7329 92.6249 94.8016 92.6693 94.8788 92.6895C94.956 92.7097 95.0377 92.7046 95.1118 92.6751C95.1859 92.6455 95.2486 92.593 95.2908 92.5252Z" fill="#191919"/>
<path d="M92.463 86.7088C89.5908 87.3765 88.8335 87.6698 85.3518 86.9339C85.07 86.8742 84.8625 87.2739 85.1512 87.4217C87.3327 88.5396 90.6007 88.6468 92.7202 87.3114C92.7874 87.2696 92.8373 87.2051 92.861 87.1296C92.8848 87.0541 92.8808 86.9727 92.8497 86.8999C92.8186 86.8272 92.7626 86.7679 92.6917 86.7329C92.6207 86.6978 92.5396 86.6893 92.463 86.7088Z" fill="#191919"/>
<path d="M104.714 67.3769C104.68 67.3259 104.628 67.2899 104.568 67.2762C104.508 67.2625 104.445 67.2721 104.392 67.303C104.339 67.3339 104.3 67.3839 104.283 67.4427C104.265 67.5015 104.271 67.5648 104.299 67.6196C105.019 69.1082 106.05 70.425 107.323 71.4811C108.596 72.5371 110.08 73.3079 111.676 73.7413C113.272 74.1747 114.942 74.2608 116.574 73.9936C118.206 73.7264 119.762 73.1122 121.137 72.1924C122.576 71.2598 124.526 69.6656 125.154 67.9044C125.634 68.3639 128.457 71.0079 128.479 71.0155C124.463 76.0692 119.122 80.0701 112.456 80.4085C106.07 80.7332 98.3673 77.5647 96.267 71.0377C96.2468 70.9858 96.2081 70.9432 96.1583 70.9182C96.1085 70.8931 96.0512 70.8875 95.9975 70.9022C95.9438 70.917 95.8974 70.9512 95.8674 70.9981C95.8374 71.0451 95.8259 71.1015 95.8351 71.1564C97.4286 79.6987 111.593 85.5465 122.85 77.9047C125.449 76.291 127.571 74.0127 128.995 71.305C129.6 70.0477 125.049 66.5805 124.671 66.9672C124.003 67.6517 123.573 68.5561 122.935 69.2789C121.947 70.3992 120.747 71.3125 119.404 71.9657C118.061 72.619 116.602 72.9992 115.111 73.0845C110.915 73.279 106.947 70.8471 104.714 67.3769Z" fill="#191919"/>
<path d="M126.359 66.2459C125.882 65.0085 126.541 64.1187 127.196 63.1432C127.224 63.089 127.236 63.0279 127.231 62.9671C127.225 62.9063 127.202 62.8483 127.165 62.8C127.128 62.7517 127.077 62.7151 127.02 62.6945C126.962 62.6739 126.9 62.6702 126.841 62.6838C125.336 63.2144 125.223 65.2566 125.837 66.4679C125.978 66.7451 126.475 66.5468 126.359 66.2459Z" fill="#191919"/>
<path d="M127.951 63.3193C128.62 62.7067 129.101 62.9076 129.393 63.9219C129.343 64.2236 129.595 64.6447 129.962 64.4924C130.511 64.2626 131.182 64.8392 130.51 65.3745C130.127 65.6808 130.544 66.3201 130.982 66.1777C131.663 66.3446 131.824 66.6762 131.482 67.1816C131.094 67.7512 130.427 67.9197 129.897 68.2581C129.811 68.3102 129.747 68.3915 129.716 68.4872C129.684 68.5829 129.689 68.6866 129.727 68.7795C129.766 68.8723 129.837 68.9481 129.927 68.9929C130.018 69.0378 130.121 69.0488 130.218 69.0239C131.357 68.8454 132.653 67.9358 132.645 66.6601C132.643 66.3679 132.557 66.0826 132.395 65.839C132.234 65.5954 132.005 65.4042 131.737 65.2887C131.794 65.071 131.799 64.843 131.752 64.6229C131.705 64.4028 131.608 64.1966 131.467 64.021C131.326 63.8453 131.146 63.705 130.942 63.6112C130.737 63.5175 130.514 63.4728 130.289 63.4809C130.232 63.183 130.085 62.9096 129.869 62.697C129.653 62.4845 129.377 62.3428 129.078 62.2909C128.78 62.239 128.472 62.2794 128.197 62.4066C127.922 62.5338 127.692 62.7419 127.538 63.0031C127.366 63.2534 127.744 63.5345 127.951 63.3193Z" fill="#191919"/>
<path d="M85.2292 65.059C85.0577 65.3308 85.4719 65.5613 85.6549 65.3079C87.1082 63.3193 89.0228 61.7135 91.2339 60.6286C93.4346 59.5306 95.6751 59.3108 98.0404 58.8751C98.1017 58.8556 98.1573 58.8213 98.2021 58.775C98.2468 58.7288 98.2795 58.6722 98.297 58.6103C98.3145 58.5484 98.3164 58.4831 98.3025 58.4202C98.2886 58.3574 98.2593 58.299 98.2173 58.2503C99.0205 57.0091 101.453 59.9548 101.973 60.5398C102.902 61.5971 103.661 62.7933 104.22 64.085C104.344 64.3668 104.714 64.1853 104.74 63.9441C104.796 63.1436 104.579 62.3479 104.124 61.6868C104.383 61.332 104.596 60.9462 104.759 60.5382C105.155 60.8366 105.617 61.0357 106.106 61.119C106.596 61.2022 107.098 61.1672 107.57 61.0168C108.396 60.7224 109.125 60.2056 109.676 59.5234C110.227 58.8412 110.579 58.0202 110.693 57.1507C111.469 57.6308 112.224 56.6607 112.394 56.0864C112.632 55.0272 112.722 53.9404 112.663 52.8566C112.663 52.4546 112.663 52.0534 112.646 51.6613C114.1 51.3244 115.113 49.8542 115.172 47.8955C115.202 46.9476 115.068 45.9506 114.136 45.4858C112.911 44.8733 111.907 45.9744 110.737 45.6864C109.332 45.3411 108.985 43.1366 107.557 42.9253C106.721 42.802 106.063 43.41 105.348 43.7025C104.554 44.0264 103.773 43.7385 102.994 44.0516C99.7923 45.3388 99.4424 52.0855 101.377 54.5297C100.715 55.3567 100.128 56.2405 99.6216 57.1706C98.4317 56.6063 97.509 57.2304 97.401 58.0742C93.7271 57.7886 88.263 60.2442 85.2292 65.059ZM102.146 54.9018C102.835 54.7992 104.335 52.8528 104.335 52.8528C104.335 52.8528 104.014 51.3397 104.636 50.8565C104.86 50.6729 105.136 50.5649 105.425 50.548C105.714 50.531 106.001 50.6061 106.244 50.7624C106.444 50.9109 106.606 51.1337 106.847 51.1636C107.471 51.2402 107.391 50.2654 108.01 50.1054C109.113 49.8213 109.465 51.4622 111.681 51.7264C111.681 52.0419 111.554 55.4378 111.522 55.5841C111.522 56.0144 111.237 56.1867 110.651 56.1201C110.268 56.0534 110.048 56.0435 109.968 56.1905C109.291 57.4432 109.338 58.8299 107.985 59.6929C107.674 59.9067 107.319 60.0501 106.947 60.1128C106.574 60.1756 106.192 60.1563 105.827 60.0562C105.463 59.9562 105.125 59.7779 104.836 59.5337C104.548 59.2895 104.316 58.9853 104.157 58.6423C104.08 58.4425 103.724 58.4417 103.756 58.6967C103.809 59.1538 103.972 59.5912 104.231 59.9716C103.989 60.2897 103.799 60.6443 103.669 61.0222C103.627 60.9663 101.932 58.385 100.187 57.4899C100.601 57.0458 101.877 55.2847 102.146 54.9018Z" fill="#191919"/>
<path d="M109.038 52.9646C108.722 53.211 108.498 53.556 108.401 53.9447C108.374 54.047 108.386 54.1552 108.432 54.2499C108.479 54.3446 108.558 54.4195 108.655 54.4609C108.752 54.5024 108.861 54.5077 108.961 54.476C109.062 54.4442 109.148 54.3774 109.204 54.2878C109.413 53.9794 109.524 53.6146 109.522 53.2418C109.515 53.0289 109.249 52.8023 109.038 52.9646Z" fill="#191919"/>
<path d="M108.151 52.8941C108.486 52.767 108.817 52.6476 109.139 52.4929C109.297 52.4433 109.443 52.3629 109.57 52.2563C109.696 52.1497 109.801 52.019 109.876 51.8719C109.896 51.7981 109.886 51.7196 109.848 51.6532C109.811 51.5867 109.748 51.5377 109.675 51.5166C109.356 51.4828 109.036 51.5709 108.78 51.7632C108.48 51.9353 108.19 52.1232 107.91 52.326C107.641 52.5136 107.797 53.0281 108.151 52.8941Z" fill="#191919"/>
<path d="M108.432 57.849C108.473 57.8057 108.503 57.7539 108.522 57.6973C108.54 57.6407 108.545 57.5808 108.538 57.5218C108.53 57.4628 108.509 57.4063 108.477 57.3563C108.445 57.3063 108.402 57.2641 108.352 57.2326C107.631 57.0624 106.873 57.1474 106.208 57.4731C106.162 57.5194 106.136 57.5818 106.136 57.6469C106.136 57.712 106.162 57.7744 106.208 57.8207C106.921 58.1006 107.712 58.1107 108.432 57.849Z" fill="#191919"/>
<path d="M118.124 51.332C119.31 50.8221 118.722 49.1459 116.72 50.1712C116.428 50.3043 116.165 50.4949 115.948 50.7317C115.731 50.9685 115.564 51.2467 115.457 51.5495C115.385 51.8221 117.509 51.5955 118.124 51.332Z" fill="#191919"/>
<path d="M117.231 53.4301C116.982 53.3405 116.869 53.6797 117.056 53.8459C118.205 54.8666 118.077 55.6071 118.42 55.7985C118.521 55.8565 118.64 55.873 118.753 55.8444C118.865 55.8158 118.962 55.7443 119.023 55.6453C119.298 55.166 119.268 54.1667 117.231 53.4301Z" fill="#191919"/>
<path d="M68.4088 66.6617C69.4135 65.8822 70.2014 64.8584 71.2872 64.1394C72.4945 63.316 73.8627 62.7579 75.3015 62.502C76.7403 62.246 78.217 62.2981 79.6342 62.6547C81.0079 62.9985 82.1281 63.7979 83.4498 64.2627C83.8326 64.3952 84.0072 63.9097 83.8058 63.6601C82.8571 62.4863 81.0316 61.899 79.6082 61.585C78.101 61.2516 76.5421 61.2255 75.0246 61.5084C71.5789 62.1532 68.817 64.5185 68.1079 66.1027C67.1523 65.4255 66.4615 64.4373 66.1538 63.3071C67.3897 61.9028 67.9732 60.2481 71.0804 58.3108C74.5882 56.1232 80.697 54.4631 86.4843 55.0412C89.4673 55.4249 92.3775 56.2464 95.1208 57.4793C95.3658 57.5796 95.4983 57.1982 95.2931 57.0673C87.7516 52.2433 76.3799 53.5994 70.3071 57.5413C68.3836 58.7909 65.9425 60.817 65.3222 63.1264C65.0803 64.0139 67.8139 67.6946 68.4088 66.6617Z" fill="#191919"/>
<path d="M61.9886 66.304C63.4435 66.4235 63.9397 67.0698 64.6219 67.2336C64.7032 67.2531 64.7883 67.2487 64.8671 67.2208C64.9459 67.193 65.0149 67.1429 65.0659 67.0767C65.1168 67.0104 65.1475 66.9308 65.1542 66.8475C65.1609 66.7642 65.1433 66.6808 65.1035 66.6073C65.0002 66.4341 64.8636 66.2831 64.7015 66.1631C65.0464 65.8095 65.3412 65.4101 65.5775 64.9763C65.5926 64.9135 65.5892 64.8477 65.5676 64.7869C65.5461 64.7261 65.5074 64.6727 65.4561 64.6335C65.4049 64.5942 65.3434 64.5705 65.2791 64.5655C65.2147 64.5604 65.1503 64.5741 65.0936 64.6049C64.8183 64.7798 64.5833 65.0114 64.4044 65.2841C64.2613 65.4587 64.1211 65.6356 63.9864 65.8163C63.3068 65.651 62.5988 65.64 61.9143 65.7841C61.6134 65.8461 61.7053 66.2811 61.9886 66.304Z" fill="#191919"/>
<path d="M66.8693 71.4191C67.1124 70.7967 67.1524 70.1134 66.9835 69.467C66.8146 68.8205 66.4455 68.2441 65.929 67.8202C65.8164 67.736 65.6663 67.8524 65.664 67.9734C65.6472 68.7529 66.0423 69.4734 66.0469 70.2483C66.0697 70.497 66.028 70.7475 65.926 70.9755C65.8239 71.2034 65.6649 71.4013 65.4642 71.55C65.159 71.67 64.8387 71.7473 64.5124 71.7797C64.444 71.7982 64.3816 71.8343 64.3316 71.8845C64.2817 71.9348 64.2458 71.9973 64.2277 72.0658C64.2096 72.1343 64.2099 72.2064 64.2286 72.2747C64.2472 72.3431 64.2836 72.4053 64.334 72.4551C65.2184 73.2109 66.491 72.3234 66.8693 71.4191Z" fill="#191919"/>
<path d="M63.189 72.2307C63.2646 71.867 63.4191 71.5244 63.6415 71.2269C63.8467 70.9451 64.2273 70.759 64.3682 70.4236C64.3987 70.3675 64.4143 70.3045 64.4135 70.2407C64.4128 70.1768 64.3957 70.1142 64.3639 70.0588C64.3322 70.0034 64.2867 69.957 64.232 69.9241C64.1773 69.8912 64.115 69.8729 64.0512 69.8708C63.4386 69.8095 62.4807 70.8233 62.581 72.1381C62.6063 72.4758 63.1186 72.596 63.189 72.2307Z" fill="#191919"/>
<path d="M63.3385 68.6717C62.1134 68.1257 60.9303 69.6089 60.5819 70.602C60.4418 71.004 61.0613 71.2613 61.2711 70.893C61.9656 69.6679 62.8584 69.6748 63.3944 69.1219C63.4249 69.0907 63.4479 69.0531 63.4618 69.0118C63.4758 68.9705 63.4802 68.9266 63.4748 68.8833C63.4695 68.8401 63.4544 68.7986 63.4308 68.762C63.4072 68.7253 63.3757 68.6945 63.3385 68.6717Z" fill="#191919"/>
<path d="M59.3699 69.4971C59.3554 69.5645 59.3648 69.6348 59.3964 69.696C59.4281 69.7572 59.48 69.8055 59.5433 69.8326C59.6067 69.8598 59.6775 69.8641 59.7436 69.8448C59.8098 69.8255 59.8671 69.7838 59.9059 69.7268C60.6847 68.4619 61.6357 68.4818 62.1495 67.9756C62.191 67.9326 62.2208 67.8796 62.2358 67.8217C62.2508 67.7638 62.2506 67.703 62.2352 67.6452C62.2198 67.5874 62.1897 67.5346 62.1478 67.4919C62.106 67.4491 62.0538 67.4179 61.9963 67.4013C61.2298 67.1249 59.7474 67.9657 59.3699 69.4971Z" fill="#191919"/>
<path d="M57.7066 67.788C58.1507 67.6395 58.3996 67.2076 58.8651 67.0989C59.1173 67.0412 59.3789 67.0391 59.6319 67.093C59.8849 67.1468 60.1231 67.2552 60.3299 67.4105C60.66 67.6556 60.9425 67.1555 60.7312 66.886C60.5141 66.5748 60.2125 66.3322 59.8621 66.1866C59.5117 66.041 59.127 65.9986 58.7533 66.0644C58.1147 66.1739 57.1721 66.667 57.2349 67.4304C57.2357 67.4875 57.2494 67.5437 57.2752 67.5946C57.3009 67.6456 57.3379 67.69 57.3834 67.7244C57.4289 67.7589 57.4816 67.7826 57.5377 67.7936C57.5937 67.8046 57.6514 67.8027 57.7066 67.788Z" fill="#191919"/>
<path d="M65.5451 75.5623C66.2342 76.0103 66.9808 75.0263 67.0765 74.4383C67.1845 73.7951 66.7633 72.8655 65.9938 72.9336C65.9442 72.9352 65.8958 72.9494 65.8532 72.975C65.8107 73.0005 65.7753 73.0366 65.7506 73.0796C65.7259 73.1227 65.7126 73.1713 65.712 73.221C65.7114 73.2706 65.7235 73.3196 65.7472 73.3632C65.8896 73.6396 66.1301 73.9337 66.0604 74.2713C65.9838 74.645 65.5443 74.6733 65.3935 75.0003C65.3428 75.0958 65.3303 75.2069 65.3585 75.3112C65.3866 75.4155 65.4533 75.5053 65.5451 75.5623Z" fill="#191919"/>
<path d="M100.605 65.752C101.232 65.7604 102.581 66.1793 103.295 66.0629C103.296 66.1966 103.335 66.3273 103.405 66.4408C103.476 66.5543 103.577 66.646 103.696 66.7061C103.963 66.8291 104.259 66.8752 104.551 66.8394C104.843 66.8035 105.119 66.6871 105.349 66.5031C105.578 66.3191 105.752 66.0749 105.85 65.7978C105.948 65.5207 105.967 65.2216 105.905 64.9342C105.684 64.1547 104.144 64.0651 103.477 65.2596C102.449 64.0207 99.736 63.0215 98.3623 62.9901C92.3415 62.8522 90.6033 65.3906 86.4585 67.1249C82.3137 68.8593 80.6345 66.3355 80.0939 66.0904C78.8887 65.5437 74.1076 66.1425 73.7936 66.5782C73.4391 67.0706 74.5785 71.3823 75.374 71.9765C75.642 72.1771 81.0924 73.4926 83.7854 73.2721C91.745 72.6212 92.7113 68.2306 97.7934 66.2413C98.6901 65.8976 99.645 65.7315 100.605 65.752Z" fill="#191919"/>
<path d="M121.703 141.895C118.627 144.176 115.801 139.849 112.967 139.308C110.179 138.777 108.306 141.732 108.525 144.219C106.611 144.542 85.9736 144.142 81.2239 144.147C76.4742 144.151 62.8766 144.292 61.14 143.385C59.4723 142.515 58.9746 140.5 57.3466 139.6C55.7509 138.717 53.8826 139.186 52.185 139.398C50.1521 139.65 48.0996 139.12 46.4421 137.917C44.1036 136.225 43.1396 133.418 41.1342 131.42C40.3873 130.571 39.3356 130.051 38.2076 129.973C36.6892 129.973 35.7428 131.065 34.8232 132.123C31.9395 135.438 27.8858 133.071 25.8138 130.14C24.0764 127.682 22.5978 124.55 19.4897 123.615C18.7183 123.373 17.8981 123.33 17.1056 123.489C16.313 123.649 15.5737 124.007 14.9564 124.529C14.3391 125.051 13.8639 125.721 13.5749 126.476C13.286 127.232 13.1926 128.047 13.3035 128.848C11.922 128.543 10.4778 128.715 9.20601 129.335C7.9342 129.954 6.90956 130.986 6.29878 132.263C5.87871 133.155 5.746 134.155 5.91896 135.126C6.09192 136.097 6.56203 136.99 7.26434 137.682C6.53022 137.793 5.8406 138.103 5.27018 138.579C4.69976 139.054 4.27029 139.676 4.0283 140.378C3.78631 141.08 3.74102 141.835 3.89735 142.561C4.05367 143.287 4.40564 143.956 4.91513 144.497C5.35082 145.003 6.07136 144.267 5.64409 143.765C5.19653 143.246 4.93489 142.592 4.90056 141.908C4.86623 141.223 5.06118 140.547 5.45455 139.985C5.84793 139.424 6.41727 139.01 7.07249 138.808C7.72771 138.607 8.43139 138.63 9.07219 138.873C9.6258 139.071 10.0217 138.151 9.47419 137.917C7.30492 136.991 6.21684 134.777 7.30875 132.571C7.90544 131.418 8.9099 130.529 10.1263 130.077C11.3428 129.625 12.684 129.642 13.8885 130.125C13.9777 130.148 14.0715 130.148 14.1604 130.124C14.2494 130.099 14.3305 130.052 14.3957 129.987C14.4609 129.922 14.5079 129.841 14.532 129.752C14.5561 129.663 14.5566 129.569 14.5333 129.48C13.1887 125.618 17.6689 122.477 21.3772 125.909C23.4638 127.84 24.4761 130.643 26.5129 132.623C28.5971 134.648 32.2389 135.804 34.6968 133.754C35.8255 132.812 36.6708 130.879 38.3906 131.035C41.3279 131.299 42.6786 136.989 46.7147 139.349C48.2173 140.239 49.9585 140.642 51.6995 140.504C53.5441 140.347 55.9109 139.5 57.4355 140.964C58.5251 142.009 58.8651 143.543 60.9945 144.468C62.4991 145.122 74.8823 145.194 79.423 145.192C84.5732 145.192 107.087 145.644 109.245 145.133C109.377 145.093 109.488 145.004 109.555 144.884C109.623 144.765 109.642 144.624 109.609 144.49C109.403 143.625 109.519 142.715 109.935 141.929C110.351 141.143 111.038 140.535 111.869 140.218C113.222 139.791 114.541 140.823 115.606 141.524C117.474 142.754 120.013 143.974 122.033 142.327C122.278 142.13 121.958 141.706 121.703 141.895Z" fill="#191919"/>
<path d="M93.1966 92.5819C89.9828 93.2207 86.6962 93.4127 83.4299 93.1524C80.2423 92.8813 75.2919 91.8185 74.3218 90.4586C75.1411 87.8483 75.7077 85.1384 76.5913 82.5319C78.2759 77.5609 79.1534 76.2913 79.7805 74.2714C79.7979 74.1998 79.7891 74.1244 79.7559 74.0587C79.7227 73.9929 79.6672 73.9412 79.5994 73.9126C79.5315 73.8841 79.4557 73.8806 79.3855 73.9028C79.3153 73.9251 79.2553 73.9716 79.2162 74.034C75.8065 79.3442 74.2613 89.6423 72.4603 92.8767C71.1369 95.2593 69.6122 97.5244 67.9028 99.6472C65.4732 102.356 62.5972 104.297 59.6691 106.385C56.8145 106.429 50.1382 107.54 41.3486 103.887C40.9045 103.34 37.667 101.878 36.8018 102.152C36.1785 102.352 32.9854 106.168 32.0275 107.709C31.683 108.261 29.6982 111.608 29.9126 112.281C29.9543 112.382 30.0265 112.467 30.119 112.525C30.2116 112.583 30.3199 112.61 30.4287 112.603C30.6179 112.603 33.8499 111.173 35.948 110.238C35.4828 109.699 35.1407 109.066 34.9457 108.382C34.9235 108.14 35.2129 108.026 35.3974 108.122C35.9636 108.611 36.4252 109.209 36.7543 109.88C36.7711 109.873 36.8209 109.849 37.4611 109.574C37.0667 109.023 36.3791 107.966 36.4962 107.575C36.5178 107.5 36.5628 107.434 36.6246 107.387C36.6864 107.34 36.7616 107.314 36.8393 107.313C37.4235 107.384 37.9932 108.591 38.2941 109.211C38.4473 109.144 38.5966 109.076 38.7452 109.008C38.5509 108.369 38.4133 107.714 38.334 107.051C38.3587 106.964 38.4165 106.89 38.4949 106.846C38.5734 106.801 38.6663 106.789 38.7536 106.812C39.2069 106.932 39.5392 107.912 39.6441 108.573C39.7986 108.498 39.9451 108.407 40.0813 108.302C42.153 110.045 44.4929 111.441 47.0103 112.437C59.8046 117.882 74.0239 114.33 82.335 105.827C82.6788 105.471 82.1642 104.971 81.799 105.291C71.5644 114.142 59.4868 116.081 48.4904 111.938C45.7015 110.79 43.0279 109.38 40.5055 107.727C40.9665 106.754 41.3755 105.757 41.7307 104.741C46.8173 107.008 55.0212 108.67 60.3038 106.915C60.4669 106.859 66.4962 102.771 68.7389 100.258C69.967 98.8858 71.0706 97.407 72.0369 95.8393C72.9724 94.4868 73.7194 93.0133 74.2574 91.4594C77.6917 93.9173 84.4185 94.3898 88.6154 94.1003C90.1016 93.9962 92.0297 93.9211 93.3697 93.1983C93.4306 93.16 93.4775 93.1029 93.5034 93.0358C93.5293 92.9686 93.5328 92.8948 93.5133 92.8255C93.4939 92.7562 93.4525 92.695 93.3954 92.6511C93.3384 92.6072 93.2686 92.5829 93.1966 92.5819Z" fill="#191919"/>
<path d="M134.689 132.271C134.443 132.053 134.122 131.939 133.793 131.956C131.265 131.968 128.758 132.408 126.377 133.257C108.894 112.529 96.9187 95.8446 95.2027 93.7725C95.0396 93.5719 94.718 93.8292 94.8513 94.0421C96.9953 97.5184 104.828 107.929 106.6 110.258C112.553 118.076 119.081 126.219 125.436 133.625C125.265 133.701 121.644 136.26 121.441 136.507C120.449 135.341 119.356 134.265 118.174 133.291C114.506 129.908 85.4782 103.09 81.5355 99.9702C81.3058 99.7872 80.9934 100.074 81.204 100.302C84.0509 103.342 97.2548 115.493 116.939 133.558C118.255 134.767 119.549 136.228 121.1 137.143C120.814 138.333 122.299 140.742 124.255 140.694C125.117 140.672 134.699 133.464 134.805 133.161C134.866 133.015 134.888 132.857 134.867 132.7C134.847 132.544 134.785 132.396 134.689 132.271ZM128.531 135.362C128.514 135.416 128.484 135.466 128.443 135.506C128.401 135.546 128.35 135.574 128.295 135.589C128.239 135.604 128.181 135.604 128.125 135.59C128.07 135.576 128.019 135.548 127.977 135.509C127.695 134.911 127.513 134.271 127.437 133.614C127.417 133.533 127.43 133.446 127.473 133.374C127.516 133.302 127.585 133.249 127.666 133.227C127.747 133.204 127.833 133.214 127.907 133.254C127.981 133.295 128.036 133.362 128.061 133.442C128.323 134.052 128.482 134.7 128.534 135.362H128.531ZM129.818 134.775C129.807 134.815 129.786 134.852 129.758 134.883C129.73 134.914 129.696 134.938 129.657 134.954C129.619 134.97 129.577 134.977 129.536 134.975C129.494 134.972 129.454 134.961 129.417 134.94C129.186 134.729 129.007 134.467 128.894 134.174C128.781 133.882 128.738 133.568 128.766 133.256C128.748 132.818 129.379 132.776 129.493 133.157C129.754 133.654 129.867 134.216 129.821 134.775H129.818ZM131.24 134.27C131.227 134.318 131.203 134.363 131.17 134.4C131.137 134.438 131.096 134.468 131.049 134.487C131.003 134.506 130.953 134.515 130.903 134.512C130.853 134.509 130.804 134.495 130.76 134.47C130.35 134.114 130.082 133.622 130.005 133.084C129.973 132.988 129.977 132.883 130.019 132.79C130.061 132.698 130.136 132.624 130.23 132.585C130.323 132.545 130.428 132.543 130.524 132.577C130.619 132.612 130.698 132.682 130.744 132.773C131.088 133.194 131.265 133.726 131.243 134.27H131.24Z" fill="#191919"/>
<path d="M71.422 80.6299C65.247 76.328 59.603 71.3103 54.6077 65.6816C53.567 64.5108 52.3258 63.2091 50.7599 63.2834C49.2454 63.3561 37.3515 76.5907 38.2719 78.2914C39.1923 79.992 41.981 82.5189 42.8968 83.306C45.877 85.8628 58.4998 96.788 59.666 97.288C60.1589 97.5532 60.7327 97.6262 61.2763 97.4926C61.82 97.3591 62.2947 97.0286 62.6086 96.5651C63.4662 95.4679 74.9466 83.084 71.422 80.6299ZM56.7624 74.2874C55.6238 73.3617 51.3725 68.4749 50.7132 68.3769C49.5562 68.2061 48.3395 70.1625 47.6787 70.9658C46.7507 72.0845 45.8188 73.217 44.9773 74.4038C44.7966 74.6573 44.3808 74.426 44.5515 74.155C45.547 72.5822 46.5477 71.0439 47.691 69.5699C48.4 68.6441 49.2277 67.3225 50.5149 67.2383C51.8932 67.1479 52.8511 68.6074 53.6543 69.4971C54.9898 70.8515 56.2222 72.3038 57.3413 73.8418C57.5939 74.217 57.0618 74.5325 56.7624 74.2874Z" fill="#191919"/>
<path d="M96.5061 23.9072C96.7868 23.6349 97.001 23.3015 97.1321 22.9329C97.2631 22.5643 97.3074 22.1705 97.2616 21.782C97.2157 21.3935 97.0809 21.0209 96.8677 20.6929C96.6545 20.365 96.3685 20.0906 96.0321 19.8911C94.8613 19.1659 93.6224 19.3612 92.3245 19.4171C91.3206 19.46 84.7378 19.5465 82.7691 20.6422C82.2423 20.982 81.8702 21.5154 81.7334 22.1272C81.5966 22.7389 81.7059 23.38 82.0379 23.9118C74.9465 24.643 68.0221 26.5274 61.5382 29.4908C53.995 33.0658 47.2898 38.1899 41.8593 44.5294C29.856 58.1722 23.4661 75.5761 28.4226 93.359C29.0703 95.693 29.9518 97.9556 31.0536 100.113C32.402 102.747 36.9434 100.917 35.8998 98.0705C32.7152 89.3896 31.3384 83.0862 32.9571 73.9398C35.0544 62.0995 41.8379 51.8321 50.5808 43.5754C58.6139 35.9887 68.8217 31.1853 80.7224 29.6677C91.3344 28.3147 102.066 29.8806 108.719 32.3952C121.997 37.4121 132.857 48.4637 137.433 57.568C142.297 67.2344 143.388 74.9199 143.627 78.5348C143.757 80.479 143.828 87.4937 140.3 101.353C139.304 105.258 137.634 108.437 135.724 112.06C133.976 115.352 132.015 118.527 129.856 121.566C128.8 122.907 127.805 124.29 126.687 125.583C125.668 126.76 126.965 128.74 128.428 127.84C135.282 123.628 140.067 116.436 143.212 109.162C146.719 101.28 148.768 92.8283 149.261 84.2157C150.531 56.6124 129.573 27.4525 96.5061 23.9072Z" fill="#38A1FF"/>
<path d="M110.272 132.576C105.899 132.849 103.186 135.397 93.4374 136.26C75.5418 137.843 56.1609 131.526 43.0457 117.053C41.9542 116 41.0239 114.791 40.2845 113.467C39.7677 112.375 38.2523 113.191 38.4468 114.24C39.1099 117.78 41.1169 120.87 43.4462 123.555C51.3032 132.606 61.0362 137.607 72.7156 140.303C84.9372 143.123 96.8762 142.421 106.765 139.21C108.658 138.723 110.422 137.832 111.937 136.599C113.423 135.27 112.288 132.45 110.272 132.576Z" fill="#38A1FF"/>
<path d="M55.7001 47.2446C54.5094 46.3426 52.9566 45.0654 51.4037 45.083C51.1321 45.0892 50.8653 45.1566 50.6233 45.2802C50.3814 45.4038 50.1704 45.5804 50.0061 45.7969C49.8419 46.0133 49.7285 46.264 49.6746 46.5303C49.6207 46.7966 49.6275 47.0717 49.6946 47.335C49.9265 48.136 50.3569 48.8656 50.9458 49.456C52.471 51.26 54.1778 52.9021 56.0393 54.3566C56.5313 54.6394 57.1023 54.7533 57.6651 54.6809C58.228 54.6084 58.7515 54.3536 59.1558 53.9553C59.5634 53.556 59.8246 53.0312 59.8976 52.4653C59.9705 51.8994 59.8508 51.3254 59.5578 50.8358C58.4426 49.4676 57.1446 48.2592 55.7001 47.2446Z" fill="#38A1FF"/>
<path d="M88.1859 44.2362C88.3183 44.557 88.5179 44.8457 88.7713 45.0828C89.0246 45.32 89.3259 45.5001 89.6547 45.6111C89.9835 45.722 90.3323 45.7612 90.6776 45.726C91.0228 45.6908 91.3565 45.582 91.6562 45.4069C93.6164 44.2186 92.9349 40.4727 92.3369 38.2674C91.8775 36.5829 90.4525 32.1417 87.967 34.2344C87.0435 35.0124 87.1139 36.3539 87.2012 37.4504C87.4968 41.4314 87.6515 43.0463 88.1859 44.2362Z" fill="#38A1FF"/>
<path d="M127.704 87.653C129.262 87.5442 136.798 87.692 137.32 87.5887C139.086 87.241 139.471 84.4439 137.835 83.6544C137.306 83.3994 128.939 83.5373 127.23 84.1445C126.818 84.265 126.463 84.5288 126.228 84.8882C125.994 85.2476 125.895 85.6791 125.951 86.1047C126.005 86.5318 126.213 86.9246 126.535 87.2095C126.858 87.4945 127.274 87.6521 127.704 87.653Z" fill="#38A1FF"/>
<path d="M129.865 109.65C130.909 109.211 131.827 108.185 131.403 106.94C130.781 105.112 124.307 103.454 122.81 103.456C120.895 103.46 120.761 105.983 122.382 106.612C123.469 107.037 128.367 110.28 129.865 109.65Z" fill="#38A1FF"/>
<path d="M86.1066 126.409C86.0492 128.139 85.8363 130.423 86.7698 131.94C87.6335 133.344 90.1083 133.642 90.8862 131.94C91.7209 130.113 91.2752 128.065 90.995 126.139C90.7614 124.531 90.5455 122.687 89.6756 121.279C89.1014 120.349 87.4551 120.147 86.9344 121.279C86.323 122.918 86.0417 124.661 86.1066 126.409Z" fill="#38A1FF"/>
<path d="M61.4747 124.929C62.3829 124.073 66.9993 120.628 66.945 119.07C66.947 118.769 66.8691 118.473 66.7193 118.212C66.5694 117.951 66.3529 117.734 66.092 117.584C63.0666 116.268 60.2626 119.972 58.6025 122.058C58.232 122.441 58.0269 122.954 58.0313 123.487C58.0358 124.02 58.2495 124.53 58.6264 124.906C59.0033 125.283 59.5131 125.496 60.046 125.501C60.5788 125.505 61.092 125.299 61.4747 124.929Z" fill="#38A1FF"/>
<path d="M43.1741 87.1989C44.5524 86.561 43.9498 84.695 42.7913 84.2631C40.6405 84.0012 38.47 83.9407 36.308 84.0824C35.8399 84.2117 35.4352 84.5076 35.1701 84.9145C34.9049 85.3213 34.7977 85.8111 34.8684 86.2915C34.9372 86.7689 35.1735 87.2064 35.5351 87.5257C35.8968 87.8449 36.3601 88.0252 36.8424 88.0342C38.9725 87.9321 41.0904 87.6527 43.1741 87.1989Z" fill="#38A1FF"/>
<path d="M80.335 16.8458C83.8488 19.0664 91.8398 17.479 96.673 17.0188C99.9993 16.7018 100.489 12.1642 100.1 10.9934C99.7512 9.76445 98.9483 8.71404 97.8538 8.0554C96.611 7.40148 89.4906 8.0554 88.3888 8.11359C85.7532 8.25908 82.7049 7.95432 80.335 9.24455C77.3318 10.8732 77.6351 15.136 80.335 16.8458Z" fill="#38A1FF"/>
</svg>
