<svg width="154" height="154" viewBox="0 0 154 154" fill="none" xmlns="http://www.w3.org/2000/svg">
<path d="M4.04309 88.607C3.72531 89.143 3.74139 89.5772 4.2215 89.6522C5.71464 89.8819 24.2641 89.5174 27.2236 89.4746C27.9617 89.4746 27.9946 88.7517 27.6547 88.0519C25.1967 82.9354 20.7219 75.0654 17.035 70.8501C16.8137 70.5966 16.3879 70.4619 15.9568 71.0385C11.6233 76.6406 7.64427 82.5082 4.04309 88.607ZM17.45 85.5985C17.636 87.0534 15.2508 87.1192 15.6605 85.5342C15.7 85.3207 15.8149 85.1286 15.9842 84.9928C16.1535 84.857 16.3661 84.7865 16.583 84.7943C16.7999 84.8021 17.0068 84.8876 17.166 85.0353C17.3251 85.1829 17.4259 85.3828 17.45 85.5985ZM17.0403 82.1758C17.0403 83.5127 15.7087 84.0947 15.7386 81.4369C15.7386 80.1596 15.7386 78.8817 15.8037 77.6083C15.8573 76.5309 16.5258 76.5309 16.7685 76.9031C17.1804 77.5447 17.0373 81.1566 17.0403 82.1758ZM5.07833 88.715C8.28055 83.626 13.4828 76.1167 16.6843 71.8792C20.3398 77.5172 23.5757 82.224 26.539 88.3536C19.666 88.4608 11.9567 88.6384 5.07833 88.715Z" fill="#38A1FF"/>
<path d="M129.372 29.7183C125.733 35.9014 121.345 43.3786 118.305 49.7938C118.003 50.424 118.197 50.8229 118.683 50.8719C119.984 51.0251 141 49.8367 144.019 49.6805C144.746 49.6422 144.827 48.8665 144.288 47.966C140.532 41.5706 136.248 35.5003 131.48 29.8186C130.707 28.9258 130.197 28.317 129.372 29.7183ZM132.698 46.149C132.722 46.3175 132.703 46.4893 132.644 46.6486C132.584 46.8079 132.485 46.9497 132.356 47.0608C132.227 47.172 132.073 47.2489 131.906 47.2847C131.74 47.3205 131.567 47.3138 131.404 47.2654C130.326 47.0227 130.995 45.8741 131.021 45.7937C131.28 45.0242 132.588 45.3305 132.698 46.149ZM131.539 35.8532C131.775 37.0232 132.218 41.4544 132.256 42.6619C132.295 43.8695 130.989 44.0364 130.844 43.0877C130.606 41.4705 130.246 37.4107 130.493 35.9014C130.518 35.7845 130.581 35.6792 130.672 35.6019C130.764 35.5246 130.878 35.4797 130.997 35.4742C131.117 35.4686 131.235 35.5028 131.333 35.5714C131.431 35.64 131.503 35.7391 131.539 35.8532ZM119.189 49.9117C122.736 43.0203 126.763 36.5699 130.358 30.1172C135.938 36.7537 138.763 41.2201 143.329 48.6184C135.846 49.012 127.631 49.6698 119.189 49.9117Z" fill="#38A1FF"/>
<path d="M139.992 58.591C124.731 58.601 127.189 76.181 138.914 77.0983C152.175 78.1328 152.994 58.5833 139.992 58.591ZM145.97 64.2405C145.893 64.5904 142.957 67.507 140.245 72.2246C140.16 72.3797 140.016 72.4944 139.845 72.5436C139.675 72.5929 139.492 72.5726 139.337 72.4872C139.2 72.4106 135.52 69.1831 134.192 67.9549C133.76 67.556 134.316 66.6716 134.832 67.0759C136.417 68.3102 137.944 69.6204 139.496 70.8983C141.049 68.3157 142.836 65.8808 144.833 63.6241C144.936 63.5205 145.07 63.4531 145.214 63.432C145.359 63.4109 145.506 63.4373 145.634 63.5071C145.762 63.577 145.864 63.6865 145.925 63.8193C145.985 63.9521 146.001 64.101 145.97 64.2435V64.2405Z" fill="#38A1FF"/>
<path d="M122.009 115.853C110.025 116.461 109.243 136.666 123.475 135.944C137.706 135.222 136.779 115.102 122.009 115.853ZM127.684 130.343C126.995 130.343 123.766 127.405 123.038 126.775C122.148 127.664 120.084 129.838 119.265 130.419C119.16 130.49 119.033 130.522 118.908 130.508C118.782 130.494 118.665 130.435 118.579 130.343C118.493 130.25 118.443 130.129 118.438 130.003C118.433 129.876 118.474 129.752 118.553 129.653C119.663 128.343 120.844 127.094 122.089 125.912C121.108 125.044 119.059 123.341 118.451 122.376C118.144 121.896 118.801 121.475 119.21 121.702C120.534 122.727 121.804 123.819 123.017 124.974C123.609 124.376 126.38 121.427 127.027 121.092C127.496 120.85 127.975 121.475 127.766 121.901C127.48 122.468 124.531 125.27 123.992 125.831C125.293 126.813 126.54 127.864 127.728 128.979C128.213 129.533 128.752 130.342 127.684 130.342V130.343Z" fill="#38A1FF"/>
<path d="M94.4242 22.3115C94.6294 26.9211 96.2619 30.8776 102.391 31.239C103.646 31.3455 104.91 31.1872 106.1 30.7744C107.29 30.3615 108.38 29.7033 109.299 28.8425C110.218 27.9816 110.947 26.9372 111.437 25.7769C111.927 24.6166 112.167 23.3664 112.144 22.1071C112.095 17.4171 109.745 13.6077 103.519 13.3634C97.5521 13.1306 94.1944 17.1422 94.4242 22.3115ZM106.321 26.2305L103.295 23.0665C102.028 24.2312 100.799 25.4441 99.4893 26.5651C99.3784 26.6363 99.2462 26.667 99.1152 26.652C98.9842 26.637 98.8625 26.5771 98.7705 26.4827C98.6785 26.3882 98.622 26.2648 98.6106 26.1335C98.5991 26.0021 98.6334 25.8708 98.7076 25.7618C99.3002 24.9908 101.554 22.9157 102.405 22.1017C101.869 21.519 99.3814 19.0932 99.1708 18.3819C99.1333 18.2578 99.1708 16.9531 100.855 18.6353C101.698 19.4776 102.521 20.3444 103.356 21.1959C104.175 20.3453 105.037 19.5375 105.939 18.7755C106.72 18.1828 107.454 19.1154 106.58 19.9616C105.814 20.6997 105.044 21.4225 104.273 22.15L107.313 25.3093C107.437 25.4413 107.503 25.617 107.497 25.7978C107.491 25.9786 107.414 26.1497 107.282 26.2733C107.15 26.397 106.974 26.4632 106.794 26.4573C106.613 26.4514 106.442 26.374 106.318 26.2419L106.321 26.2305Z" fill="#38A1FF"/>
<path d="M39.9884 37.9879C39.7832 33.3845 37.0236 29.1057 29.665 29.1057C24.0478 29.1057 20.7828 32.9871 21.04 38.5393C21.2973 44.0914 25.0217 47.1321 30.2853 47.3855C31.5612 47.4961 32.846 47.3314 34.0527 46.9025C35.2594 46.4736 36.36 45.7905 37.28 44.8995C38.1999 44.0086 38.9178 42.9304 39.3851 41.738C39.8523 40.5456 40.0581 39.2667 39.9884 37.9879ZM35.3941 35.2222C34.1031 36.4328 32.8443 37.6801 31.5655 38.9099C32.3205 39.7881 33.0158 40.7261 33.8298 41.5508C35.2907 43.0493 34.1207 43.9873 33.4959 43.2492L30.5954 39.831C29.5267 40.9254 28.3888 41.95 27.1887 42.8985C26.7737 43.1787 26.2124 42.5861 26.5042 42.1871C27.5135 41.005 28.5936 39.8853 29.7385 38.8341C28.9407 37.8853 26.5042 35.0981 25.9973 34.2398C25.6358 33.6142 26.4766 33.2152 26.8809 33.6035C28.2071 34.8868 29.4797 36.4933 30.6926 37.916C31.943 36.7031 33.1827 35.4657 34.4661 34.2826C35.5572 33.2711 35.8903 34.7582 35.3956 35.2229L35.3941 35.2222Z" fill="#38A1FF"/>
<path d="M48.4136 65.157C42.9533 65.157 40.441 69.2429 41.0068 74.472C41.5727 79.701 44.2412 81.4805 49.0017 81.4805C53.7621 81.4805 56.7354 78.8174 56.6833 73.9329C56.6312 69.0484 53.3142 65.157 48.4136 65.157ZM51.553 76.704C51.017 76.5424 49.3968 74.2889 48.8194 73.6473C47.7413 74.6014 46.7175 75.583 45.6233 76.4988C45.1379 76.9031 44.3982 76.1542 44.8522 75.6956C45.8477 74.6664 46.9197 73.7047 47.9572 72.7146C47.1793 71.9935 46.4733 71.1986 45.8492 70.3409C45.7956 70.1954 45.8492 68.9879 47.3699 70.3409C47.9059 70.8203 48.3883 71.3432 48.9013 71.8394L50.5614 70.3026C51.0308 69.8715 52.246 69.2245 52.1036 70.3026C52.0385 70.8386 50.4106 72.1733 49.7582 72.7774C50.2061 73.2843 52.2085 75.4727 52.184 76.1627C52.1861 76.2424 52.1703 76.3216 52.1379 76.3945C52.1056 76.4674 52.0573 76.5321 51.9967 76.584C51.9361 76.6359 51.8647 76.6736 51.7877 76.6943C51.7106 76.7151 51.6299 76.7184 51.5515 76.704H51.553Z" fill="#38A1FF"/>
<path d="M73.2329 71.9007C71.5024 71.9007 69.4595 71.7338 68.5375 73.5179C68.3224 73.9222 68.9793 74.2407 69.2267 73.8847C70.1272 72.6128 72.6609 72.9306 74.138 72.9306C76.0171 72.9875 77.898 72.9364 79.7713 72.7774C79.8544 72.7619 79.9295 72.7179 79.9836 72.6528C80.0376 72.5878 80.0672 72.5059 80.0672 72.4214C80.0672 72.3368 80.0376 72.2549 79.9836 72.1899C79.9295 72.1249 79.8544 72.0808 79.7713 72.0653C79.279 71.8157 73.7896 71.9007 73.2329 71.9007ZM69.5077 68.9849C69.5673 68.9142 69.6504 68.8675 69.7417 68.8533C69.833 68.8391 69.9263 68.8584 70.0045 68.9077C70.0827 68.957 70.1404 69.0328 70.167 69.1213C70.1937 69.2098 70.1874 69.3049 70.1494 69.3891C69.7379 70.3253 69.2207 71.2114 68.608 72.0301C67.1095 74.3701 65.1416 77.2109 63.055 78.9629C62.7212 79.2431 62.2679 78.7201 62.5489 78.4269C63.8684 76.9867 65.1048 75.4725 66.2519 73.8915C67.0122 72.8012 69.1922 69.2207 69.5077 68.9849ZM71.1249 79.5395C70.1708 79.1727 70.7313 81.1245 67.562 82.8925C67.4782 82.9427 67.4154 83.0215 67.3851 83.1143C67.3548 83.2071 67.359 83.3078 67.397 83.3978C67.4351 83.4877 67.5043 83.5609 67.5921 83.6038C67.6798 83.6468 67.78 83.6566 67.8744 83.6314C68.6705 83.3096 69.3935 82.8305 70.0002 82.2228C70.6068 81.6151 71.0847 80.8912 71.4051 80.0946C71.4291 79.9866 71.4141 79.8735 71.3629 79.7754C71.3116 79.6774 71.2273 79.6006 71.1249 79.5586V79.5395ZM77.5615 76.7523C77.6534 77.2377 77.9443 78.5318 77.2659 78.5371C76.6939 78.5371 76.769 77.5662 76.7299 77.2431C76.7113 76.6903 76.5336 76.1547 76.2181 75.7005C75.9026 75.2463 75.4626 74.8928 74.9512 74.6825C73.855 74.378 72.707 74.308 71.582 74.4773C71.4983 74.4769 71.4176 74.4461 71.3549 74.3906C71.2922 74.3351 71.2518 74.2587 71.2412 74.1756C71.2306 74.0926 71.2506 74.0085 71.2974 73.9391C71.3441 73.8696 71.4145 73.8195 71.4955 73.7981C72.8184 73.4324 74.2226 73.4891 75.5117 73.9605C76.0535 74.2278 76.5237 74.6206 76.8833 75.1061C77.2429 75.5917 77.4814 76.156 77.5791 76.7523H77.5615ZM75.7398 76.7576C76.0719 77.4661 76.1529 78.2665 75.9696 79.0272C75.8026 80.1053 75.2153 79.9009 75.1181 79.6849C74.7896 78.9307 75.5331 78.5479 74.8646 77.1244C74.1533 75.6044 72.7972 75.8365 71.3607 75.8901C71.2694 75.8884 71.1817 75.8541 71.1134 75.7935C71.0451 75.7328 71.0008 75.6497 70.9884 75.5592C70.976 75.4687 70.9964 75.3767 71.0458 75.2999C71.0953 75.2232 71.1706 75.1666 71.2581 75.1404C73.141 74.7415 74.857 74.887 75.7398 76.7576ZM74.0553 78.5907C73.484 76.6987 73.1012 77.0593 70.8209 77.1458C70.7151 77.1458 70.6136 77.1879 70.5388 77.2627C70.464 77.3375 70.422 77.439 70.422 77.5448C70.422 77.6506 70.464 77.752 70.5388 77.8269C70.6136 77.9017 70.7151 77.9437 70.8209 77.9437C71.4796 77.8704 72.1452 77.8869 72.7995 77.9927C73.0797 78.0731 73.3814 79.5127 73.2092 80.149C73.083 80.485 72.8688 80.781 72.5889 81.0058C71.9764 81.6184 73.5844 82.0518 74.1257 80.5311C74.3107 79.8936 74.2868 79.2137 74.0576 78.5907H74.0553Z" fill="#191919"/>
<path d="M75.5624 80.4882C75.0264 80.4116 75.0264 81.2968 74.8886 82.1054C74.812 82.6016 74.6352 83.2432 74.8886 83.5128C75.4246 84.0488 75.6865 83.0702 75.7883 82.1345C75.8373 81.7302 76.1069 80.5755 75.5402 80.5173L75.5624 80.4882ZM83.2655 83.6797C83.1889 82.3642 83.1254 71.6151 83.9447 71.4482C84.6455 71.2568 85.26 70.8319 85.6863 70.2437C86.1127 69.6555 86.3255 68.9394 86.2893 68.2138C86.3437 65.5667 84.7801 66.3217 84.4891 66.8661C83.7831 68.1816 81.9623 63.2757 81.9623 60.5375C76.7493 59.6186 70.1841 58.6829 67.9497 53.1308C66.7904 50.257 73.5938 48.6996 83.777 57.0658C89.9923 54.2035 88.0895 60.3001 85.8682 65.481C87.9869 66.0736 87.8629 71.3563 84.5312 72.4022C84.1109 76.4238 84.1867 79.8848 84.0626 83.6368C84.0626 84.2616 83.2862 84.3589 83.254 83.7065L83.2655 83.6797ZM72.031 59.2381C71.2499 61.1087 70.4574 68.3003 70.5868 70.4887C70.5868 70.8555 71.2116 70.9091 71.2384 70.5316C71.4329 67.4864 72.0149 62.1853 72.8556 59.3997C72.9743 58.9954 72.2147 58.8637 72.0585 59.2381H72.031ZM81.4538 74.9352C80.9178 74.5018 80.7157 75.2584 79.7616 75.9307C79.0503 76.4268 78.1444 76.6481 78.3068 77.1114C78.5365 77.6987 79.5036 77.2194 80.3443 76.6045C80.6782 76.3702 82.0656 75.4291 81.4538 74.936V74.9352Z" fill="#191919"/>
<path d="M85.7932 83.9001C83.5095 85.5476 80.8678 86.6303 78.0848 87.0595C76.3175 87.3236 76.2685 86.9301 75.3136 85.5388C74.9805 85.0433 74.6566 84.5364 74.3182 84.0349C74.2688 83.9455 74.1858 83.8795 74.0877 83.8513C73.9895 83.8231 73.8842 83.835 73.7948 83.8844C73.7055 83.9339 73.6394 84.0168 73.6112 84.115C73.583 84.2131 73.5949 84.3184 73.6444 84.4078C74.1044 85.4598 74.7026 86.4458 75.4231 87.3397C74.4451 88.2546 73.5437 89.2479 72.7278 90.3099C72.0441 88.8525 71.5601 87.3094 71.289 85.7225L72.2079 85.3611C72.3173 85.3225 72.4068 85.2421 72.4569 85.1375C72.5069 85.0329 72.5133 84.9127 72.4747 84.8033C72.4362 84.6939 72.3557 84.6044 72.2511 84.5543C72.1465 84.5043 72.0263 84.4979 71.9169 84.5364C70.4345 84.9997 68.9574 85.6153 67.5018 86.1544C68.0378 84.3932 67.9176 84.224 67.0493 83.7439C63.8149 81.9652 62.4351 80.8388 61.0606 78.8924C60.7589 78.472 60.3003 79.0914 60.5644 79.5126C62.0308 81.8465 63.6801 83.3343 66.8824 84.8649C66.4781 86.1161 66.0791 87.3739 65.6855 88.6384C62.5752 87.8359 61.1785 87.0863 58.9687 84.6069C58.9074 84.535 58.8214 84.4887 58.7277 84.4771C58.6339 84.4655 58.5393 84.4895 58.4623 84.5443C58.3854 84.5991 58.3318 84.6808 58.3122 84.7732C58.2925 84.8656 58.3082 84.962 58.3561 85.0433C59.16 86.2309 60.1949 87.2445 61.3991 88.0234C62.6032 88.8023 63.9519 89.3308 65.3647 89.5771C63.4887 95.5551 61.3646 101.711 59.8125 107.744C59.7145 108.131 60.3485 108.356 60.4863 107.973C62.9657 101.312 65.0408 94.0275 67.1595 87.1973C68.2965 86.9076 69.4045 86.5144 70.4697 86.0227C70.5832 87.6175 71.0042 89.1752 71.7094 90.6101C72.6803 92.6101 73.224 90.4753 76.0219 88.0541C76.5579 88.9171 78.5488 92.6744 79.4186 92.7977C81.4861 93.0841 87.0574 88.3673 88.4541 86.7065C91.2106 88.3237 97.0798 91.6553 98.8371 94.372C101.781 98.9005 106.023 133.283 93.0047 133.234C83.9693 133.197 74.6329 127.935 66.6166 124.285C66.8709 121.148 67.7042 118.084 69.0746 115.25C69.2744 114.791 68.6971 114.603 68.4383 114.997C66.8331 117.716 65.9481 120.799 65.867 123.955C64.4869 123.34 63.0744 122.8 61.6357 122.338C61.8187 119.389 63.2529 114.343 64.7751 112.742C73.614 114.063 82.3035 116.24 90.7206 119.244C91.082 119.373 91.2926 118.736 90.9748 118.543C89.7302 117.926 88.4308 117.426 87.0934 117.049C86.7383 111.55 87.0603 106.028 88.0521 100.607C88.064 100.565 88.0675 100.52 88.0623 100.477C88.0571 100.433 88.0434 100.391 88.0218 100.352C88.0003 100.314 87.9714 100.28 87.9368 100.252C87.9021 100.225 87.8625 100.205 87.82 100.193C87.7776 100.181 87.7332 100.178 87.6894 100.183C87.6457 100.188 87.6033 100.202 87.5649 100.223C87.5264 100.245 87.4926 100.274 87.4653 100.308C87.438 100.343 87.4178 100.383 87.4058 100.425C86.2794 103.182 86.1286 113.465 86.3981 116.818C84.0581 116.047 65.5891 111.163 64.2958 112.071C62.5921 113.246 60.7735 119.008 60.8347 122.313C60.8347 123.025 61.3034 123.095 61.8593 123.327C69.2438 126.416 83.395 134.011 92.5858 134.27C92.7267 135.58 92.8615 138.545 92.9848 139.51C93.0445 139.979 93.7237 139.823 93.7015 139.357C93.6372 137.826 93.7398 135.729 93.5782 134.269C106.387 133.848 103.174 100.188 100.047 94.4417C97.8478 90.4041 89.1631 86.1398 88.9533 85.9423C88.7435 85.7447 86.258 83.5915 85.794 83.9254L85.7932 83.9001ZM59.4327 79.7768C59.7566 79.2859 60.3118 79.7768 60.0047 80.3128C56.1179 86.4094 43.3527 107.159 47.0404 114.436C47.7136 115.68 48.7356 116.699 49.9806 117.37C51.2256 118.04 52.6395 118.332 54.0482 118.209C54.1531 118.205 54.2557 118.241 54.3349 118.31C54.414 118.378 54.4637 118.475 54.4735 118.58C54.4833 118.684 54.4526 118.788 54.3877 118.871C54.3228 118.953 54.2287 119.008 54.1248 119.023C52.4938 119.287 50.8213 119.011 49.3616 118.237C47.902 117.463 46.7352 116.233 46.0388 114.735C42.2225 106.869 55.2029 86.2065 59.4618 79.776L59.4327 79.7768ZM57.5054 123.069C57.4994 122.991 57.4661 122.917 57.4114 122.86C57.3567 122.803 57.2838 122.767 57.2054 122.758C57.127 122.749 57.0479 122.767 56.9816 122.81C56.9154 122.853 56.8661 122.918 56.8423 122.993C56.1631 125.29 56.4326 132.871 57.2359 135.127C57.376 135.51 58.007 135.456 57.958 135.025C57.5015 131.057 57.3502 127.06 57.5054 123.069ZM71.9774 131.155C72.1015 131.398 71.9008 133.242 72.1765 136.444C72.2087 136.837 71.6405 136.859 71.5134 136.502C71.3089 135.792 70.8832 131.873 71.3518 131.112C71.387 131.06 71.435 131.018 71.4911 130.989C71.5472 130.961 71.6096 130.948 71.6723 130.951C71.7351 130.953 71.796 130.972 71.8494 131.005C71.9029 131.038 71.9469 131.084 71.9774 131.139V131.155ZM74.7914 90.9141C74.8879 90.5366 75.5946 90.4822 75.5296 90.9141C74.5755 97.8675 74.09 105.172 73.4545 111.549C73.4055 112.018 72.7156 111.895 72.737 111.436C72.9261 107.781 73.8695 94.5527 74.7914 90.898V90.9141ZM87.7021 86.0625C84.5696 89.1889 82.8069 90.5251 79.7387 91.911C78.924 90.666 78.1215 89.4156 77.3014 88.1759C79.9967 88.1759 83.9815 86.3964 86.1163 84.8979L87.7021 86.0625Z" fill="#191919"/>
<path d="M75.7508 70.0247C75.3163 70.0151 74.8865 69.9333 74.4789 69.7828C74.8832 68.9795 75.2929 68.1656 75.6972 67.3677C75.7201 67.2984 75.7194 67.2234 75.6951 67.1546C75.6708 67.0858 75.6243 67.027 75.5629 66.9874C75.5015 66.9479 75.4288 66.9299 75.3561 66.9362C75.2833 66.9425 75.2148 66.9728 75.1612 67.0224C74.6864 67.9412 74.2178 68.8601 73.7323 69.7713C73.3441 70.5102 75.3924 70.7315 75.7377 70.7422C75.8268 70.7348 75.9098 70.6946 75.9709 70.6294C76.032 70.5642 76.0667 70.4787 76.0683 70.3893C76.0699 70.3 76.0383 70.2133 75.9797 70.1459C75.921 70.0786 75.8394 70.0354 75.7508 70.0247ZM74.6726 61.3997C71.3624 62.1654 72.4681 63.2757 73.0554 63.0437C73.6253 62.8083 74.212 62.6156 74.8105 62.4671C75.5218 62.314 75.188 61.2757 74.665 61.389L74.6726 61.3997ZM76.8289 63.3837C76.7315 63.4501 76.6582 63.5463 76.6201 63.6579C76.5819 63.7694 76.581 63.8903 76.6174 64.0025C76.6538 64.1146 76.7256 64.212 76.822 64.2799C76.9184 64.3478 77.0342 64.3826 77.152 64.3791C77.9708 64.197 78.8128 64.1425 79.6482 64.2175C80.2685 64.2719 80.0686 63.4358 79.6482 63.3393C79.4484 63.3354 78.054 62.5108 76.8289 63.3837ZM73.7882 65.3676C74.3196 66.4014 73.2116 67.6265 72.91 66.8769C72.5432 65.9603 73.4054 64.6211 73.7882 65.3676ZM78.6888 66.2674C78.5648 65.4641 77.2929 66.2674 77.7699 67.6801C78.0395 68.4129 78.9185 67.5721 78.7133 66.262L78.6888 66.2674Z" fill="#191919"/>
<path d="M59.9668 120.973C59.0479 120.153 57.3733 120.471 56.3113 121.203C55.9774 119.585 55.8695 114.005 57.613 112.97C58.476 112.434 59.5648 112.707 60.3083 112.615C60.6858 112.572 60.891 111.964 60.4615 111.813C59.9258 111.632 59.3595 111.56 58.7957 111.602C58.2319 111.643 57.6822 111.797 57.1788 112.055C54.9629 113.295 54.7799 118.998 55.4177 121.364C55.4312 121.538 55.4931 121.704 55.5965 121.844C55.6998 121.984 55.8404 122.092 56.0023 122.156C56.1641 122.22 56.3406 122.237 56.5117 122.205C56.6828 122.173 56.8415 122.094 56.9698 121.977C58.0158 121.272 58.8136 121.557 59.6651 121.557C59.9346 121.557 60.2011 121.19 59.94 120.981L59.9668 120.973ZM62.9531 109.981C64.2716 111.202 63.2119 111.712 62.5488 110.967C61.2119 109.469 61.1253 109.792 59.2064 110.634C58.9423 110.747 57.8588 110.235 59.9668 109.377C61.3037 108.833 61.8083 108.921 62.9531 109.981Z" fill="#191919"/>
<path d="M134.504 86.8115C134.564 85.9538 138.869 79.8036 139.782 79.7669C140.696 79.7301 145.602 85.5672 145.399 86.3C145.308 86.6346 143.059 86.8827 140.634 87.0014C140.787 90.2357 141.647 101.815 141.491 103.755C141.421 104.574 135.054 103.594 122.548 103.858C122.645 106.17 122.99 111.27 122.925 113.022C122.932 113.094 122.925 113.167 122.904 113.237C122.882 113.306 122.847 113.371 122.8 113.426C122.753 113.482 122.696 113.527 122.631 113.56C122.566 113.593 122.495 113.612 122.423 113.617C122.35 113.622 122.277 113.612 122.209 113.588C122.14 113.564 122.077 113.526 122.023 113.477C121.969 113.428 121.926 113.369 121.896 113.303C121.866 113.236 121.849 113.165 121.847 113.092C121.264 109.081 120.338 70.9581 120.645 67.4435C117.281 67.3248 104.193 67.53 102.497 67.0445C101.797 66.8508 101.726 42.4521 101.775 39.7246C84.81 39.4604 67.8947 39.0669 50.8054 39.1044C50.8437 41.0294 51.418 55.8735 50.9586 56.7702C50.6615 57.3468 33.1687 56.689 31.0937 56.6997C31.1503 62.5079 31.2078 68.3156 31.2659 74.1228C32.2307 74.0256 38.234 73.6971 38.9859 73.8318C39.5219 73.9283 39.4813 74.8127 38.9859 74.8449C36.4192 75.0286 33.8426 75.0394 31.2767 75.1358C31.2445 79.0172 31.2177 116.213 30.8081 116.644C30.3984 117.076 18.5819 116.682 11.6223 116.919C9.94669 118.4 8.15419 119.743 6.26232 120.936C5.85266 121.089 5.54561 112.206 5.72632 111.824C5.97441 111.211 10.4592 114.632 11.7318 115.915C14.9984 115.71 26.6265 115.511 29.8984 115.813C30.0331 96.0988 30.2108 76.4605 30.0171 56.7357L17.3491 57.0328C17.3491 59.83 17.2304 67.3179 16.9984 68.4228C16.9788 68.5145 16.927 68.5962 16.8525 68.6532C16.7779 68.7101 16.6855 68.7385 16.5918 68.7334C16.4982 68.7282 16.4095 68.6898 16.3416 68.625C16.2738 68.5602 16.2314 68.4733 16.222 68.3799C16.0818 67.1778 16.222 59.3989 16.222 57.0596C16.222 56.2939 16.6048 56.019 16.8583 55.9815C20.5184 55.6798 26.1839 55.6094 30.0117 55.5718C30.0117 53.6798 29.9795 51.7012 29.9734 49.5663C29.9734 48.9354 30.9114 49.0303 30.9336 49.6529C31.0102 52.0679 31.063 53.8306 31.1113 55.5826C37.4509 55.5361 43.7902 55.651 50.1293 55.9271C50.0918 54.4661 49.7036 39.4589 49.7901 38.6771C49.8383 38.2567 50.0757 38.0898 50.5558 38.0845C67.3204 37.8685 85.0558 38.0845 101.827 38.6205C101.804 36.896 101.901 35.172 102.117 33.4611C102.134 33.3547 102.189 33.2582 102.272 33.1899C102.355 33.1216 102.461 33.0865 102.568 33.0911C102.676 33.0958 102.778 33.1399 102.855 33.2151C102.932 33.2903 102.979 33.3912 102.986 33.4986C103.084 35.217 103.084 36.9396 102.986 38.658C108.829 38.8517 113.983 39.0891 120.775 39.364C121.492 39.3961 121.573 40.5179 120.851 40.485L102.912 39.7775C102.794 48.2463 102.82 58.4563 103.49 66.118C104.918 66.0154 120.276 65.9243 121.407 66.458C121.892 66.6877 122.437 100.209 122.485 102.888C124.717 102.689 136.636 102.888 140.425 102.915L139.378 87.0618C136.866 87.13 134.487 87.0703 134.504 86.8115Z" fill="#191919"/>
</svg>
